<svg width="96" height="94" viewBox="0 0 96 94" fill="none" xmlns="http://www.w3.org/2000/svg">
<path d="M52.5265 2.53347L52.0737 2.57641V3.03123V92.3532V92.8532H52.5737H60.3643H60.8643V92.3532V52.71H74.2558C78.3901 52.71 81.9523 51.8787 84.9215 50.1922L84.9215 50.1923L84.9311 50.1866C87.8867 48.4194 90.0837 46.069 91.5056 43.1373C94.1736 37.8075 95.4993 31.6195 95.4993 24.5873C95.4993 22.7078 95.4824 21.3792 95.4207 20.5057C95.3901 20.0727 95.3469 19.7231 95.2799 19.4652C95.2467 19.3372 95.2008 19.2038 95.1299 19.0872C95.0593 18.971 94.9337 18.8234 94.726 18.7627C94.5124 18.7003 94.3247 18.7621 94.2021 18.8295C94.0834 18.8947 93.9846 18.9862 93.9064 19.0699C93.7487 19.2387 93.5833 19.4771 93.4136 19.7416C93.2525 19.9928 93.0711 20.2939 92.8713 20.6255L92.8262 20.7005C92.6069 21.0642 92.363 21.4677 92.0896 21.8996C91.1194 23.4318 89.7924 25.2971 87.9677 26.902C87.9828 26.23 87.9904 25.5444 87.9904 24.8454C87.9904 17.9093 86.6683 12.4997 83.9574 8.68154C81.2229 4.74339 77.1478 2.78939 71.8154 2.78939C68.1585 2.78939 64.3165 3.09284 60.2899 3.6985L59.8643 3.76252V4.19293V10.5105C59.2034 9.17843 58.5586 7.93768 57.9162 6.86117C57.1335 5.54954 56.3278 4.43323 55.4627 3.66359C54.5916 2.88853 53.6183 2.42993 52.5265 2.53347ZM60.8643 50.4192V14.8488C61.211 15.5584 61.5675 16.2792 61.9366 17.0048C63.7435 20.5569 65.8319 24.1787 68.4663 26.9147C71.11 29.6603 74.3314 31.5412 78.3858 31.5412C81.8869 31.5412 84.6758 30.4809 86.893 28.9928C86.5806 35.3534 85.5188 40.2747 83.7359 43.7872C81.6031 47.9892 78.4468 50.1685 74.2411 50.4192H60.8643Z" fill="white" stroke="url(#paint0_linear_41_1492)"/>
<path d="M1.5225 92.8517L1.32113 93.5H2H3.12634H27.155H27.4834L27.6138 93.1987L39.3306 66.139L46.288 93.1248L46.3847 93.5H46.7721H54.7504H55.397L55.2343 92.8742L31.5811 1.87422L31.4098 1.21497L30.8322 1.57602L29.7997 2.22141L29.6423 2.3198L29.5872 2.49708L1.5225 92.8517Z" fill="white" stroke="url(#paint1_linear_41_1492)"/>
<defs>
<linearGradient id="paint0_linear_41_1492" x1="73.7865" y1="1.9988" x2="73.7865" y2="92.3534" gradientUnits="userSpaceOnUse">
<stop stop-color="#376C3C"/>
<stop offset="1" stop-color="#051A2D" stop-opacity="0"/>
</linearGradient>
<linearGradient id="paint1_linear_41_1492" x1="32.3642" y1="2" x2="32.3642" y2="93" gradientUnits="userSpaceOnUse">
<stop stop-color="#376C3C"/>
<stop offset="1" stop-color="#051A2D" stop-opacity="0"/>
</linearGradient>
</defs>
</svg>
