<svg width="94" height="94" viewBox="0 0 94 94" fill="none" xmlns="http://www.w3.org/2000/svg">
<path d="M68.5558 60.1182H83.5V48.8322H68.5558V60.1182Z" fill="#EBEBEB"/>
<path d="M69.623 59.1318H71.4243V57.1395H69.623V59.1318Z" fill="white"/>
<path d="M78.9421 48.8604H77.2441V51.2678H78.9421V48.8604Z" fill="#FAFAFA"/>
<path d="M78.9421 57.6763H77.2441V60.0837H78.9421V57.6763Z" fill="#FAFAFA"/>
<path d="M72.2849 60.1949C72.258 60.1949 72.2373 57.7126 72.2373 54.6512C72.2373 51.5898 72.258 49.1074 72.2849 49.1074C72.3118 49.1074 72.3324 51.5898 72.3324 54.6512C72.3324 57.7126 72.3118 60.1949 72.2849 60.1949Z" fill="#E0E0E0"/>
<path d="M62.4613 79.5513H88.2466V60.0793H62.4613V79.5513Z" fill="#EBEBEB"/>
<path d="M64.3038 77.8525H67.4102V74.4145H64.3038V77.8525Z" fill="white"/>
<path d="M80.3796 60.1299H77.4512V64.2847H80.3796V60.1299Z" fill="#FAFAFA"/>
<path d="M80.3796 75.3379H77.4512V79.4927H80.3796V75.3379Z" fill="#FAFAFA"/>
<path d="M68.8972 79.6849C68.8517 79.6849 68.8145 75.4026 68.8145 70.1201C68.8145 64.8375 68.8517 60.5552 68.8972 60.5552C68.9427 60.5552 68.9778 64.8375 68.9778 70.1201C68.9778 75.4026 68.9427 79.6849 68.8972 79.6849Z" fill="#E0E0E0"/>
<path d="M87.4277 19.5806L88.8092 22.32L91.8969 22.7594L89.6633 24.8935L90.1907 27.9043L87.4277 26.4829L84.6647 27.9043L85.1921 24.8935L82.9585 22.7594L86.0462 22.32L87.4277 19.5806Z" fill="#EBEBEB"/>
<path d="M5.17664 54.9648L6.04731 56.6919L7.99341 56.9673L6.58502 58.3117L6.91799 60.211L5.17664 59.314L3.43528 60.211L3.76825 58.3117L2.35986 56.9673L4.30596 56.6919L5.17664 54.9648Z" fill="#EBEBEB"/>
<path d="M6.25605 39.9189L8.18974 43.7538L12.5121 44.3693L9.38511 47.3538L10.1234 51.5693L6.25605 49.579L2.39074 51.5693L3.12906 47.3538L0 44.3693L4.32236 43.7538L6.25605 39.9189Z" fill="#EBEBEB"/>
<path d="M86.1968 31.9536L87.0303 33.6078L88.8936 33.8731L87.5452 35.1588L87.8637 36.975L86.1968 36.1185L84.5299 36.975L84.8484 35.1588L83.5 33.8731L85.3634 33.6078L86.1968 31.9536Z" fill="#EBEBEB"/>
<path d="M58.8526 5.17676L59.686 6.82895L61.5494 7.09419L60.201 8.38192L60.5195 10.1981L58.8526 9.33963L57.1857 10.1981L57.5042 8.38192L56.1558 7.09419L58.0191 6.82895L58.8526 5.17676Z" fill="#EBEBEB"/>
<path d="M77.914 22.8608L78.46 23.9421L79.6802 24.1162L78.7971 24.9585L79.006 26.147L77.914 25.5861L76.8241 26.147L77.033 24.9585L76.1499 24.1162L77.3701 23.9421L77.914 22.8608Z" fill="#EBEBEB"/>
<path d="M27.5969 77.4678L28.6599 79.5735L31.0341 79.9116L29.3155 81.5517L29.7229 83.868L27.5969 82.7746L25.4729 83.868L25.8783 81.5517L24.1597 79.9116L26.5359 79.5735L27.5969 77.4678Z" fill="#EBEBEB"/>
<path d="M30.4013 75.3726L30.8397 76.2432L31.8221 76.3829L31.1106 77.0612L31.2781 78.0189L30.4013 77.5654L29.5244 78.0189L29.6919 77.0612L28.9805 76.3829L29.9628 76.2432L30.4013 75.3726Z" fill="#EBEBEB"/>
<path d="M69.6231 67.3057L70.5579 69.1583L72.6467 69.4559L71.1349 70.8976L71.4927 72.9344L69.6231 71.9727L67.7556 72.9344L68.1134 70.8976L66.6016 69.4559L68.6904 69.1583L69.6231 67.3057Z" fill="#FFC100"/>
<path d="M74.0797 65.6636L74.5202 66.5362L75.5026 66.6759L74.7911 67.3563L74.9587 68.316L74.0797 67.8624L73.1987 68.316L73.3683 67.3563L72.6548 66.6759L73.6392 66.5362L74.0797 65.6636Z" fill="#FFC100"/>
<path d="M68.2395 17.4447L68.9757 15.2053C68.2741 13.8219 68.061 12.2497 68.3699 10.735C68.6788 9.22029 69.4921 7.8487 70.6826 6.8351C71.873 5.82149 73.3733 5.22313 74.9483 5.13377C76.5233 5.0444 78.0841 5.46907 79.3862 6.34125C80.6882 7.21344 81.658 8.48385 82.1435 9.95346C82.6291 11.4231 82.6029 13.0089 82.0692 14.4624C81.5355 15.9159 80.5244 17.155 79.1943 17.9856C77.8641 18.8162 76.2902 19.1914 74.7189 19.0523C73.1858 18.9501 71.735 18.3353 70.6096 17.311L68.2395 17.4447Z" fill="#FAFAFA"/>
<path d="M68.2396 17.4444L68.3968 17.4323L68.8538 17.3999L70.6097 17.2825C71.4801 18.0705 72.552 18.6134 73.7118 18.8537C74.0699 18.9316 74.4336 18.9823 74.7997 19.0055L75.3787 19.0278C75.5731 19.0278 75.7738 19.0055 75.9744 18.9954C77.7886 18.8342 79.4698 17.9953 80.669 16.6528C81.3448 15.907 81.8466 15.0261 82.1394 14.0712C82.4394 13.0509 82.5002 11.9774 82.3173 10.9308C82.2718 10.6618 82.2082 10.396 82.127 10.1351C82.0903 10.003 82.0454 9.87317 81.9926 9.74637C81.9409 9.61679 81.8954 9.48721 81.8395 9.35965C81.6092 8.84469 81.3176 8.3581 80.9709 7.90993C80.7981 7.68653 80.6109 7.47417 80.4105 7.27416C80.3132 7.17218 80.2096 7.07616 80.1003 6.98665C79.9948 6.89553 79.8934 6.79632 79.7818 6.71331L79.4426 6.46629L79.273 6.34481L79.091 6.23952L78.7332 6.03704C78.6112 5.97023 78.483 5.91961 78.3589 5.85887C77.4084 5.41848 76.3691 5.19242 75.3175 5.19732C74.266 5.20223 73.2289 5.43798 72.2828 5.88721C70.6432 6.6581 69.3701 8.0177 68.7277 9.68361C68.6925 9.77674 68.6594 9.86988 68.6263 9.96099C68.5889 10.0509 68.5592 10.1437 68.5374 10.2384C68.4898 10.4247 68.4443 10.6089 68.3988 10.7891C68.336 11.1422 68.2932 11.4984 68.2706 11.8562C68.2243 13.0133 68.4731 14.1636 68.9945 15.2031L68.4402 16.8593L68.2934 17.2885C68.2603 17.3857 68.2417 17.4363 68.2417 17.4363C68.2417 17.4363 68.2541 17.3898 68.2851 17.2946L68.4175 16.8694L68.949 15.1909V15.2071C68.4137 14.1657 68.1548 13.0091 68.1962 11.844C68.2156 11.4823 68.2563 11.1219 68.3182 10.7648C68.3637 10.5826 68.4113 10.3963 68.4568 10.208C68.4788 10.1123 68.5078 10.0182 68.5436 9.92657C68.5788 9.83344 68.6119 9.7403 68.647 9.64513C68.9924 8.73685 69.5267 7.90866 70.2159 7.213C70.9052 6.51734 71.7345 5.96935 72.6513 5.60373C73.5681 5.23812 74.5525 5.06283 75.5421 5.08897C76.5317 5.11512 77.5049 5.34212 78.4003 5.75561C78.5264 5.81432 78.6567 5.86697 78.7808 5.93581L79.1448 6.14841L79.3268 6.25572L79.5005 6.37923L79.8438 6.62827C79.9575 6.71533 80.061 6.81455 80.1685 6.90566C80.2787 6.99707 80.3837 7.09441 80.4829 7.19722C80.6861 7.40132 80.8761 7.61772 81.0516 7.84514C81.405 8.29587 81.7028 8.78587 81.9388 9.30498C81.9946 9.43456 82.0401 9.56819 82.0918 9.69778C82.1467 9.82978 82.193 9.96503 82.2304 10.1027C82.3122 10.3682 82.3758 10.6388 82.4207 10.9126C82.6075 11.9747 82.5452 13.0645 82.2387 14.0996C81.9449 15.0726 81.4374 15.971 80.7517 16.7317C79.5342 18.087 77.8312 18.9322 75.995 19.0926C75.7882 19.0926 75.5814 19.1209 75.3911 19.1209L74.8059 19.0966C74.4363 19.0713 74.0691 19.0185 73.7077 18.9387C72.5435 18.6891 71.4709 18.1333 70.6055 17.3311H70.6221L68.8497 17.4222L68.3988 17.4424C68.2892 17.4444 68.2396 17.4444 68.2396 17.4444Z" fill="#263238"/>
<path d="M71.3149 11.8442L72.4876 10.848L74.4626 12.8343L78.8925 9.22217L79.8294 10.3661L74.1545 14.8894L71.3149 11.8442Z" fill="#FFC100"/>
<path d="M55.9695 67.2189L16.3113 75.8727C16.0818 75.9241 15.8441 75.9305 15.612 75.8915C15.38 75.8526 15.158 75.7691 14.9591 75.6458C14.7601 75.5225 14.588 75.3619 14.4527 75.1733C14.3174 74.9846 14.2216 74.7716 14.1708 74.5465L1.30919 18.0056C1.25795 17.7815 1.25236 17.5498 1.29275 17.3237C1.33313 17.0975 1.41869 16.8814 1.54452 16.6877C1.67035 16.4939 1.83399 16.3264 2.02605 16.1947C2.21812 16.063 2.43484 15.9697 2.6638 15.9201L42.322 7.26633C42.551 7.21615 42.7878 7.21065 43.0189 7.25016C43.25 7.28967 43.4709 7.37342 43.669 7.49659C43.867 7.61977 44.0383 7.77997 44.1731 7.96802C44.3078 8.15608 44.4033 8.36829 44.4542 8.59254L57.3241 65.1335C57.3753 65.3575 57.3809 65.5892 57.3405 65.8154C57.3002 66.0415 57.2146 66.2576 57.0888 66.4514C56.9629 66.6451 56.7993 66.8126 56.6072 66.9443C56.4152 67.076 56.1985 67.1693 55.9695 67.2189Z" fill="#E0E0E0"/>
<path d="M55.9692 67.2186L56.1016 67.1821C56.2302 67.1411 56.3542 67.0876 56.4718 67.0222C56.6646 66.9112 56.835 66.7663 56.9743 66.595C57.1642 66.36 57.2889 66.081 57.3363 65.7851C57.3662 65.6061 57.3662 65.4235 57.3363 65.2445C57.3032 65.0562 57.2515 64.8577 57.206 64.6512C57.1108 64.2463 56.9992 63.7846 56.8957 63.2946C56.671 62.3133 56.4125 61.1842 56.1202 59.9072C54.9559 54.811 53.2724 47.4369 51.1919 38.3235C50.1578 33.7678 49.0162 28.7768 47.794 23.4173C47.1846 20.7393 46.5538 17.9721 45.9016 15.1159C45.5776 13.6878 45.2481 12.2401 44.9131 10.7728C44.7435 10.0399 44.576 9.30084 44.4043 8.55776C44.3111 8.18738 44.0934 7.85844 43.7862 7.62379C43.479 7.38914 43.1002 7.26241 42.7105 7.26395C42.5163 7.26817 42.3232 7.29536 42.1356 7.34494L41.5565 7.47048L40.3922 7.72559L38.0428 8.23785L33.2613 9.28262L23.4088 11.439L2.67802 15.9582C2.23982 16.0533 1.85587 16.31 1.60592 16.675C1.35597 17.0399 1.25924 17.4852 1.33582 17.9181C1.52402 18.7787 1.72669 19.6412 1.91903 20.4997C2.31059 22.214 2.69871 23.9181 3.08338 25.6122L5.3583 35.6164C6.85148 42.1745 8.29089 48.4917 9.66205 54.5255C11.0332 60.5592 12.3341 66.269 13.5542 71.6366C13.7059 72.3115 13.8569 72.9756 14.0072 73.6289C14.0837 73.9569 14.1519 74.289 14.2326 74.6109C14.3195 74.928 14.4975 75.214 14.7455 75.435C14.9919 75.6527 15.2957 75.7986 15.6224 75.8561C15.7844 75.882 15.9492 75.8868 16.1125 75.8703C16.2738 75.8501 16.4372 75.8116 16.5985 75.7751L18.5239 75.356L25.8306 73.7646L47.8808 68.968L53.8784 67.6681L55.4377 67.332L55.9692 67.2186L55.4398 67.3401L53.8804 67.6843L47.8829 68.9983L25.8368 73.8233L18.5384 75.4208L16.613 75.8419C16.4517 75.8764 16.2904 75.9169 16.1208 75.9391C15.9512 75.9561 15.7801 75.9506 15.612 75.923C15.2699 75.8648 14.9518 75.7121 14.6953 75.4829C14.4388 75.2536 14.2546 74.9574 14.1643 74.6291C14.0816 74.3032 14.0134 73.9751 13.9368 73.6471C13.7866 72.9898 13.6349 72.3257 13.4819 71.6548C12.2617 66.2953 10.9567 60.5693 9.58346 54.5437C8.21024 48.5181 6.77083 42.1928 5.27558 35.6346L3.00065 25.6324C2.61598 23.9397 2.22786 22.2342 1.8363 20.5159C1.6419 19.6574 1.44129 18.7989 1.25102 17.9303C1.17141 17.4767 1.27332 17.0105 1.53559 16.6286C1.79786 16.2466 2.20033 15.9783 2.65941 15.8792L23.3923 11.3539L33.251 9.21175L38.0304 8.16901L40.3798 7.65675L41.5462 7.38949L42.1253 7.26395C42.3165 7.21542 42.513 7.18959 42.7105 7.18701C43.1142 7.18793 43.5061 7.32036 43.8244 7.56342C44.1427 7.80648 44.3693 8.14634 44.4684 8.52942C44.638 9.27452 44.8076 10.0115 44.9751 10.7465C45.3129 12.2151 45.6452 13.6608 45.972 15.0835C46.6186 17.9384 47.248 20.7055 47.8602 23.3849C49.0783 28.7444 50.2116 33.7354 51.2477 38.2931C53.3158 47.4045 54.991 54.7846 56.1492 59.8829C56.4366 61.1565 56.6931 62.2904 56.9164 63.2703C57.026 63.7623 57.1232 64.2139 57.2225 64.6289C57.268 64.8314 57.3197 65.0339 57.3507 65.2222C57.3817 65.4031 57.3817 65.5879 57.3507 65.7689C57.3036 66.0703 57.1767 66.3544 56.9826 66.5929C56.8414 66.7641 56.6698 66.9089 56.4759 67.0202C56.3568 67.0857 56.2305 67.138 56.0995 67.1761L55.9692 67.2186Z" fill="#263238"/>
<g opacity="0.3">
<path d="M18.3212 73.8699L54.4553 65.783L53.3137 58.8503L51.2642 54.9648L16.6978 68.2573L18.3212 73.8699Z" fill="black"/>
</g>
<g opacity="0.3">
<path d="M33.4082 9.33936L34.7752 11.5483L35.0399 12.7207L34.1134 12.9231L33.4082 9.33936Z" fill="black"/>
</g>
<path d="M3.3667 18.3336L15.9036 73.4065L55.1999 64.8338L52.958 54.9854L42.663 9.75879L3.3667 18.3336Z" fill="white"/>
<path d="M3.36681 18.3333L42.661 9.72607H42.6941V9.76049C46.1809 25.0655 50.5302 44.1649 55.2372 64.8335V64.876H55.1959L15.9017 73.4467H15.8644V73.4083C8.48333 40.8869 3.44127 18.6633 3.36475 18.3353C3.44127 18.6714 8.51642 40.8889 15.941 73.4083L15.8934 73.3799L55.1876 64.8011L55.1545 64.8517C50.4537 44.1872 46.1086 25.0878 42.6279 9.77872L42.6693 9.80504L3.36681 18.3333Z" fill="#263238"/>
<path d="M14.4322 11.7805L31.7621 8.00046C32.101 7.92654 32.456 7.98745 32.749 8.16979C33.042 8.35212 33.2491 8.64095 33.3246 8.97274L34.3257 13.372L14.4362 17.7103L13.436 13.315C13.3979 13.1502 13.3935 12.9796 13.423 12.8131C13.4526 12.6466 13.5154 12.4875 13.608 12.3448C13.7006 12.2022 13.8211 12.0789 13.9626 11.9821C14.104 11.8852 14.2636 11.8167 14.4322 11.7805Z" fill="#263238"/>
<path d="M25.1461 7.21729L20.0854 8.32077L21.6427 12.4391L25.4543 11.6069L25.1461 7.21729Z" fill="#263238"/>
<path d="M31.7623 7.99682C31.7623 8.01909 27.8929 8.88365 23.1093 9.92842C18.3258 10.9732 14.4398 11.8054 14.4336 11.7831C14.4274 11.7608 18.303 10.8962 23.0907 9.85148C27.8784 8.80671 31.7499 7.98062 31.7623 7.99682Z" fill="#455A64"/>
<path d="M14.6794 16.7034C14.6566 16.7034 14.456 15.9137 14.2327 14.9297C14.0093 13.9457 13.8439 13.1419 13.8687 13.1358C13.8935 13.1297 14.092 13.9254 14.3154 14.9115C14.5387 15.8975 14.7021 16.7034 14.6794 16.7034Z" fill="#455A64"/>
<path d="M33.3771 12.1761C33.2109 11.6435 33.0729 11.1028 32.9635 10.5563C32.8266 10.0222 32.7176 9.48152 32.6367 8.93652C32.8025 9.46583 32.9406 10.0031 33.0503 10.5462C33.1876 11.0837 33.2966 11.6277 33.3771 12.1761Z" fill="#455A64"/>
<path d="M32.5895 13.1376C32.5895 13.1599 28.6167 14.0467 23.707 15.1178C18.7973 16.1889 14.8141 17.0413 14.8037 17.017C14.7934 16.9927 18.7745 16.1079 23.6966 15.0368C28.6187 13.9658 32.5771 13.1154 32.5895 13.1376Z" fill="#455A64"/>
<path d="M22.1229 29.1574C22.1229 29.1817 19.4447 29.785 16.1254 30.5099C12.806 31.2348 10.1278 31.7997 10.1133 31.7774C10.0989 31.7551 12.8019 31.1497 16.1109 30.4269C19.4199 29.7041 22.1167 29.1351 22.1229 29.1574Z" fill="#263238"/>
<path d="M42.1235 26.9529C42.1235 26.9772 35.1188 28.5261 26.4678 30.4132C17.8169 32.3002 10.7956 33.8127 10.7915 33.7904C10.7874 33.7682 17.7941 32.2172 26.4492 30.3302C35.1043 28.4431 42.1193 26.9306 42.1235 26.9529Z" fill="#263238"/>
<path d="M42.5557 28.852C42.5557 28.8742 35.5489 30.4232 26.898 32.3122C18.2471 34.2013 11.2279 35.7118 11.2217 35.6875C11.2155 35.6632 18.2264 34.1163 26.8794 32.2292C35.5324 30.3422 42.5495 28.8236 42.5557 28.852Z" fill="#263238"/>
<path d="M42.9859 30.739C42.9859 30.7613 35.9812 32.3102 27.3302 34.1973C18.6793 36.0843 11.6581 37.5988 11.6519 37.5745C11.6457 37.5502 18.6566 36.0033 27.3116 34.1143C35.9667 32.2252 42.9797 30.7167 42.9859 30.739Z" fill="#263238"/>
<path d="M43.4159 32.6321C43.4159 32.6544 36.4112 34.2033 27.7603 36.0904C19.1094 37.9774 12.0881 39.4899 12.084 39.4677C12.0798 39.4454 19.0866 37.8965 27.7417 36.0074C36.3968 34.1183 43.4118 32.6078 43.4159 32.6321Z" fill="#263238"/>
<path d="M43.8481 34.5212C43.8481 34.5455 36.8413 36.0944 28.1904 37.9815C19.5394 39.8685 12.5161 41.383 12.5161 41.3608C12.5161 41.3385 19.5208 39.7896 28.1738 37.9005C36.8268 36.0114 43.8419 34.5009 43.8481 34.5212Z" fill="#263238"/>
<path d="M18.5903 47.8459C18.5819 47.8257 18.5756 47.8047 18.5717 47.7832L18.5262 47.603C18.4869 47.439 18.431 47.2102 18.3628 46.9247C18.2242 46.3395 18.0298 45.5175 17.7982 44.5335L17.8437 44.5618L14.452 45.3069C14.452 45.3069 14.514 45.2117 14.4851 45.2563V45.2705V45.2988L14.4975 45.3555L14.5244 45.4689L14.574 45.6936C14.6092 45.8435 14.6423 45.9913 14.6753 46.1391C14.7415 46.4306 14.8077 46.7182 14.8697 46.9976C14.9959 47.5544 15.1138 48.0808 15.2234 48.5647L15.1779 48.5364L17.6286 48.0201L18.3256 47.8783L18.5117 47.8439L18.5779 47.8318C18.5779 47.8318 18.5613 47.8318 18.52 47.85L18.3442 47.8925L17.6617 48.0504L15.2048 48.6234H15.1676V48.587L14.8077 47.0219C14.7436 46.7425 14.6774 46.4549 14.6009 46.1634C14.5678 46.0156 14.5326 45.8678 14.4996 45.7179C14.4809 45.645 14.4644 45.5681 14.4479 45.4932L14.421 45.3798L14.4086 45.3231V45.2948V45.2806V45.2705C14.3796 45.317 14.4479 45.2097 14.4416 45.2198L17.8354 44.4849H17.8727V44.5213L18.4062 46.951C18.4662 47.2345 18.5138 47.4612 18.5489 47.6232C18.5634 47.6961 18.5737 47.7528 18.5841 47.7994C18.5882 47.8146 18.5903 47.8302 18.5903 47.8459Z" fill="#263238"/>
<path d="M43.801 39.66L20.1387 44.8213L20.5785 46.7541L44.2408 41.5929L43.801 39.66Z" fill="#E0E0E0"/>
<path d="M19.9015 53.6085C19.8938 53.5874 19.8875 53.5657 19.8829 53.5437C19.8705 53.4971 19.856 53.4364 19.8374 53.3635C19.7981 53.1995 19.7423 52.9727 19.6741 52.6872C19.5355 52.1001 19.3411 51.2699 19.1095 50.294L19.155 50.3223L15.7632 51.0674C15.7632 51.0796 15.8253 50.9723 15.7963 51.0188V51.029V51.0431V51.0715L15.8087 51.1282L15.8356 51.2416C15.8522 51.3185 15.8687 51.3934 15.8873 51.4683L15.9866 51.9118C16.0528 52.2053 16.119 52.4908 16.181 52.7702C16.3072 53.327 16.425 53.8535 16.5347 54.3374L16.4892 54.309L18.9419 53.7948L19.6368 53.653L19.823 53.6166C19.8445 53.6107 19.8667 53.6073 19.8891 53.6065L19.8333 53.6227L19.6554 53.6652L18.973 53.8251L16.5057 54.3819H16.4685V54.3455L16.1086 52.7804C16.0445 52.501 15.9783 52.2134 15.9018 51.9219C15.8687 51.7761 15.8336 51.6263 15.8005 51.4785C15.7839 51.4035 15.7653 51.3286 15.7488 51.2517L15.7219 51.1383L15.7095 51.0816V51.0533V51.029L15.7426 50.9763L19.1343 50.2515H19.1715V50.2859C19.3907 51.2841 19.5851 52.1081 19.7051 52.7156C19.765 52.999 19.8126 53.2258 19.8478 53.3878C19.8622 53.4607 19.8726 53.5174 19.8829 53.5639C19.8911 53.5779 19.8973 53.5929 19.9015 53.6085Z" fill="#263238"/>
<path d="M45.111 45.4227L21.4487 50.584L21.8886 52.5168L45.5509 47.3556L45.111 45.4227Z" fill="#E0E0E0"/>
<path d="M21.2129 59.3689C21.2129 59.3689 21.2129 59.3446 21.1943 59.3041C21.1757 59.2636 21.1674 59.1968 21.1488 59.1239C21.1095 58.9599 21.0537 58.7331 20.9854 58.4476C20.8468 57.8625 20.6524 57.0303 20.4208 56.0544L20.4663 56.0827L17.0663 56.8278C17.0663 56.84 17.1284 56.7327 17.0994 56.7792V56.7934V56.8076V56.8359L17.1118 56.8926L17.1387 57.006C17.1553 57.0829 17.1718 57.1579 17.1904 57.2328L17.2897 57.6762C17.3559 57.9698 17.422 58.2553 17.4841 58.5347L17.8377 60.1018L17.7922 60.0755L20.245 59.5592L20.9399 59.4175L21.126 59.381C21.148 59.3787 21.1702 59.3787 21.1922 59.381L21.1364 59.3972L20.9585 59.4398L20.276 59.5997L17.8088 60.1565H17.7716V60.1201C17.662 59.6382 17.5399 59.1077 17.4117 58.5549C17.3476 58.2755 17.2814 57.99 17.2049 57.6964C17.1718 57.5507 17.1366 57.4029 17.1036 57.253C17.087 57.1781 17.0684 57.1032 17.0519 57.0283L17.027 56.9149L17.0126 56.8582V56.8278V56.7934C16.9836 56.838 17.0519 56.7306 17.0457 56.7428L20.4394 56.0078H20.4767V56.0443L21.0102 58.4739C21.0702 58.7574 21.1178 58.9842 21.1529 59.1482C21.1674 59.2191 21.1798 59.2757 21.1881 59.3223C21.1985 59.3366 21.2069 59.3523 21.2129 59.3689Z" fill="#263238"/>
<path d="M46.4235 51.1849L22.7612 56.3462L23.2011 58.279L46.8634 53.1178L46.4235 51.1849Z" fill="#E0E0E0"/>
<path d="M15.3311 46.6575L15.6868 46.1088L16.7436 46.6838L18.1044 44.6753L18.6297 45.0316L16.8759 47.5626L15.3311 46.6575Z" fill="#FFC100"/>
<path d="M16.5986 52.2254L16.9543 51.6767L18.0112 52.2517L19.3699 50.2432L19.8973 50.5995L18.1414 53.1284L16.5986 52.2254Z" fill="#FFC100"/>
<path d="M17.8994 57.9333L18.2551 57.3866L19.3099 57.9617L20.6707 55.9531L21.196 56.3075L19.4422 58.8384L17.8994 57.9333Z" fill="#FFC100"/>
<path d="M28.7301 65.0949C28.7301 65.1192 26.7365 65.5748 24.2671 66.1073C21.7978 66.6398 19.7917 67.063 19.7876 67.0407C19.7835 67.0184 21.7792 66.5629 24.2485 66.0283C26.7179 65.4938 28.7239 65.0747 28.7301 65.0949Z" fill="#263238"/>
<path d="M33.1848 64.054C32.645 64.2168 32.0968 64.352 31.5427 64.459C30.9969 64.5919 30.4448 64.698 29.8882 64.7769C30.4274 64.6145 30.9748 64.4793 31.5282 64.3719C32.4361 64.1755 33.1806 64.0318 33.1848 64.054Z" fill="#263238"/>
<path d="M47.9391 59.5083C47.9391 59.5305 46.1461 59.9436 43.9249 60.4275C41.7038 60.9114 39.8962 61.286 39.8921 61.2637C39.888 61.2414 41.6831 60.8304 43.9063 60.3445C46.1295 59.8586 47.935 59.486 47.9391 59.5083Z" fill="#263238"/>
<path d="M46.0198 64.8377C46.0198 64.8377 46.0384 64.783 46.0591 64.6778C46.0864 64.522 46.078 64.3622 46.0343 64.21C45.9607 63.9693 45.8652 63.7355 45.7489 63.5115C45.584 63.2142 45.4873 62.8853 45.4656 62.5477C45.4704 62.34 45.5197 62.1356 45.6102 61.9476C45.7007 61.7596 45.8303 61.5923 45.9909 61.4564C46.179 61.3035 46.4039 61.2003 46.6443 61.1567C46.8847 61.1131 47.1325 61.1306 47.3641 61.2073C47.6183 61.2831 47.8451 61.4285 48.0176 61.6265C48.1095 61.7331 48.1639 61.8659 48.1727 62.0051C48.1751 62.08 48.1528 62.1536 48.1093 62.2152C48.0657 62.2768 48.0031 62.3231 47.9307 62.3473C47.7955 62.3901 47.6573 62.4233 47.5171 62.4465L47.1035 62.5295C46.8264 62.5842 46.5451 62.6328 46.2556 62.6692C45.6948 62.7484 45.1256 62.7518 44.5639 62.6793C44.3101 62.6259 44.0451 62.6678 43.8214 62.7968C43.6437 62.9721 43.4932 63.172 43.3747 63.39C43.3027 63.4974 43.2027 63.5841 43.0851 63.6411C42.9655 63.6928 42.8304 63.6986 42.7067 63.6573C42.4939 63.5646 42.2916 63.4506 42.1028 63.3171C42.0152 63.2601 41.9155 63.2234 41.8112 63.2098C41.7136 63.1992 41.6154 63.2229 41.5341 63.2766C41.391 63.4048 41.2726 63.557 41.1845 63.7261C41.0905 63.8712 40.962 63.9919 40.81 64.0779C40.6581 64.1639 40.4872 64.2127 40.3118 64.2202C40.0466 64.2305 39.7874 64.1406 39.588 63.9691C39.4627 63.8631 39.3643 63.73 39.3005 63.5803C39.2782 63.5291 39.2622 63.4754 39.2529 63.4204C39.2529 63.4204 39.2715 63.4751 39.317 63.5743C39.3841 63.7174 39.4839 63.8435 39.6086 63.9428C39.8031 64.104 40.0531 64.1866 40.3077 64.1736C40.4749 64.1652 40.6376 64.1171 40.7817 64.0335C40.9258 63.9499 41.047 63.8333 41.1349 63.6937C41.2259 63.5167 41.3492 63.3575 41.4989 63.224C41.5931 63.1599 41.7074 63.1305 41.8215 63.141C41.9347 63.1575 42.0432 63.1968 42.14 63.2564C42.3257 63.385 42.5238 63.4955 42.7315 63.5864C42.8378 63.6214 42.9535 63.6163 43.0562 63.5722C43.1614 63.5211 43.2496 63.4418 43.3106 63.3435C43.4335 63.1197 43.5896 62.915 43.7738 62.736C43.8884 62.656 44.0225 62.6071 44.1626 62.5943C44.3001 62.58 44.4388 62.58 44.5763 62.5943C45.1319 62.6648 45.6947 62.6614 46.2494 62.5842C46.5348 62.5477 46.814 62.4971 47.0911 62.4445L47.5047 62.3635C47.6375 62.3394 47.7687 62.3076 47.8977 62.2683C47.9543 62.2507 48.0036 62.2155 48.0379 62.168C48.0722 62.1205 48.0898 62.0633 48.0879 62.0051C48.0785 61.8839 48.0308 61.7685 47.9514 61.6751C47.7882 61.485 47.573 61.3445 47.331 61.2701C47.1117 61.1972 46.877 61.1801 46.649 61.2205C46.4211 61.2609 46.2074 61.3574 46.0281 61.5009C45.874 61.6293 45.7491 61.7879 45.6615 61.9665C45.5738 62.145 45.5254 62.3396 45.5193 62.5376C45.538 62.8676 45.6282 63.19 45.784 63.4832C45.8985 63.7103 45.9906 63.9476 46.0591 64.1918C46.0996 64.3483 46.1031 64.5117 46.0694 64.6697C46.0597 64.7274 46.0431 64.7838 46.0198 64.8377Z" fill="#263238"/>
<path d="M50.2946 62.2462C50.2598 62.2599 50.2238 62.2708 50.1871 62.2786L49.8727 62.3515L48.7187 62.6127C47.7467 62.8354 46.4024 63.1472 44.9237 63.5137C43.445 63.8801 42.1111 64.2345 41.1494 64.4936L40.0078 64.8014L39.6955 64.8824C39.6597 64.8934 39.6231 64.9015 39.5859 64.9067C39.6192 64.8889 39.6547 64.8753 39.6914 64.8662L39.9975 64.771C40.2643 64.688 40.651 64.5686 41.1308 64.4369C42.0925 64.1616 43.4223 63.7992 44.9031 63.4246C46.3838 63.05 47.7281 62.7544 48.7063 62.5499C49.1944 62.4466 49.5915 62.3656 49.8665 62.313L50.183 62.2543C50.2199 62.2483 50.2572 62.2456 50.2946 62.2462Z" fill="#263238"/>
<path d="M33.3312 17.8188L17.269 21.3223L17.9414 24.2768L34.0036 20.7733L33.3312 17.8188Z" fill="#E0E0E0"/>
<path d="M48.5264 65.7648L53.7153 92.6047L58.4575 84.0259L67.4455 89.191L57.9053 63.0557L48.5264 65.7648Z" fill="#FFC100"/>
<g opacity="0.3">
<path d="M50.2717 74.7912C50.7657 74.8824 51.2749 74.8546 51.7555 74.7103C52.2361 74.5661 52.6737 74.3097 53.0306 73.9631C53.5042 73.4853 53.8186 72.8333 54.4142 72.5134C54.9498 72.2259 55.6096 72.2664 56.199 72.4263C56.7884 72.5863 57.3426 72.8515 57.932 73.0014C58.5136 73.1465 59.1189 73.1768 59.7125 73.0906C60.3062 73.0044 60.8764 72.8033 61.3899 72.4992L59.8926 68.4295L52.9438 67.5791L49.6348 71.4767L50.2717 74.7912Z" fill="black"/>
</g>
<path d="M58.1204 82.9609C58.0914 82.9609 57.3179 80.1789 56.3935 76.7348C55.469 73.2907 54.739 70.4885 54.7721 70.4824C54.8052 70.4764 55.5724 73.2604 56.4969 76.7085C57.4213 80.1566 58.1493 82.9528 58.1204 82.9609Z" fill="#263238"/>
<path d="M49.2853 67.1603L44.0964 94.0003L39.3542 85.4234L30.3662 90.5865L39.9064 64.4512L49.2853 67.1603Z" fill="#FFC100"/>
<g opacity="0.3">
<path d="M37.0522 72.2683C37.0522 72.2683 38.5289 73.4568 40.2888 72.9102C42.0488 72.3635 43.1428 72.246 44.0962 72.9102C45.0496 73.5743 47.6286 75.7347 47.6286 75.7347L48.2263 72.6388L44.7622 67.9819L41.1471 68.6967L38.5744 68.9417L37.6168 70.7174L37.0522 72.2683Z" fill="black"/>
</g>
<path d="M79.7094 42.9322C79.7094 44.8577 77.1966 46.516 76.8285 48.3362C76.45 50.2111 78.1169 52.6833 77.3869 54.4104C76.6569 56.1375 73.6643 56.7571 72.6034 58.3182C71.5424 59.8792 72.1008 62.803 70.742 64.1353C69.3833 65.4675 66.399 64.9067 64.8003 65.9575C63.2017 67.0084 62.6019 69.9118 60.8089 70.6408C59.0469 71.3555 56.5217 69.7235 54.6045 70.0941C52.7432 70.4545 51.0515 72.9145 49.0847 72.9145C47.118 72.9145 45.4221 70.4545 43.5629 70.0941C41.6478 69.7235 39.1226 71.3555 37.3585 70.6408C35.5944 69.926 34.9636 66.9962 33.3691 65.9575C31.7746 64.9188 28.7882 65.4655 27.4254 64.1353C26.0625 62.805 26.6374 59.8833 25.5641 58.3182C24.4907 56.753 21.525 56.1659 20.7826 54.4104C20.0401 52.655 21.7194 50.2131 21.341 48.3362C20.9728 46.5139 18.458 44.8577 18.458 42.9322C18.458 41.0066 20.9728 39.3463 21.341 37.5261C21.7194 35.6512 20.0505 33.179 20.7826 31.4519C21.5147 29.7248 24.5052 29.1052 25.5641 27.5461C26.6229 25.9871 26.0666 23.0613 27.4254 21.727C28.7841 20.3927 31.7684 20.9556 33.3691 19.9048C34.9698 18.8539 35.5655 15.9504 37.3585 15.2236C39.1516 14.4967 41.6457 16.1408 43.5629 15.7702C45.4242 15.4098 47.118 12.9478 49.0847 12.9478C51.0515 12.9478 52.7453 15.4098 54.6045 15.7702C56.5196 16.1408 59.0448 14.5068 60.8089 15.2236C62.6019 15.9504 63.2058 18.8681 64.8003 19.9048C66.3949 20.9414 69.3812 20.3968 70.742 21.727C72.1029 23.0573 71.53 25.979 72.6034 27.5461C73.6767 29.1133 76.6424 29.6964 77.3869 31.4519C78.1314 33.2073 76.45 35.6492 76.8285 37.5261C77.1966 39.3463 79.7094 41.0006 79.7094 42.9322Z" fill="#FFC100"/>
<path d="M41.9185 26.1246C41.9185 26.1246 41.8957 26.0983 41.8626 26.0416C41.8296 25.9849 41.7779 25.8938 41.722 25.7945C41.6 25.5799 41.4325 25.2641 41.2339 24.8713C40.8348 24.0857 40.3178 22.9801 39.8194 21.7329C39.3209 20.4857 38.9383 19.3275 38.6881 18.4933C38.564 18.0702 38.4689 17.728 38.4089 17.481C38.382 17.3716 38.3593 17.2785 38.3427 17.2056C38.332 17.1742 38.3264 17.1414 38.3262 17.1084C38.3422 17.1379 38.3547 17.1692 38.3634 17.2015L38.4482 17.4708C38.5288 17.7199 38.6343 18.056 38.7605 18.463C39.0293 19.2992 39.4243 20.4472 39.9186 21.7025C40.4129 22.9579 40.9217 24.0533 41.3022 24.847L41.7592 25.7844L41.8813 26.0395C41.8963 26.0667 41.9087 26.0952 41.9185 26.1246Z" fill="#263238"/>
<path d="M44.6444 25.11C44.6082 25.0394 44.5811 24.9645 44.5637 24.8873C44.5203 24.7415 44.4624 24.5289 44.3941 24.2657C44.2576 23.7413 44.088 23.0084 43.935 22.1944C43.782 21.3805 43.6744 20.6374 43.6124 20.0988C43.5793 19.8295 43.5586 19.6108 43.5462 19.459C43.5367 19.381 43.5367 19.3021 43.5462 19.2241C43.57 19.2993 43.5859 19.3766 43.5938 19.4549L43.693 20.0887C43.7757 20.6252 43.8998 21.3643 44.0467 22.1762C44.1935 22.9881 44.3569 23.7211 44.4727 24.2495C44.5285 24.4966 44.574 24.7071 44.6113 24.8772C44.6302 24.9535 44.6413 25.0315 44.6444 25.11Z" fill="#263238"/>
<path d="M49.4526 24.6426C49.4216 24.6426 49.345 22.3709 49.2809 19.5707C49.2168 16.7704 49.1879 14.4967 49.2168 14.4946C49.2458 14.4926 49.3244 16.7644 49.3885 19.5686C49.4526 22.3729 49.4815 24.6426 49.4526 24.6426Z" fill="#263238"/>
<path d="M54.2922 19.9756C54.3212 19.9756 53.9861 21.1196 53.5456 22.5126C53.1051 23.9057 52.7184 25.0253 52.6977 25.0172C52.677 25.0091 53.0038 23.8733 53.4443 22.4802C53.8848 21.0872 54.2612 19.9675 54.2922 19.9756Z" fill="#263238"/>
<path d="M56.2651 25.845C56.2692 25.8115 56.2782 25.7787 56.292 25.7478L56.3851 25.4805C56.4678 25.2497 56.5919 24.9176 56.7573 24.5086C57.082 23.6987 57.5453 22.5669 58.0747 21.3318C58.6042 20.0967 59.0964 18.9851 59.4583 18.1833C59.6362 17.7946 59.783 17.4747 59.8947 17.2358L60.0167 16.9806C60.0477 16.924 60.0643 16.8936 60.0684 16.8956C60.0608 16.9275 60.0505 16.9586 60.0374 16.9887L59.9319 17.252L59.5286 18.2137C59.175 19.0358 58.7014 20.1453 58.174 21.3743C57.6466 22.6034 57.1792 23.7129 56.8277 24.537L56.4244 25.4967L56.3106 25.7559C56.2993 25.7873 56.284 25.8172 56.2651 25.845Z" fill="#263238"/>
<path d="M58.8418 27.1655C58.8732 27.0939 58.9128 27.0259 58.9597 26.963C59.0424 26.8334 59.1665 26.6492 59.3195 26.4244C59.6297 25.9769 60.0765 25.3655 60.5956 24.7135C61.1147 24.0615 61.6131 23.4987 61.9812 23.0937C62.1653 22.8912 62.3183 22.7313 62.4258 22.6219C62.4776 22.5613 62.5367 22.5069 62.6016 22.46C62.5616 22.529 62.513 22.593 62.4569 22.6503C62.3452 22.7839 62.2046 22.9479 62.0432 23.1423C61.6896 23.5594 61.2036 24.1364 60.6845 24.7884C60.1654 25.4404 59.7125 26.0417 59.3857 26.4791L58.999 26.9954C58.9528 27.0573 58.9001 27.1143 58.8418 27.1655Z" fill="#263238"/>
<path d="M62.6101 30.1824C62.5894 30.1621 64.2273 28.6395 66.2644 26.7828C68.3015 24.9261 69.9726 23.438 69.987 23.4582C70.0015 23.4785 68.3718 25.0031 66.3327 26.8598C64.2935 28.7165 62.6307 30.2047 62.6101 30.1824Z" fill="#263238"/>
<path d="M69.1827 30.812C68.9833 30.9355 68.776 31.0464 68.5622 31.1441C68.1734 31.3465 67.6461 31.628 67.0629 31.954C66.4797 32.28 65.9419 32.5513 65.5428 32.7335C65.336 32.8246 65.1829 32.8955 65.0671 32.936C65.0106 32.9648 64.9499 32.9853 64.8872 32.9967C65.0866 32.8732 65.2938 32.7623 65.5076 32.6647C65.8964 32.4622 66.4238 32.1807 67.007 31.8548C67.5902 31.5288 68.1279 31.2473 68.5271 31.0752C68.7339 30.9841 68.8869 30.9132 69.0028 30.8728C69.059 30.8431 69.1197 30.8225 69.1827 30.812Z" fill="#263238"/>
<path d="M75.2607 33.2801C75.271 33.3084 73.3229 34.0049 70.9176 34.8371C68.5124 35.6693 66.5415 36.3192 66.5332 36.2929C66.525 36.2666 68.469 35.568 70.8763 34.7359C73.2836 33.9037 75.2503 33.2537 75.2607 33.2801Z" fill="#263238"/>
<path d="M77.1966 44.1063C77.1966 44.1347 75.0767 43.9626 72.4688 43.7196C69.861 43.4766 67.7473 43.2559 67.7515 43.2256C67.7556 43.1952 69.8692 43.3714 72.4792 43.6143C75.0891 43.8573 77.1986 44.078 77.1966 44.1063Z" fill="#263238"/>
<path d="M75.6394 53.8168C75.627 53.8431 73.6478 52.9522 71.2198 51.8305C68.7919 50.7088 66.8334 49.7754 66.8458 49.7491C66.8582 49.7228 68.8374 50.6116 71.2653 51.7354C73.6933 52.8591 75.6518 53.7905 75.6394 53.8168Z" fill="#263238"/>
<path d="M69.1289 63.0561C69.1061 63.0743 67.6812 61.4525 65.9419 59.4358C64.2026 57.4192 62.8129 55.765 62.8397 55.7467C62.8666 55.7285 64.2874 57.3483 66.0267 59.367C67.766 61.3856 69.1516 63.0358 69.1289 63.0561Z" fill="#263238"/>
<path d="M63.6939 64.2851C63.6296 64.2149 63.5721 64.139 63.5222 64.0583C63.4168 63.9085 63.2679 63.6878 63.09 63.4145C62.7301 62.8657 62.2483 62.0984 61.7395 61.2379C61.2308 60.3773 60.7965 59.5836 60.4986 59.0106C60.3477 58.7211 60.2257 58.4862 60.1471 58.3222C60.1003 58.2388 60.0615 58.1514 60.0312 58.061C60.0897 58.1366 60.1409 58.2173 60.1843 58.302C60.2836 58.4802 60.4118 58.7069 60.5669 58.9762C60.8874 59.5452 61.3342 60.3308 61.8409 61.1913C62.3475 62.0518 62.8191 62.8232 63.1624 63.38C63.3237 63.6473 63.4602 63.868 63.5657 64.0421C63.6174 64.1182 63.6604 64.1997 63.6939 64.2851Z" fill="#263238"/>
<path d="M60.3186 68.9214C60.3186 68.9214 60.2979 68.8951 60.2648 68.8384L60.1304 68.5913C60.0125 68.3747 59.8533 68.0588 59.663 67.666C59.2825 66.8784 58.7923 65.7729 58.327 64.5216C57.8617 63.2703 57.5101 62.1162 57.293 61.282C57.1792 60.8609 57.0861 60.5167 57.0406 60.2798C57.0179 60.1704 56.9993 60.0773 56.9827 60.0044C56.9745 59.9726 56.9697 59.94 56.9683 59.9072C56.9852 59.9362 56.997 59.9676 57.0034 60.0004L57.082 60.2697C57.1544 60.5207 57.2495 60.8548 57.3653 61.2618C57.6094 62.098 57.9713 63.2481 58.4366 64.5014C58.902 65.7547 59.3776 66.8541 59.7416 67.6498L60.1759 68.5873C60.2214 68.6885 60.2607 68.7736 60.2938 68.8424C60.3054 68.8676 60.3138 68.8941 60.3186 68.9214Z" fill="#263238"/>
<path d="M53.4813 65.6639C53.4366 65.4311 53.4069 65.1958 53.3924 64.9593C53.3448 64.524 53.2683 63.9226 53.1566 63.2646C53.045 62.6066 52.9147 62.0153 52.8154 61.5881C52.7504 61.3593 52.7007 61.1267 52.6665 60.8916C52.6973 60.948 52.7209 61.0078 52.7368 61.0698C52.7782 61.1872 52.8299 61.3573 52.8899 61.5699C53.0077 61.9931 53.1484 62.5823 53.2621 63.2484C53.3611 63.8128 53.4301 64.3818 53.4689 64.9532C53.4834 65.1719 53.4917 65.3582 53.4917 65.4736C53.497 65.5372 53.4935 65.6012 53.4813 65.6639Z" fill="#263238"/>
<path d="M49.008 71.4931C49.0032 71.4588 49.0032 71.4241 49.008 71.3898C49.008 71.3088 49.008 71.2096 49.008 71.0922C49.008 70.833 49.008 70.4584 49.008 69.9968C49.0245 69.0715 49.068 67.7959 49.1424 66.3887C49.2169 64.9815 49.3099 63.7059 49.3865 62.7846C49.4237 62.323 49.4588 61.9505 49.4857 61.6933C49.5002 61.5759 49.5105 61.4767 49.5188 61.3977C49.5212 61.3626 49.5282 61.3279 49.5395 61.2944C49.5443 61.3294 49.5443 61.3648 49.5395 61.3997C49.5395 61.4787 49.5395 61.5779 49.525 61.6974C49.5085 61.9707 49.4878 62.3392 49.4609 62.7887C49.4051 63.7261 49.3306 64.9936 49.2541 66.3927C49.1776 67.7918 49.1238 69.0755 49.0886 69.9988C49.0721 70.4483 49.0576 70.8087 49.0473 71.0922C49.0473 71.2116 49.0349 71.3088 49.0307 71.3898C49.0284 71.4251 49.0207 71.4599 49.008 71.4931Z" fill="#263238"/>
<path d="M45.3725 61.2944C45.3711 61.4689 45.3503 61.6427 45.3105 61.8128C45.2567 62.1286 45.1699 62.5639 45.0561 63.0398C44.9424 63.5156 44.8224 63.9448 44.7273 64.2546C44.686 64.424 44.6257 64.5883 44.5474 64.7446C44.5658 64.5716 44.6011 64.4007 44.6528 64.2344L44.9506 63.0195C45.0582 62.5639 45.1575 62.1509 45.236 61.8047C45.2647 61.6307 45.3104 61.4598 45.3725 61.2944Z" fill="#263238"/>
<path d="M38.7977 58.2104C38.5268 58.649 38.2248 59.0685 37.8939 59.4658C37.5905 59.8839 37.2596 60.2823 36.9033 60.6584C37.1737 60.2194 37.4757 59.7999 37.8071 59.403C38.1092 58.9839 38.4402 58.5854 38.7977 58.2104Z" fill="#263238"/>
<path d="M35.3505 55.9348C35.3712 55.953 34.089 57.429 32.4841 59.229C30.8792 61.029 29.5577 62.4686 29.535 62.4544C29.5122 62.4403 30.7965 60.9602 32.4014 59.1602C34.0062 57.3602 35.3278 55.9145 35.3505 55.9348Z" fill="#263238"/>
<path d="M33.6235 53.4224C33.1163 53.9013 32.5841 54.3541 32.029 54.7789C31.1294 55.5038 30.3849 56.0748 30.3745 56.0525C30.882 55.5746 31.4142 55.1225 31.969 54.6979C32.4983 54.2459 33.0505 53.8201 33.6235 53.4224Z" fill="#263238"/>
<path d="M31.6049 49.6339C31.6173 49.6602 29.8305 50.5309 27.6114 51.5756C25.3923 52.6204 23.5868 53.4485 23.5724 53.4222C23.5579 53.3959 25.3468 52.5273 27.5659 51.4805C29.785 50.4337 31.5925 49.6076 31.6049 49.6339Z" fill="#263238"/>
<path d="M30.7942 47.7446C30.7349 47.7702 30.6723 47.7879 30.6081 47.7973C30.4861 47.8256 30.3103 47.8621 30.0932 47.9005C29.6568 47.9815 29.0487 48.0706 28.3745 48.1374C27.7003 48.2042 27.0861 48.2326 26.6415 48.2387C26.4202 48.2387 26.2402 48.2387 26.1162 48.2387C26.0515 48.2428 25.9865 48.2366 25.9238 48.2204C26.1611 48.1885 26.4 48.1703 26.6394 48.1658C27.082 48.1395 27.6921 48.099 28.3642 48.0321C29.0363 47.9653 29.6423 47.8884 30.0807 47.8297C30.3162 47.7848 30.5547 47.7564 30.7942 47.7446Z" fill="#263238"/>
<path d="M30.1385 43.3814C30.0181 43.3911 29.897 43.3911 29.7766 43.3814L28.7921 43.3328C27.9649 43.2923 26.815 43.2558 25.5473 43.2619C24.2795 43.268 23.1296 43.3186 22.3003 43.3672L21.318 43.4259C21.1979 43.4394 21.0768 43.4434 20.9561 43.4381C21.0735 43.4105 21.1933 43.3928 21.3138 43.3854C21.5455 43.3591 21.8805 43.3267 22.2941 43.2923C23.1214 43.2255 24.2754 43.1647 25.5452 43.1566C26.815 43.1485 27.967 43.1991 28.7983 43.2579C29.212 43.2882 29.5491 43.3166 29.7807 43.3409C29.9008 43.3461 30.0203 43.3597 30.1385 43.3814Z" fill="#263238"/>
<path d="M30.5439 39.5509C30.5439 39.5792 29.1975 39.237 27.5534 38.7875C25.9092 38.338 24.5836 37.9533 24.5918 37.925C24.6001 37.8966 25.9382 38.2368 27.5823 38.6863C29.2265 39.1358 30.5521 39.5225 30.5439 39.5509Z" fill="#263238"/>
<path d="M31.4108 36.3433C31.3775 36.3414 31.3448 36.3346 31.3136 36.3231L31.0385 36.2421C30.8028 36.1692 30.4615 36.0558 30.0458 35.908C28.9596 35.5175 27.8952 35.0715 26.8568 34.5717C25.8188 34.0713 24.8088 33.5171 23.8311 32.9114C23.4568 32.6785 23.1569 32.4842 22.9543 32.3444L22.7226 32.1804C22.6709 32.142 22.644 32.1217 22.6461 32.1177C22.6774 32.13 22.7072 32.1456 22.735 32.1642L22.9791 32.31C23.1859 32.4396 23.492 32.6239 23.8704 32.8486C24.6294 33.2981 25.6924 33.8913 26.9044 34.4684C28.1163 35.0455 29.2455 35.5152 30.0727 35.8311C30.4863 35.987 30.8193 36.1105 31.053 36.1955L31.3198 36.2947C31.3514 36.3084 31.3819 36.3247 31.4108 36.3433Z" fill="#263238"/>
<path d="M33.3568 33.1039C33.3402 33.1262 32.2938 32.4337 31.0198 31.555C29.7458 30.6763 28.7263 29.9453 28.7449 29.921C28.7635 29.8967 29.8079 30.5912 31.0839 31.47C32.3599 32.3487 33.3733 33.0857 33.3568 33.1039Z" fill="#263238"/>
<path d="M29.2431 23.2676C29.2431 23.2676 29.272 23.2838 29.3217 23.3222L29.5285 23.5004L30.2916 24.1605L32.7961 26.3492L35.3109 28.5258L36.072 29.1879L36.2788 29.3722C36.3038 29.3923 36.326 29.4154 36.345 29.441C36.345 29.441 36.316 29.4268 36.2643 29.3884L36.0575 29.2203C35.8693 29.0725 35.6025 28.8538 35.2737 28.5825C34.616 28.0399 33.7185 27.2806 32.7361 26.4282C31.7538 25.5758 30.8748 24.7902 30.2544 24.2152C29.94 23.9276 29.6877 23.6948 29.514 23.5288L29.3175 23.3384C29.2679 23.2939 29.2389 23.2696 29.2431 23.2676Z" fill="#263238"/>
<path d="M35.6938 23.4521C35.6938 23.4521 35.7497 23.4967 35.8345 23.5919C35.9193 23.687 36.0413 23.8267 36.184 23.9968C36.4715 24.3491 36.8541 24.8472 37.2511 25.4141C37.6482 25.9811 37.9812 26.5115 38.2107 26.9023C38.3266 27.1048 38.4176 27.2566 38.4755 27.368C38.5113 27.4234 38.5391 27.4834 38.5582 27.5462C38.4066 27.353 38.2684 27.1501 38.1446 26.9388C37.8985 26.5581 37.5552 26.0377 37.1601 25.4708C36.7651 24.9039 36.3929 24.4038 36.1261 24.0413C35.9702 23.8535 35.8258 23.6568 35.6938 23.4521Z" fill="#263238"/>
<g opacity="0.2">
<path d="M27.4272 21.7288L36.4256 29.441L38.6613 27.6896L33.4413 19.8579C33.4413 19.8579 33.0401 20.1454 31.9936 20.437C30.9947 20.7184 28.027 20.7933 27.4272 21.7288Z" fill="black"/>
</g>
<g opacity="0.2">
<path d="M37.4434 15.205L41.836 25.9705L44.6445 25.11L43.7077 15.7719C43.7077 15.7719 43.2258 15.8832 42.1525 15.7496C41.1122 15.62 38.5912 14.6542 37.4434 15.205Z" fill="black"/>
</g>
<g opacity="0.3">
<path d="M49.1572 12.9515L49.453 24.6424L52.0836 24.7659L54.7473 15.7922C54.1939 15.6846 53.6675 15.4714 53.1983 15.1646C52.2883 14.5936 50.4312 12.8564 49.1572 12.9515Z" fill="black"/>
</g>
<g opacity="0.2">
<path d="M60.6309 15.1606L56.2651 25.9383L58.6352 27.0499L64.6431 19.7892C64.1915 19.416 63.8064 18.9719 63.5035 18.4751C62.9369 17.5782 61.9607 15.519 60.6309 15.1606Z" fill="black"/>
</g>
<g opacity="0.2">
<path d="M70.8848 21.8848L62.7529 30.1862L64.5646 32.5774L72.5103 27.386C72.2486 26.9142 72.0716 26.4019 71.9871 25.8715C71.7968 24.8591 71.7699 23.0206 70.8848 21.8848Z" fill="black"/>
</g>
<g opacity="0.2">
<path d="M77.3042 31.251L66.3535 35.6629L67.2614 38.4024L76.7892 37.39C76.7892 37.39 76.7293 37.1025 76.8554 36.0516C76.9754 35.0332 78.0756 32.7574 77.3042 31.251Z" fill="black"/>
</g>
<g opacity="0.2">
<path d="M79.7299 42.9321L67.7907 43.3371L67.6914 45.9146L76.7911 48.5224C76.8515 48.1514 76.973 47.7924 77.151 47.4595C77.8293 46.2203 79.7299 44.4709 79.7299 42.9321Z" fill="black"/>
</g>
<g opacity="0.2">
<path d="M77.5274 53.9828L66.5354 49.7896L65.4248 52.1362L72.9052 57.9331C73.2984 57.5644 73.7335 57.2411 74.2019 56.9693C75.1119 56.4003 77.2751 55.4791 77.5274 53.9828Z" fill="black"/>
</g>
<g opacity="0.2">
<path d="M61.3608 53.8169L58.6392 56.0441C58.846 56.2466 62.4714 62.2884 64.707 66.018C64.736 65.9934 64.7664 65.9705 64.798 65.9492C66.2684 64.9854 68.8867 65.3721 70.3633 64.4184L61.3608 53.8169Z" fill="black"/>
<path d="M56.3601 58.0444L52.2983 59.401L54.2217 70.1969C54.3466 70.1538 54.4745 70.1193 54.6043 70.0937C56.5194 69.7231 59.0445 71.3551 60.8086 70.6404C61.0502 70.539 61.2747 70.4024 61.4746 70.2354L56.3601 58.0444Z" fill="black"/>
<path d="M48.9439 72.9101L49.5912 58.8058L46.0754 57.9331L43.4634 70.0816L43.5585 70.0978C45.3785 70.444 47.035 72.7886 48.9439 72.9101Z" fill="black"/>
<path d="M40.1133 56.4106C40.1133 56.4106 35.4724 62.497 33.0444 65.7731C33.1568 65.8284 33.2659 65.8899 33.3712 65.9573C34.9657 67.0021 35.5675 69.9116 37.3606 70.6405C37.4433 70.6729 37.5281 70.6992 37.6129 70.7235L44.0964 58.7087L40.1133 56.4106Z" fill="black"/>
<path d="M35.3502 51.5107L25.4521 58.1701C25.4894 58.2187 25.5307 58.2653 25.5638 58.3159C26.6392 59.8871 26.0664 62.8007 27.4251 64.133C27.5505 64.2536 27.6893 64.3602 27.8388 64.4509C31.3359 60.5917 37.6147 53.663 37.8422 53.4221L35.3502 51.5107Z" fill="black"/>
<path d="M33.0816 46.7549L21.3782 48.6055C21.5664 50.444 20.0856 52.7643 20.7826 54.4084C20.8246 54.5089 20.8751 54.6057 20.9335 54.6979C25.0284 52.7015 33.5842 48.5488 33.9399 48.5265L33.0816 46.7549Z" fill="black"/>
<path d="M32.4426 40.3727L21.3803 37.2485C21.3699 37.3417 21.3575 37.4348 21.341 37.5259C20.9728 39.3482 18.458 41.0065 18.458 42.932C18.4586 43.0602 18.4696 43.1882 18.4911 43.3147H31.9938L32.4426 40.3727Z" fill="black"/>
<path d="M20.8281 31.3685C24.9644 33.537 33.0445 37.9246 33.0445 37.9246L35.034 34.2254L25.6903 27.3413C25.6489 27.4122 25.6096 27.4851 25.5641 27.5438C24.5114 29.0806 21.6306 29.6799 20.8281 31.3685Z" fill="black"/>
</g>
<path d="M79.7095 42.9321L79.6971 42.8025C79.6922 42.6755 79.6742 42.5494 79.6434 42.4259C79.523 41.9404 79.3127 41.4806 79.0229 41.0693C78.6672 40.5105 78.1295 39.8849 77.5753 39.0932C77.2623 38.6721 77.0219 38.2035 76.8638 37.7062C76.7292 37.1258 76.7292 36.5232 76.8638 35.9427C76.9796 35.3251 77.1678 34.6894 77.3312 34.0151C77.4946 33.3409 77.6476 32.612 77.4946 31.8669C77.408 31.4897 77.2315 31.138 76.9796 30.8403C76.7095 30.5373 76.4009 30.2692 76.0614 30.0426C75.3748 29.5648 74.5848 29.1841 73.8299 28.686C73.4394 28.4395 73.0846 28.1426 72.7752 27.8032C72.4714 27.4349 72.2508 27.0078 72.1278 26.5499C71.8631 25.6287 71.8031 24.6446 71.6025 23.6606C71.5149 23.1596 71.3422 22.6764 71.0917 22.2311C70.8197 21.7829 70.4069 21.4327 69.915 21.2329C69.4071 21.0332 68.8756 20.8971 68.3328 20.828C67.7848 20.7389 67.2223 20.6761 66.6597 20.5789C66.0834 20.4976 65.5246 20.3245 65.0052 20.0667C64.4903 19.7637 64.0543 19.3478 63.7313 18.8518C63.388 18.37 63.0922 17.8516 62.7779 17.3394C62.4768 16.8152 62.116 16.3262 61.7025 15.8815C61.2763 15.4318 60.6949 15.1526 60.0707 15.098C59.433 15.0749 58.7955 15.1479 58.1805 15.3146C57.56 15.4624 56.9231 15.6426 56.2716 15.7621C55.6131 15.914 54.9261 15.9015 54.2738 15.7256C53.6379 15.4814 53.0433 15.1449 52.5097 14.7274C51.9575 14.3225 51.4198 13.9175 50.8304 13.5571C50.241 13.1967 49.573 12.9355 48.8781 13.0125H48.7478C48.7044 13.0125 48.663 13.0307 48.6216 13.0388C48.5368 13.0591 48.45 13.0732 48.3673 13.0975C48.2007 13.1494 48.0377 13.2116 47.8792 13.2838C47.5593 13.4327 47.2522 13.6068 46.9609 13.8042C46.3736 14.2091 45.8173 14.6505 45.2134 15.0514C44.9127 15.2575 44.5944 15.4377 44.262 15.59C43.9214 15.7392 43.5568 15.8289 43.1846 15.8552C42.4383 15.8599 41.6955 15.7569 40.9799 15.5495C40.2595 15.3481 39.5246 15.1999 38.7815 15.1061C38.4105 15.0703 38.0359 15.095 37.673 15.179C37.3116 15.2773 36.9782 15.4561 36.6989 15.7013C36.1281 16.1893 35.7311 16.8453 35.334 17.4892C34.9591 18.1634 34.5208 18.8019 34.0249 19.3965C33.7623 19.691 33.4469 19.936 33.0942 20.1193C32.7342 20.286 32.3561 20.4123 31.9671 20.4959C31.1895 20.664 30.3953 20.7349 29.6115 20.8725C28.8277 21.0102 28.0273 21.2269 27.4607 21.7654C27.1872 22.0507 26.976 22.3876 26.8402 22.7555C26.7033 23.1267 26.6029 23.5097 26.5404 23.8995C26.3956 24.6811 26.3335 25.4829 26.1267 26.2705C26.0379 26.6702 25.8894 27.055 25.6862 27.4125C25.4721 27.7666 25.1914 28.0778 24.859 28.3297C24.2055 28.8439 23.463 29.2246 22.7516 29.6498C22.3951 29.8598 22.0532 30.0925 21.7279 30.3463C21.4042 30.5995 21.132 30.9099 20.9254 31.2615C20.7284 31.6195 20.6287 32.0211 20.6359 32.4277C20.6432 32.8365 20.6924 33.2435 20.7827 33.6426C20.9564 34.4525 21.2191 35.2482 21.3597 36.0723C21.4431 36.4952 21.4598 36.9281 21.4094 37.356C21.3507 37.7828 21.2103 38.1949 20.9957 38.5708C20.5635 39.3098 20.001 39.9598 19.5026 40.6482C19.2466 40.9875 19.0236 41.3494 18.8366 41.7294C18.6317 42.1 18.5244 42.5147 18.5244 42.9361C18.5244 43.3575 18.6317 43.7723 18.8366 44.1429C19.0233 44.523 19.2463 44.885 19.5026 45.2241C20.001 45.9125 20.5635 46.5625 20.9957 47.3015C21.2064 47.6704 21.3466 48.0739 21.4094 48.492C21.4619 48.9141 21.448 49.3416 21.368 49.7595C21.2294 50.5917 20.9668 51.3894 20.791 52.1993C20.7014 52.5986 20.6522 53.0055 20.6442 53.4142C20.636 53.8213 20.735 54.2236 20.9316 54.5825C21.1366 54.9351 21.4082 55.2464 21.732 55.4997C22.0573 55.7535 22.3993 55.9862 22.7557 56.1962C23.4671 56.6214 24.2034 57.0061 24.8652 57.5163C25.1971 57.7687 25.4777 58.0798 25.6924 58.4335C25.8972 58.7896 26.0457 59.1739 26.1329 59.5735C26.3273 60.3631 26.3935 61.1649 26.5466 61.9465C26.6108 62.3361 26.7119 62.7191 26.8485 63.0904C26.9811 63.4582 27.1887 63.7957 27.4586 64.0826C28.0315 64.6272 28.838 64.8439 29.6115 64.9815C30.385 65.1192 31.1895 65.184 31.9671 65.3581C32.3567 65.4421 32.7354 65.5684 33.0963 65.7347C33.4485 65.9188 33.7638 66.1636 34.0269 66.4576C34.518 67.0531 34.952 67.6916 35.3236 68.3649C35.7207 69.0088 36.1178 69.6648 36.6886 70.1527C36.9674 70.3975 37.3 70.5762 37.6606 70.6751C38.0266 70.7656 38.4054 70.7957 38.7815 70.7642C39.5233 70.6666 40.2567 70.5156 40.9758 70.3127C41.6917 70.1036 42.4354 69.9999 43.1825 70.0049C43.5547 70.0324 43.9193 70.1228 44.26 70.2722C44.5921 70.425 44.9104 70.6051 45.2113 70.8108C45.8152 71.2157 46.3695 71.6632 46.9589 72.056C47.2489 72.2548 47.5553 72.4295 47.875 72.5784C48.0337 72.6502 48.1967 72.7124 48.3631 72.7647C48.4479 72.7869 48.5327 72.8031 48.6175 72.8234L48.7457 72.8497H48.8739C49.5709 72.9266 50.241 72.6472 50.8283 72.305C51.4157 71.9628 51.9554 71.5316 52.5056 71.1347C53.0399 70.7173 53.6353 70.3808 54.2717 70.1365C54.9242 69.9617 55.6109 69.9492 56.2695 70.1001C56.921 70.2216 57.5497 70.4018 58.1784 70.5496C58.7945 70.7144 59.4324 70.7874 60.0707 70.7662C60.6941 70.7095 61.2743 70.4298 61.7004 69.9806C62.1127 69.5343 62.4733 69.0447 62.7758 68.5208C63.0881 68.0106 63.3838 67.4922 63.7271 67.0083C64.052 66.5131 64.4885 66.0975 65.0032 65.7935C65.5222 65.5353 66.0812 65.3629 66.6577 65.2832C67.2223 65.184 67.7827 65.1213 68.3308 65.0342C68.8739 64.9618 69.4055 64.8223 69.9129 64.6191C70.4044 64.4186 70.8169 64.0686 71.0896 63.6209C71.3386 63.1752 71.5105 62.6922 71.5984 62.1914C71.8052 61.2074 71.859 60.2214 72.1258 59.3001C72.2474 58.8424 72.4682 58.4157 72.7731 58.0488C73.0816 57.7085 73.4365 57.4115 73.8278 57.166C74.5827 56.6679 75.3727 56.2873 76.0573 55.8095C76.3983 55.5833 76.7078 55.3144 76.9776 55.0097C77.2292 54.7129 77.405 54.3617 77.4905 53.9852C77.5626 53.6215 77.5731 53.2487 77.5215 52.8817C77.4788 52.5298 77.4138 52.1809 77.3271 51.8369C77.1616 51.1627 76.9755 50.5269 76.8597 49.9094C76.7251 49.3289 76.7251 48.7263 76.8597 48.1458C77.0187 47.6489 77.2589 47.1805 77.5711 46.7589C78.1316 45.9672 78.6714 45.3415 79.0188 44.7827C79.3089 44.3716 79.5192 43.9118 79.6392 43.4261C79.6702 43.3027 79.6882 43.1765 79.693 43.0495L79.7054 42.922C79.7054 42.922 79.7054 42.9645 79.7054 43.0495C79.7014 43.177 79.6848 43.3038 79.6558 43.4282C79.538 43.9177 79.3276 44.3813 79.0354 44.7949C78.6817 45.3577 78.1461 45.9854 77.5877 46.7771C77.2774 47.1954 77.0405 47.6614 76.8866 48.1559C76.752 48.7303 76.752 49.3269 76.8866 49.9013C77.0024 50.5087 77.1906 51.1505 77.3581 51.8248C77.4482 52.1714 77.5173 52.523 77.5649 52.8776C77.6164 53.2494 77.6059 53.6268 77.5339 53.9953C77.4476 54.3804 77.2689 54.7399 77.0127 55.0441C76.7403 55.3522 76.4281 55.6245 76.0841 55.854C75.3934 56.3359 74.6054 56.7186 73.8547 57.2146C73.4714 57.4585 73.1235 57.7521 72.8207 58.0873C72.522 58.4485 72.3061 58.8683 72.1878 59.3183C71.9252 60.2295 71.8673 61.2135 71.6646 62.2036C71.5771 62.7123 71.4031 63.2031 71.1496 63.6553C70.8702 64.1162 70.4468 64.4769 69.9418 64.6839C69.4293 64.89 68.8921 65.0315 68.3432 65.105C67.7931 65.1941 67.2305 65.2569 66.6701 65.3561C66.101 65.4357 65.5491 65.606 65.0363 65.8603C64.536 66.1575 64.1116 66.5626 63.7954 67.0448C63.4562 67.5246 63.1605 68.0409 62.8461 68.5552C62.5419 69.0844 62.1784 69.5788 61.7624 70.0292C61.3227 70.4935 60.7231 70.782 60.079 70.8391C59.4317 70.864 58.7843 70.791 58.1598 70.6225C57.529 70.4747 56.9003 70.2965 56.255 70.177C55.6108 70.0294 54.9391 70.0412 54.3007 70.2114C53.6739 70.4534 53.0877 70.7857 52.5614 71.1975C52.0133 71.5923 51.4736 72.0175 50.8779 72.3739C50.7228 72.4549 50.576 72.55 50.4147 72.6168C50.334 72.6533 50.2554 72.6918 50.1748 72.7242L49.9245 72.8112C49.5852 72.9253 49.2248 72.9667 48.8677 72.9327L48.7333 72.9226C48.6899 72.9226 48.6465 72.9044 48.601 72.8963C48.5141 72.876 48.4252 72.8598 48.3404 72.8355C48.1686 72.7835 48.0006 72.7199 47.8378 72.6452C47.5133 72.4944 47.202 72.3177 46.9072 72.1167C46.3136 71.7118 45.7573 71.2704 45.1596 70.8715C44.8627 70.6699 44.5493 70.4925 44.2227 70.341C43.8923 70.1971 43.539 70.1102 43.1784 70.0839C42.4411 70.0807 41.7073 70.1837 41.0006 70.3896C40.274 70.5989 39.5321 70.7539 38.7815 70.8533C38.398 70.89 38.0109 70.8647 37.6358 70.7784C37.26 70.6758 36.9133 70.4902 36.6224 70.2358C36.0351 69.7316 35.6339 69.0695 35.2368 68.4236C34.8688 67.7555 34.4382 67.1224 33.9504 66.5325C33.6963 66.2473 33.3906 66.0105 33.0487 65.834C32.6963 65.67 32.3257 65.5463 31.9443 65.4655C31.175 65.2994 30.3829 65.2286 29.5929 65.0889C29.1949 65.024 28.8038 64.9237 28.4244 64.7892C28.0397 64.6511 27.6878 64.4375 27.3904 64.1615C27.1081 63.8663 26.8918 63.5167 26.7554 63.135C26.6158 62.7579 26.5126 62.3688 26.4473 61.9728C26.3025 61.1851 26.2405 60.3834 26.0337 59.6059C25.9478 59.2164 25.8028 58.8417 25.6035 58.4943C25.3942 58.1509 25.1205 57.8494 24.7969 57.6054C24.1558 57.1012 23.4154 56.7206 22.7019 56.2934C22.342 56.0808 21.9966 55.8454 21.6679 55.5888C21.3333 55.3262 21.0526 55.004 20.8406 54.6392C20.6364 54.266 20.5338 53.8476 20.5428 53.4243C20.5477 53.0053 20.5976 52.5879 20.6917 52.1791C20.8675 51.3692 21.1302 50.5593 21.2667 49.7494C21.3447 49.3415 21.358 48.9242 21.306 48.5123C21.2433 48.103 21.103 47.7089 20.8923 47.3501C20.4787 46.6212 19.9079 45.9753 19.4054 45.2808C19.1435 44.9348 18.9143 44.5661 18.7208 44.1793C18.5105 43.7944 18.4004 43.3646 18.4004 42.9281C18.4004 42.4915 18.5105 42.0617 18.7208 41.6768C18.9117 41.2912 19.1388 40.9238 19.3992 40.5793C19.9017 39.8849 20.4622 39.239 20.8841 38.5121C21.0945 38.1525 21.2348 37.7577 21.2977 37.3479C21.3459 36.9357 21.332 36.5189 21.2563 36.1107C21.1178 35.3008 20.8551 34.491 20.6793 33.6811C20.5869 33.2727 20.5377 32.8561 20.5325 32.4379C20.5242 32.0144 20.6275 31.596 20.8324 31.223C21.0457 30.8597 21.3263 30.5384 21.6596 30.2754C21.9878 30.0181 22.3332 29.7827 22.6937 29.5708C23.4072 29.1436 24.1413 28.7609 24.7887 28.2588C25.1117 28.0148 25.3846 27.7132 25.5932 27.3699C25.7915 27.0216 25.9358 26.6463 26.0213 26.2563C26.2136 25.4788 26.2798 24.6791 26.4349 23.8914C26.4995 23.4955 26.602 23.1064 26.741 22.7292C26.8657 22.3432 27.0827 21.9918 27.3741 21.7044C27.6655 21.4171 28.0227 21.202 28.4161 21.077C28.7955 20.9425 29.1866 20.8422 29.5846 20.7774C30.3746 20.6377 31.1667 20.5749 31.9361 20.4028C32.3167 20.3194 32.687 20.1959 33.0404 20.0343C33.3813 19.8563 33.6862 19.6189 33.9401 19.3337C34.4279 18.7438 34.8585 18.1107 35.2264 17.4426C35.6235 16.7967 36.0247 16.1346 36.6142 15.6325C36.9065 15.3743 37.2563 15.1864 37.6358 15.0838C38.0111 14.9984 38.398 14.9731 38.7815 15.0089C39.5275 15.1065 40.2651 15.2581 40.9882 15.4624C41.6946 15.67 42.4285 15.7738 43.1659 15.7702C43.5232 15.7423 43.873 15.6546 44.2 15.511C44.5277 15.3616 44.8412 15.1841 45.1369 14.9805C45.7366 14.5756 46.2929 14.1322 46.8865 13.7373C47.1808 13.5357 47.4922 13.3589 47.8171 13.2089C47.9797 13.1347 48.1469 13.0704 48.3176 13.0165C48.4045 12.9922 48.4934 12.9781 48.5803 12.9578L48.7106 12.9295H48.845C49.2021 12.8965 49.5622 12.9379 49.9018 13.051L50.152 13.138C50.2327 13.1704 50.3113 13.2089 50.3919 13.2453C50.5553 13.3142 50.7022 13.4073 50.8552 13.4883C51.4529 13.8447 51.9906 14.2699 52.5407 14.6647C53.0665 15.0761 53.652 15.4084 54.2779 15.6507C54.9162 15.822 55.5882 15.8338 56.2323 15.6851C56.8776 15.5677 57.5063 15.3895 58.137 15.2417C58.7617 15.0736 59.4089 14.9998 60.0562 15.0231C60.7001 15.081 61.2995 15.3693 61.7397 15.833C62.1562 16.2842 62.5203 16.7792 62.8255 17.309C63.1398 17.8213 63.4335 18.3396 63.7727 18.8174C64.0882 19.3006 64.5127 19.7065 65.0135 20.0039C65.526 20.2591 66.078 20.4295 66.6473 20.5081C67.2078 20.6073 67.7703 20.6701 68.3204 20.7592C68.8692 20.8337 69.4062 20.9751 69.9191 21.1803C70.424 21.3872 70.848 21.7469 71.1289 22.2068C71.3815 22.6595 71.5555 23.1501 71.6439 23.6586C71.8507 24.6487 71.9045 25.6327 72.1651 26.5438C72.2848 26.9934 72.5005 27.4129 72.7979 27.7749C73.1002 28.1113 73.4481 28.4056 73.832 28.6496C74.5827 29.1456 75.3727 29.5283 76.0614 30.0102C76.4054 30.2397 76.7175 30.512 76.99 30.8201C77.2464 31.1237 77.4257 31.4824 77.5132 31.8669C77.5853 32.236 77.5958 32.6142 77.5442 32.9866C77.4968 33.3406 77.4277 33.6915 77.3374 34.0374C77.172 34.7137 76.9817 35.3474 76.8659 35.9629C76.7313 36.5373 76.7313 37.1339 76.8659 37.7083C77.0198 38.2028 77.2567 38.6688 77.567 39.0871C78.1233 39.8808 78.659 40.5044 79.0147 41.0693C79.3064 41.4832 79.5168 41.9467 79.6351 42.436C79.6641 42.5604 79.6808 42.6872 79.6847 42.8147C79.7096 42.8876 79.7095 42.9321 79.7095 42.9321Z" fill="#263238"/>
<path d="M43.3309 70.7642C43.3599 70.7642 42.5968 73.8013 41.6268 77.5309C40.6569 81.2605 39.8462 84.2794 39.8172 84.2733C39.7883 84.2672 40.5514 81.2362 41.5213 77.5046C42.4913 73.773 43.3103 70.748 43.3309 70.7642Z" fill="#263238"/>
<path d="M49.0849 61.3125C59.4537 61.3125 67.8593 53.0832 67.8593 42.9319C67.8593 32.7805 59.4537 24.5513 49.0849 24.5513C38.7161 24.5513 30.3105 32.7805 30.3105 42.9319C30.3105 53.0832 38.7161 61.3125 49.0849 61.3125Z" fill="white"/>
<path d="M37.524 36.5622C37.2655 36.8153 35.8426 39.3502 35.7123 41.4418C35.582 43.5334 35.8902 55.2728 35.8902 55.2728L35.946 56.0523C39.3253 59.9216 51.6099 65.68 62.6743 56.0321L63.2948 48.8098L61.4686 33.521L55.1195 32.0004L53.6325 29.6416L43.7221 31.9134L42.837 33.9584L37.524 36.5622Z" fill="#455A64"/>
<path d="M52.9521 23.4943C53.3884 21.9049 53.8165 20.3053 53.9675 18.6673C54.1185 17.0293 53.9799 15.3366 53.314 13.8262C53.2126 13.5974 52.3751 12.0687 52.1227 12.1072C51.9428 12.1335 52.4847 13.571 52.4019 13.727C51.6057 15.2394 51.4609 17.0151 51.6905 18.7017C51.9273 20.3396 52.3505 21.9465 52.9521 23.4923" fill="#263238"/>
<path d="M52.7864 17.218C52.7078 13.0936 50.1889 9.70217 45.9802 9.89452L45.5914 9.93501C43.709 10.1293 41.9703 11.0102 40.721 12.4024C39.4718 13.7946 38.8036 15.5962 38.8494 17.4488C38.9404 21.0225 39.0851 24.9707 39.3147 26.87C39.7883 30.8 43.8646 30.9984 43.8646 30.9984L44.0528 33.584L45.7796 35.4204L53.7853 30.5611L52.7864 17.218Z" fill="#FFBF9D"/>
<path d="M43.875 31.0283C43.875 31.0283 46.425 30.9128 48.946 28.9731C48.946 28.9731 48.1022 32.5387 44.0529 32.5974L43.875 31.0283Z" fill="#FF9A6C"/>
<path d="M41.1639 20.6535C41.178 20.8013 41.2511 20.9377 41.3672 21.0332C41.4833 21.1287 41.6331 21.1756 41.7843 21.1638C41.8579 21.162 41.9304 21.1458 41.9975 21.1161C42.0646 21.0865 42.125 21.044 42.1751 20.9912C42.2252 20.9384 42.264 20.8763 42.2892 20.8085C42.3145 20.7408 42.3256 20.6688 42.322 20.5968C42.3073 20.4493 42.2341 20.3132 42.1181 20.2178C42.0021 20.1224 41.8526 20.0753 41.7016 20.0866C41.6279 20.0881 41.5552 20.1041 41.488 20.1337C41.4207 20.1632 41.3602 20.2057 41.3101 20.2586C41.2599 20.3115 41.2211 20.3737 41.196 20.4415C41.1709 20.5094 41.16 20.5815 41.1639 20.6535Z" fill="#263238"/>
<path d="M39.8857 18.9932C39.9643 19.058 40.3655 18.6997 40.9839 18.6369C41.6022 18.5741 42.0862 18.8394 42.1461 18.7482C42.1751 18.7138 42.0882 18.5883 41.8752 18.4668C41.5886 18.3138 41.2607 18.2509 40.9363 18.2866C40.615 18.319 40.3124 18.4501 40.0718 18.6612C39.896 18.8252 39.8464 18.9629 39.8857 18.9932Z" fill="#263238"/>
<path d="M46.6218 20.2C46.6359 20.3478 46.709 20.4842 46.8251 20.5797C46.9412 20.6751 47.091 20.722 47.2422 20.7102C47.3158 20.7084 47.3883 20.6922 47.4554 20.6626C47.5225 20.6329 47.5829 20.5905 47.633 20.5376C47.6831 20.4848 47.7219 20.4227 47.7471 20.355C47.7724 20.2873 47.7835 20.2153 47.7799 20.1433C47.7657 19.9953 47.6927 19.8587 47.5767 19.7629C47.4607 19.6671 47.3108 19.6198 47.1595 19.631C47.0858 19.6331 47.0132 19.6495 46.9461 19.6794C46.879 19.7093 46.8186 19.7519 46.7685 19.8049C46.7184 19.8579 46.6797 19.9201 46.6545 19.988C46.6293 20.0558 46.6182 20.1279 46.6218 20.2Z" fill="#263238"/>
<path d="M45.9638 18.6127C46.0424 18.6795 46.4456 18.3191 47.0619 18.2563C47.6782 18.1936 48.1663 18.4588 48.2242 18.3697C48.2532 18.3333 48.1684 18.2077 47.9554 18.0883C47.6682 17.9345 47.3395 17.8715 47.0144 17.9081C46.6927 17.9391 46.3897 18.0704 46.1499 18.2826C45.9762 18.4446 45.9265 18.5843 45.9638 18.6127Z" fill="#263238"/>
<path d="M44.2471 23.4902C44.2471 23.4558 43.8563 23.4294 43.2255 23.4153C43.0662 23.4153 42.9132 23.4011 42.876 23.2978C42.8447 23.14 42.8643 22.9766 42.9318 22.8301L43.271 21.6153C43.7384 19.874 44.0589 18.4486 43.9886 18.4304C43.9183 18.4121 43.4778 19.8092 43.0104 21.5525L42.6919 22.7775C42.614 22.9718 42.6082 23.1868 42.6754 23.3849C42.7036 23.4376 42.7438 23.4833 42.7929 23.5184C42.8421 23.5535 42.8988 23.5771 42.9587 23.5874C43.0487 23.5982 43.1396 23.5982 43.2296 23.5874C43.8604 23.561 44.2492 23.5246 44.2471 23.4902Z" fill="#263238"/>
<path d="M46.1106 23.721C46.0092 23.721 46.0795 24.3811 45.5563 24.9075C45.0331 25.4339 44.3154 25.4339 44.3154 25.5271C44.3154 25.5676 44.4871 25.6384 44.7911 25.6141C45.1827 25.5781 45.5488 25.4083 45.8252 25.1343C46.0889 24.8692 46.2372 24.5142 46.2388 24.1442C46.2491 23.8668 46.1561 23.7129 46.1106 23.721Z" fill="#263238"/>
<path d="M45.7343 16.1548C45.8128 16.3128 46.4209 16.171 47.1551 16.1832C47.8892 16.1953 48.4973 16.3269 48.5758 16.169C48.611 16.0941 48.4931 15.9503 48.2387 15.8147C47.9013 15.6545 47.5311 15.5713 47.1561 15.5713C46.7811 15.5713 46.4109 15.6545 46.0734 15.8147C45.8128 15.9362 45.6991 16.0799 45.7343 16.1548Z" fill="#263238"/>
<path d="M39.925 16.9565C40.047 17.082 40.4586 16.8957 40.9694 16.835C41.4802 16.7742 41.9249 16.835 42.0035 16.677C42.0407 16.6021 41.958 16.4746 41.7553 16.3612C41.4838 16.2315 41.1791 16.1837 40.8798 16.2237C40.5805 16.2637 40.3 16.3898 40.0739 16.5859C39.9126 16.7459 39.8692 16.8937 39.925 16.9565Z" fill="#263238"/>
<path d="M52.772 20.1676C52.8382 20.1312 55.4481 19.0823 55.6508 21.7874C55.8535 24.4924 53.0512 24.1239 53.0326 24.047C53.0139 23.9701 52.772 20.1676 52.772 20.1676Z" fill="#FFBF9D"/>
<path d="M53.7977 22.9638C53.8101 22.9638 53.8473 22.9921 53.9321 23.0225C54.0499 23.0624 54.179 23.0559 54.292 23.0043C54.5753 22.8787 54.7863 22.409 54.7635 21.921C54.7539 21.6889 54.691 21.4619 54.5794 21.2569C54.5471 21.1746 54.4948 21.1011 54.4271 21.0429C54.3594 20.9847 54.2782 20.9435 54.1906 20.9228C54.1346 20.912 54.0765 20.9209 54.0266 20.9479C53.9766 20.975 53.938 21.0184 53.9176 21.0706C53.8846 21.1496 53.9073 21.2022 53.8928 21.2083C53.8784 21.2144 53.8308 21.1658 53.8432 21.0544C53.854 20.986 53.8883 20.9232 53.9404 20.8763C54.0123 20.815 54.1058 20.7837 54.201 20.7892C54.3158 20.8025 54.4252 20.8447 54.5183 20.9118C54.6115 20.9789 54.6853 21.0685 54.7325 21.1719C54.8683 21.397 54.945 21.6516 54.9558 21.9129C54.9786 22.4576 54.7325 22.9881 54.3354 23.1278C54.2631 23.1544 54.1856 23.1648 54.1086 23.1582C54.0316 23.1515 53.9572 23.128 53.8908 23.0893C53.808 23.0286 53.7894 22.9678 53.7977 22.9638Z" fill="#FF9A6C"/>
<path d="M40.3408 12.8566C39.8796 12.642 41.1267 11.1416 42.2021 10.5848C43.8132 9.74455 46.3156 9.13105 47.8729 9.45906C49.7487 9.86401 51.337 10.6537 52.369 12.237C53.401 13.8204 53.8746 15.7094 53.9449 17.5864C53.9656 18.1594 53.9449 18.7587 53.6636 19.2608C53.3182 19.8824 52.6027 20.3056 52.6895 21.1276C52.7102 21.2761 52.7004 21.427 52.6606 21.5717C52.6208 21.7163 52.5519 21.8517 52.4579 21.9699C51.9864 22.5288 51.337 22.0732 51.0206 21.5954C50.3443 20.583 50.1933 19.3175 50.061 18.1067C49.9658 17.2482 49.8728 16.3695 50.061 15.5272C50.1644 15.0676 50.3546 14.6282 50.4332 14.1646C50.5118 13.7009 50.4642 13.1846 50.1499 12.8282C50.0766 12.7535 49.9963 12.6857 49.91 12.6258C49.5031 12.32 49.0202 12.1262 48.5112 12.0642C48.0022 12.0023 47.4856 12.0745 47.0146 12.2734C45.4945 12.9092 42.8949 13.8811 42.1669 13.4073C41.1226 12.727 40.8496 12.2492 40.8496 12.2492L40.3408 12.8566Z" fill="#263238"/>
<path d="M37.5238 36.562C37.3646 36.7787 35.1041 37.5136 34.2458 38.9127C33.3876 40.3118 32.5396 46.5926 32.5396 46.5926L31.9937 50.719C33.0691 52.3833 34.5126 54.5883 36.043 56.1433L37.5238 36.562Z" fill="#455A64"/>
<g opacity="0.3">
<path d="M54.5093 42.6201C54.5702 43.467 54.7341 44.3037 54.9974 45.1126C55.2931 45.9083 55.8122 46.6575 56.5712 47.0685C56.8876 47.2386 57.2454 47.3519 57.5122 47.5949C57.779 47.8379 57.9403 48.2307 58.1988 48.5162C58.5222 48.8302 58.9212 49.0593 59.359 49.1823C60.591 49.6246 61.8983 49.8308 63.2098 49.7897C63.2512 49.3564 63.2533 47.765 63.2946 47.3297L54.5093 42.6201Z" fill="black"/>
</g>
<path d="M61.4686 33.521C61.4686 33.521 64.3185 34.3471 65.154 35.5356C65.9895 36.7241 67.4682 41.3325 67.7722 42.1869C68.0762 43.0413 67.8094 45.0215 67.2407 46.4389C66.672 47.8562 65.6834 49.0892 63.9772 49.2735C62.271 49.4577 59.5742 48.494 58.9662 47.8562C58.3582 47.2184 58.1079 45.8071 58.1079 45.8071C58.8656 45.6771 59.6128 45.4937 60.3435 45.2584" fill="#455A64"/>
<path d="M60.3435 45.2724L60.3083 45.2866L60.2008 45.325C60.1056 45.3574 59.9629 45.404 59.7747 45.4587C59.2309 45.6179 58.6786 45.7476 58.1202 45.8474L58.143 45.817C58.2123 46.1649 58.3098 46.5068 58.4346 46.8395C58.5027 47.0281 58.5849 47.2116 58.6807 47.3883C58.7789 47.5771 58.9081 47.7488 59.0633 47.8965C59.2384 48.0436 59.4315 48.1687 59.6382 48.269C59.8566 48.3813 60.081 48.482 60.3104 48.5707C60.8026 48.7634 61.3085 48.9204 61.8242 49.0404C62.3808 49.1742 62.9512 49.2455 63.5242 49.253C63.6734 49.2543 63.8225 49.2476 63.9709 49.2328C64.1206 49.216 64.2691 49.1903 64.4156 49.1559C64.716 49.0897 65.0046 48.9798 65.2718 48.8299C65.8281 48.5149 66.2952 48.0687 66.6305 47.532C66.9852 46.9746 67.2567 46.3706 67.4371 45.7381C67.5843 45.2521 67.6942 44.756 67.7659 44.254C67.8429 43.7678 67.8678 43.2752 67.8404 42.784C67.824 42.5477 67.7746 42.3147 67.6935 42.0915C67.615 41.8648 67.5384 41.64 67.464 41.4173L67.0193 40.1154C66.7257 39.269 66.4361 38.4693 66.1466 37.7262C65.8924 37.0347 65.5862 36.3627 65.2304 35.7156C65.066 35.4406 64.8465 35.2009 64.5852 35.011C64.3574 34.8336 64.1153 34.6744 63.8613 34.5352C63.4534 34.3073 63.0313 34.1045 62.5977 33.9278C62.242 33.784 61.9607 33.6828 61.7705 33.616L61.5533 33.541C61.5275 33.5343 61.5025 33.5248 61.4789 33.5127C61.505 33.516 61.5306 33.5221 61.5554 33.5309L61.7767 33.5957C61.9711 33.6564 62.2565 33.7516 62.6163 33.8893C63.0536 34.0583 63.4798 34.2537 63.8924 34.4744C64.1509 34.6137 64.3978 34.7728 64.6307 34.9503C64.8998 35.1436 65.1262 35.388 65.2966 35.669C65.6604 36.3197 65.9729 36.9965 66.2314 37.6938C66.5271 38.4348 66.8187 39.2366 67.1145 40.083C67.2613 40.5062 67.4102 40.9415 67.5633 41.3849C67.6398 41.6056 67.7163 41.8303 67.7928 42.0571C67.8778 42.2879 67.93 42.5291 67.9479 42.7739C67.9773 43.2724 67.9531 43.7726 67.8755 44.2661C67.8024 44.7736 67.6912 45.275 67.5426 45.7664C67.3579 46.4097 67.0792 47.0234 66.7153 47.5887C66.3705 48.1398 65.8898 48.5972 65.3173 48.919C65.0415 49.0725 64.7438 49.1851 64.4342 49.253C64.2836 49.2882 64.1309 49.3145 63.9771 49.332C63.8241 49.332 63.6711 49.3583 63.5222 49.3523C62.9412 49.3419 62.3632 49.2672 61.7994 49.1295C61.2791 49.0074 60.7689 48.847 60.2731 48.6497C60.0423 48.5582 59.8165 48.4548 59.5969 48.3399C59.3841 48.2355 59.1854 48.1056 59.0054 47.9532C58.8453 47.7981 58.7126 47.6181 58.6125 47.4206C58.5165 47.2413 58.4342 47.0551 58.3663 46.8638C58.2451 46.5252 58.1504 46.1779 58.083 45.8252V45.7988H58.1099C58.8379 45.6753 59.3963 45.5356 59.7747 45.4344L60.2049 45.3149L60.3145 45.2845C60.3311 45.2724 60.3435 45.2704 60.3435 45.2724Z" fill="#263238"/>
<path d="M65.5736 43.7802C65.5529 43.7802 65.4867 43.436 65.2489 42.9217C64.9365 42.2531 64.5004 41.647 63.9625 41.1338C63.6645 40.8561 63.3275 40.6216 62.9616 40.4373L62.7113 40.328C62.6286 40.2916 62.5417 40.2754 62.4632 40.249C62.3144 40.2032 62.1612 40.172 62.0061 40.1559L61.9027 40.1417H61.6214C61.5243 40.1403 61.4273 40.1484 61.3319 40.166C61.2488 40.1824 61.1643 40.1912 61.0796 40.1923C61.1579 40.1606 61.2398 40.1382 61.3236 40.1255C61.4199 40.0988 61.5193 40.0845 61.6194 40.083H61.8055H61.9068L62.0144 40.0952C62.1747 40.1061 62.3334 40.1332 62.488 40.1761C62.5748 40.1974 62.6604 40.2231 62.7444 40.2531L63.005 40.3624C63.3844 40.5459 63.7331 40.7848 64.0391 41.0711C64.5886 41.5911 65.0242 42.2152 65.3192 42.9055C65.3719 43.0229 65.4175 43.1432 65.4557 43.2659C65.4876 43.3581 65.5139 43.4521 65.5343 43.5473C65.555 43.6236 65.5681 43.7015 65.5736 43.7802Z" fill="#263238"/>
<path d="M67.129 41.2758C67.0115 40.9811 66.8676 40.6972 66.6988 40.4274C66.2703 39.787 65.6288 39.3113 64.883 39.081C64.0082 38.8198 63.1582 38.9008 62.5647 38.9554L61.8553 39.0385C61.7693 39.0537 61.6821 39.0611 61.5947 39.0607C61.6765 39.0295 61.762 39.0084 61.8491 38.998C62.0146 38.9656 62.2627 38.923 62.5564 38.8826C63.3403 38.7484 64.1445 38.7816 64.9141 38.9797C65.3355 39.1037 65.7267 39.3104 66.0639 39.5872C66.34 39.8169 66.5761 40.0891 66.7629 40.393C66.8908 40.5925 66.9929 40.8067 67.067 41.0308C67.0972 41.1099 67.118 41.1921 67.129 41.2758Z" fill="#263238"/>
<path d="M64.9804 38.2813C63.8656 38.0239 62.7002 38.0687 61.6094 38.4109C61.7525 38.3195 61.9096 38.2511 62.0747 38.2084C62.4661 38.0906 62.8713 38.0225 63.2804 38.0059C63.6895 37.9917 64.0989 38.0284 64.4985 38.1152C64.6667 38.1467 64.8291 38.2027 64.9804 38.2813Z" fill="#263238"/>
<path d="M60.3685 34.2173C60.385 34.2173 60.3437 34.5028 60.3106 34.9604C60.2238 36.1324 60.3271 37.3106 60.6166 38.451L60.5422 38.4753C60.4574 38.2425 60.3912 38.0521 60.3478 37.9185C60.3208 37.8534 60.3013 37.7854 60.2899 37.716C60.332 37.7789 60.3654 37.847 60.3892 37.9185C60.445 38.0461 60.5215 38.2323 60.6166 38.4632L60.5422 38.4854C60.3785 37.9252 60.2697 37.351 60.2175 36.7705C60.1634 36.17 60.1689 35.5658 60.234 34.9664C60.2609 34.7376 60.292 34.5615 60.3168 34.4258C60.3237 34.3543 60.3411 34.284 60.3685 34.2173Z" fill="#263238"/>
<path d="M56.3374 29.0239C56.3374 29.0239 54.8587 29.0239 54.6725 30.7632C54.5298 32.0995 54.6725 33.3953 54.6725 33.9825C54.6725 34.5697 54.4099 36.6491 54.4099 36.6491C54.4099 36.6491 53.4006 37.5258 53.4172 38.5787C53.4337 39.6315 54.2031 39.9596 54.2031 39.9596C54.0741 40.2858 54.0457 40.642 54.1214 40.9839C54.1971 41.3258 54.3737 41.6384 54.6291 41.8831C54.6291 41.8831 54.201 42.8529 54.5526 43.5029C54.7552 43.8261 55.0715 44.0659 55.4419 44.1771C55.3812 44.305 55.3493 44.4442 55.3483 44.5853C55.3472 44.7264 55.3771 44.866 55.4359 44.9948C55.4948 45.1236 55.5811 45.2385 55.6892 45.3318C55.7972 45.4251 55.9245 45.4946 56.0623 45.5357C56.5592 45.6864 57.0796 45.7488 57.5989 45.7199L58.7033 45.6997L59.6753 46.2261C59.6753 46.2261 61.3422 45.5154 61.3836 44.5537L61.427 43.5919C61.427 43.5919 60.9493 42.0126 60.91 41.5065C60.8707 41.0003 61.2946 39.7915 61.0382 39.2489C60.7818 38.7062 59.8863 38.3863 59.9711 37.6291C60.0558 36.8718 59.8863 36.4507 59.5016 36.0316C59.1169 35.6124 57.419 34.7782 57.419 34.7782C57.419 34.7782 56.9826 33.5634 56.9826 32.7312C56.9826 31.8991 57.8326 29.3418 56.3374 29.0239Z" fill="#FFBF9D"/>
<path d="M57.3342 35.0942C57.2071 35.1961 57.0683 35.2831 56.9206 35.3534C56.66 35.5032 56.3002 35.7017 55.8865 35.9163C55.4729 36.1309 55.1131 36.3212 54.8525 36.4528C54.7116 36.5362 54.5618 36.6041 54.4058 36.6553C54.5324 36.5523 54.6713 36.4646 54.8194 36.3941C55.08 36.2443 55.4398 36.0459 55.8534 35.8312C56.2671 35.6166 56.6269 35.4263 56.8875 35.2947C57.0281 35.2113 57.178 35.1441 57.3342 35.0942Z" fill="#FF9A6C"/>
<path d="M58.3062 38.3682C58.3062 38.3682 58.2649 38.4147 58.1759 38.4815C58.0525 38.5764 57.9241 38.665 57.7913 38.7468C57.3546 39.0208 56.8902 39.2501 56.4056 39.4312C55.921 39.6152 55.4187 39.7509 54.9063 39.8361C54.6994 39.8665 54.5485 39.8847 54.4389 39.8908C54.3815 39.9013 54.3225 39.9013 54.2651 39.8908C54.2651 39.8746 54.505 39.8422 54.8856 39.7632C55.3874 39.66 55.8804 39.5192 56.3601 39.3421C56.8388 39.1608 57.3021 38.9428 57.7458 38.6901C57.9269 38.5735 58.1139 38.4661 58.3062 38.3682Z" fill="#FF9A6C"/>
<path d="M59.5764 37.3254C59.6033 37.3356 59.5475 37.5279 59.3696 37.6757C59.1918 37.8235 59.0015 37.8681 58.9953 37.8417C58.9891 37.8154 59.1421 37.7385 59.2972 37.5968C59.4524 37.455 59.5475 37.3133 59.5764 37.3254Z" fill="#FF9A6C"/>
<path d="M58.9662 41.2334C58.7676 41.3279 58.5597 41.4025 58.3458 41.4561C57.837 41.6043 57.3188 41.72 56.7947 41.8024C56.2706 41.886 55.7413 41.9347 55.2105 41.9481C54.9905 41.9647 54.7693 41.958 54.5508 41.9279C54.7681 41.8976 54.987 41.88 55.2064 41.8752C55.62 41.8469 56.168 41.7943 56.7781 41.6991C57.3882 41.6039 57.9322 41.4804 58.3251 41.3832C58.5356 41.3211 58.7497 41.2711 58.9662 41.2334Z" fill="#FF9A6C"/>
<path d="M60.3188 41.0002C60.3502 40.8948 60.3882 40.7913 60.4326 40.6904C60.5146 40.4431 60.5421 40.1816 60.5132 39.9231C60.4803 39.6648 60.3899 39.4166 60.2485 39.1962C60.1815 39.1082 60.12 39.0162 60.0645 38.9208C60.0645 38.9107 60.1823 38.9856 60.3126 39.1537C60.4799 39.3758 60.5853 39.6366 60.6187 39.9106C60.652 40.1846 60.6121 40.4624 60.5029 40.7168C60.4181 40.901 60.3292 41.0002 60.3188 41.0002Z" fill="#FF9A6C"/>
<path d="M59.0487 44.1649C58.8792 44.226 58.7028 44.2668 58.5234 44.2864C58.0938 44.3527 57.6595 44.3859 57.2246 44.3856C56.7887 44.3848 56.3536 44.349 55.9237 44.2783C55.7441 44.2584 55.5677 44.217 55.3984 44.1548C55.5781 44.1579 55.7572 44.1748 55.9341 44.2054C56.3626 44.2528 56.7934 44.2778 57.2246 44.2803C57.655 44.2795 58.0851 44.2565 58.513 44.2115C58.69 44.182 58.8691 44.1664 59.0487 44.1649Z" fill="#FF9A6C"/>
<path d="M56.4183 32.7517C56.4183 32.7638 56.3501 32.8185 56.2115 32.8671C56.0291 32.9268 55.8354 32.9461 55.6444 32.9237C55.4535 32.9013 55.27 32.8377 55.1071 32.7375C54.983 32.6586 54.9251 32.5897 54.9334 32.5796C55.1621 32.692 55.4057 32.7724 55.6572 32.8185C55.9129 32.8318 56.1692 32.8093 56.4183 32.7517Z" fill="#FF9A6C"/>
<path d="M60.6248 41.1157C60.6435 41.1656 60.6519 41.2186 60.6497 41.2716C60.6497 41.4155 60.6324 41.5589 60.598 41.6988C60.5587 41.875 60.4904 42.0795 60.4242 42.3063C60.3441 42.5435 60.318 42.7951 60.3477 43.0433C60.3829 43.3004 60.5793 43.5069 60.6104 43.7681C60.6315 43.9889 60.5738 44.21 60.447 44.3938C60.3699 44.5156 60.2805 44.6296 60.1802 44.7339C60.1099 44.8089 60.0665 44.8453 60.0602 44.8412C60.054 44.8372 60.2029 44.6631 60.3808 44.3573C60.4878 44.185 60.5336 43.9828 60.5111 43.7823C60.4863 43.5616 60.2877 43.3551 60.2402 43.0615C60.2087 42.7977 60.2391 42.5305 60.3291 42.2799C60.4015 42.0512 60.4759 41.8507 60.5235 41.6725C60.5712 41.4896 60.6051 41.3035 60.6248 41.1157Z" fill="#FF9A6C"/>
<path d="M61.1811 42.3872C61.2148 42.4466 61.2386 42.5108 61.2515 42.5775C61.2887 42.701 61.3383 42.8833 61.3838 43.11C61.44 43.3768 61.4732 43.6477 61.4831 43.9199C61.5009 44.2603 61.4371 44.6001 61.297 44.9121C61.1342 45.2108 60.9185 45.4789 60.66 45.7037C60.4543 45.8872 60.2352 46.0557 60.0044 46.2079C59.8079 46.3395 59.6425 46.4367 59.5267 46.4995C59.4697 46.5372 59.4078 46.5671 59.3426 46.5885C59.3323 46.5744 59.5804 46.4205 59.963 46.1472C60.1849 45.9891 60.3963 45.8173 60.5959 45.6329C60.8417 45.4128 61.0473 45.1533 61.2039 44.8655C61.3364 44.5677 61.3993 44.2446 61.388 43.9199C61.3831 43.6519 61.3582 43.3846 61.3135 43.1202C61.2329 42.6686 61.1646 42.3913 61.1811 42.3872Z" fill="#263238"/>
<path d="M45.577 35.647C45.491 35.5974 45.4106 35.5391 45.3371 35.4729L44.7167 34.9647L44.2865 34.6103C44.213 34.543 44.131 34.4851 44.0425 34.4382C43.9996 34.4167 43.9521 34.4055 43.9039 34.4055C43.8557 34.4055 43.8083 34.4167 43.7654 34.4382C43.5875 34.5293 43.4676 34.7521 43.3166 34.9383C43.1656 35.1246 43.0167 35.3433 42.8595 35.5458C42.6114 35.8738 42.3694 36.1876 42.1481 36.4792L42.0137 36.6533L42.0571 36.4387C42.1757 35.8365 42.348 35.2458 42.5721 34.6731C42.6548 34.4706 42.7292 34.2965 42.7789 34.1851C42.8021 34.1253 42.8334 34.0688 42.8719 34.0171C42.8577 34.0789 42.8377 34.1392 42.812 34.1973C42.7685 34.3127 42.7044 34.4808 42.63 34.6954C42.4277 35.2709 42.2694 35.8604 42.1564 36.4589L42.0633 36.4184L42.7727 35.483L43.2297 34.8756L43.4489 34.5901C43.5185 34.4887 43.6122 34.4053 43.7219 34.3471C43.7794 34.3225 43.8419 34.3109 43.9046 34.3134C43.9673 34.3158 44.0286 34.3322 44.0839 34.3613C44.1778 34.4131 44.2647 34.4764 44.3424 34.5496L44.756 34.9141L45.3599 35.4466C45.4375 35.5077 45.5102 35.5747 45.577 35.647Z" fill="#263238"/>
<path d="M54.3089 33.9361C54.285 33.9627 54.2579 33.9865 54.2283 34.007L53.9842 34.1932L53.0722 34.8634L50.03 37.0562L49.9845 37.0886L49.9535 37.0421C49.9287 37.0056 49.9039 36.9651 49.877 36.9266L48.3507 34.5658L48.4065 34.584C47.8184 34.8127 47.2511 35.0898 46.7107 35.4121C46.5163 35.5275 46.3653 35.6146 46.2619 35.6895C46.2116 35.7266 46.1576 35.7585 46.1006 35.7847C46.1444 35.74 46.193 35.7 46.2454 35.6652C46.3446 35.5944 46.4915 35.4911 46.6838 35.3676C47.2173 35.0276 47.7824 34.7374 48.3714 34.501L48.4065 34.4868L48.4272 34.5172C48.876 35.1995 49.4034 36.0074 49.968 36.87C49.9948 36.9084 50.0197 36.9489 50.0445 36.9854L49.9659 36.9712L53.0288 34.8047L53.9594 34.1588L54.2159 33.9887C54.2758 33.9503 54.3069 33.9321 54.3089 33.9361Z" fill="#263238"/>
<path d="M35.7476 41.9883C35.757 42.0349 35.7612 42.0825 35.76 42.13C35.76 42.2353 35.76 42.371 35.7703 42.535C35.7703 42.9014 35.7889 43.4137 35.7993 44.0414C35.8241 45.3129 35.8758 47.0785 35.944 49.0121C36.0123 50.9457 36.0516 52.7113 36.0557 53.9849C36.0557 54.6227 36.0557 55.137 36.0557 55.4933C36.0557 55.6614 36.0557 55.799 36.0454 55.8983C36.0476 55.9464 36.0441 55.9946 36.035 56.042C36.032 55.9941 36.032 55.9461 36.035 55.8983C36.035 55.795 36.035 55.6573 36.0226 55.4933C36.0226 55.1248 36.0061 54.6125 35.9937 53.9869C35.9709 52.7133 35.9171 50.9498 35.851 49.0141C35.7848 47.0785 35.7434 45.3149 35.7393 44.0414C35.7393 43.4056 35.7393 42.8893 35.7393 42.535C35.7393 42.3649 35.7393 42.2292 35.7393 42.13C35.7389 42.0826 35.7417 42.0353 35.7476 41.9883Z" fill="#263238"/>
<path d="M45.6454 60.2761C45.6385 60.2579 45.6344 60.2388 45.633 60.2194C45.633 60.1749 45.633 60.1182 45.6144 60.0473C45.5979 59.8874 45.5751 59.6667 45.5482 59.3852C45.4903 58.8102 45.4242 57.9679 45.358 56.9454C45.2918 55.9229 45.236 54.6838 45.2008 53.3191C45.1656 51.9544 45.1615 50.45 45.2008 48.8647C45.2401 47.2793 45.3125 45.7871 45.4076 44.4244C45.5027 43.0618 45.6144 41.8348 45.7261 40.8082C45.8378 39.7817 45.9329 38.9495 46.0239 38.3785C46.0653 38.0971 46.0963 37.8784 46.119 37.7205C46.1314 37.6496 46.1397 37.5929 46.148 37.5484C46.149 37.529 46.1532 37.5098 46.1604 37.4917C46.1636 37.5111 46.1636 37.531 46.1604 37.5504C46.1604 37.595 46.1501 37.6517 46.1439 37.7225C46.1252 37.8804 46.1004 38.1011 46.0673 38.3826C45.997 38.9576 45.906 39.7878 45.8047 40.8123C45.7033 41.8368 45.5979 43.0658 45.5089 44.4285C45.42 45.7911 45.3518 47.2915 45.3145 48.8667C45.2773 50.4419 45.2877 51.9423 45.3145 53.307C45.3414 54.6716 45.3931 55.8986 45.451 56.9292C45.5089 57.9598 45.5606 58.796 45.6061 59.3711C45.6248 59.6525 45.6413 59.8752 45.6516 60.0352C45.6516 60.106 45.6516 60.1627 45.662 60.2073C45.6584 60.2306 45.6529 60.2537 45.6454 60.2761Z" fill="#263238"/>
<path d="M39.4825 27.1351L39.2633 27.2769L38.6181 27.6818C38.3327 27.862 37.9976 28.1192 37.6047 28.4026C37.3979 28.5484 37.2076 28.7246 36.9842 28.9027L36.6471 29.1801C36.5313 29.2773 36.4217 29.3826 36.3038 29.494C35.16 30.5386 34.1553 31.7203 33.3133 33.0109L32.9452 33.59C32.8149 33.7824 32.7156 33.995 32.5957 34.1974C32.4757 34.3999 32.3579 34.6186 32.2503 34.8413C32.1428 35.064 32.0435 35.2928 31.9318 35.5236C31.8801 35.6391 31.8222 35.7524 31.7726 35.8719C31.723 35.9914 31.6795 36.1129 31.632 36.2364C31.5389 36.4793 31.4396 36.7243 31.3486 36.9774C31.1956 37.4897 31.0012 38.008 30.8854 38.5608C30.2958 40.9524 30.1974 43.4348 30.5958 45.864C31.1143 48.9921 32.4523 51.9352 34.479 54.4061C36.5058 56.877 39.1523 58.7913 42.1601 59.9622C45.168 61.1332 48.4345 61.5207 51.641 61.0871C54.8474 60.6535 57.8843 59.4134 60.4553 57.488C61.1044 56.9996 61.7219 56.4721 62.3042 55.9088L62.7178 55.4795C62.8584 55.3378 62.9949 55.194 63.1314 55.0422L63.5244 54.5987C63.6485 54.4449 63.7705 54.291 63.8946 54.1391C65.7653 51.7801 67.0133 49.0061 67.5282 46.0624C67.6493 45.379 67.7315 44.6895 67.7743 43.9972C67.795 43.655 67.795 43.3169 67.8074 42.9848C67.8198 42.6528 67.7826 42.3146 67.7702 41.9846C67.7702 41.8206 67.7557 41.6546 67.7495 41.4906C67.7433 41.3266 67.7123 41.1666 67.6958 41.0046C67.6544 40.6827 67.6151 40.3628 67.5758 40.0469C67.5365 39.7311 67.4517 39.4233 67.3897 39.1155C67.3378 38.8104 67.2688 38.5082 67.1829 38.2105L66.9264 37.3338C66.8862 37.19 66.8372 37.0486 66.7796 36.9106C66.7258 36.7709 66.672 36.6312 66.6203 36.4935C66.5107 36.2202 66.4135 35.9407 66.2956 35.6836C66.1778 35.4265 66.0495 35.1653 65.9275 34.9122C65.0281 33.0816 63.8215 31.4117 62.358 29.9718C61.2491 28.8931 60.0117 27.9489 58.6726 27.1594L57.8825 26.716C57.7633 26.6476 57.6404 26.5854 57.5144 26.5297L57.167 26.3678L56.5465 26.0803C56.3604 25.9871 56.1764 25.9345 56.0212 25.8778L55.3015 25.6065L55.0575 25.5093L55.3057 25.5963L56.0275 25.8596C56.1846 25.9203 56.3687 25.9729 56.5569 26.062L57.1773 26.3455L57.5268 26.5075C57.6535 26.5617 57.777 26.6225 57.897 26.6897L58.6891 27.1311C60.037 27.9155 61.2823 28.8579 62.3972 29.9374C63.8696 31.3762 65.0846 33.0469 65.9916 34.8798C66.1137 35.1369 66.2377 35.3941 66.3639 35.6573C66.49 35.9205 66.5707 36.1979 66.6907 36.4672L66.852 36.8843C66.9096 37.023 66.9586 37.165 66.9988 37.3095C67.0857 37.601 67.1725 37.8926 67.2594 38.1902C67.349 38.4891 67.4215 38.7926 67.4765 39.0993C67.5386 39.4071 67.613 39.7068 67.6668 40.0328C67.7206 40.3587 67.7454 40.6726 67.7868 40.9965C67.8054 41.1585 67.8323 41.3205 67.8426 41.4845C67.8529 41.6485 67.8571 41.8145 67.8633 41.9806C67.8757 42.3126 67.8943 42.6467 67.9026 42.9929C67.9108 43.3392 67.8922 43.6712 67.8695 44.0053C67.6582 47.7117 66.3 51.2673 63.9752 54.1999L63.5988 54.6615L63.2017 55.109C63.0735 55.2608 62.935 55.4066 62.7881 55.5483L62.3745 55.9816C61.7886 56.5484 61.1669 57.0785 60.5132 57.569C57.9298 59.5024 54.8787 60.7475 51.6575 61.1829C48.4363 61.6183 45.1548 61.2291 42.1329 60.0533C39.1111 58.8775 36.452 56.9551 34.4148 54.4737C32.3777 51.9923 31.032 49.0365 30.509 45.8944C30.2991 44.6278 30.2298 43.3427 30.3022 42.0615C30.3543 40.8798 30.5282 39.7063 30.8213 38.5587C30.9371 38.004 31.1335 37.4856 31.2866 36.9693C31.3796 36.7182 31.481 36.4712 31.5761 36.2262C31.6237 36.1048 31.6712 35.9833 31.7167 35.8618C31.7622 35.7403 31.8264 35.6289 31.8781 35.5115C31.9877 35.2807 32.0849 35.0539 32.1986 34.8292C32.3124 34.6044 32.4344 34.3959 32.5481 34.1833C32.6619 33.9707 32.7694 33.7601 32.8997 33.5657L33.272 32.9866C34.1183 31.694 35.131 30.5133 36.2852 29.4737C36.4031 29.3664 36.5127 29.2571 36.6285 29.1599L36.9677 28.8825C37.191 28.7063 37.3813 28.5322 37.5881 28.3864C37.9914 28.103 38.3223 27.8499 38.6098 27.6717L39.2612 27.2668C39.4019 27.1777 39.4825 27.1351 39.4825 27.1351Z" fill="#263238"/>
</svg>
