<svg width="229" height="161" viewBox="0 0 229 161" fill="none" xmlns="http://www.w3.org/2000/svg">
<path d="M206.893 136.092L198.971 152.972L198.971 152.972L198.966 152.984C198.123 154.919 197.11 156.33 195.945 157.257C194.788 158.176 193.458 158.636 191.936 158.636C190.838 158.636 189.569 158.453 188.126 158.076L187.5 157.913V158.56V159.328V159.718L187.879 159.813C189.697 160.268 191.307 160.5 192.704 160.5C196.018 160.5 198.671 157.986 200.742 153.393C200.743 153.392 200.743 153.391 200.744 153.389L208.803 136.216L208.805 136.212L227.235 97.8164L227.239 97.8068L227.244 97.797C228.035 95.9507 228.436 94.1239 228.436 92.32C228.436 91.8332 228.368 91.3216 228.236 90.787C228.153 90.177 227.855 89.5387 227.396 88.8797C227.2 88.5539 227.012 88.2794 226.832 88.0639C226.656 87.8526 226.459 87.6626 226.24 87.5528L225.917 87.3916L225.662 87.6464L225.086 88.2225L224.721 88.5876L225.098 88.9408C225.992 89.7785 226.476 91.0356 226.476 92.8C226.476 94.5863 226.107 96.0972 225.39 97.3519L225.381 97.367L225.374 97.3827L211.196 126.758L196.725 87.8258L196.604 87.5H196.256H189.536H188.817L189.067 88.1743L206.893 136.092Z" fill="url(#paint0_linear_28_562)" stroke="black"/>
<path d="M179.492 130.005V130.24C179.492 131.483 180.366 132.824 181.847 134.242C183.598 136.056 186.754 136.884 191.128 136.884H194.104H194.604V136.384V135.616V135.116H194.104H191.173L190.161 134.932L190.138 134.928L190.114 134.926C189.548 134.879 188.897 134.494 188.17 133.59C187.551 132.682 187.212 131.36 187.212 129.568V97.408C187.212 95.2115 186.316 93.1452 184.588 91.2185C183.446 89.9381 181.731 89.0126 179.499 88.4055C177.266 87.7979 174.482 87.5 171.16 87.5C165.195 87.5 159.332 88.8297 153.575 91.4819L153.079 91.7102L153.35 92.1841L153.734 92.8561L153.981 93.2882L154.414 93.0433C155.829 92.2435 158.083 91.4244 161.208 90.5953L161.208 90.5953L161.215 90.5935C164.387 89.7052 167.124 89.268 169.432 89.268C171.761 89.268 173.606 89.5837 174.993 90.1865L175.001 90.1902L175.01 90.1936C176.437 90.7522 177.357 91.4084 177.853 92.1246C178.406 92.9229 178.833 93.748 179.137 94.6002L179.145 94.6212L179.154 94.6415C179.514 95.4222 179.597 96.0058 179.505 96.4298C179.439 96.6957 179.396 96.9402 179.396 97.144C179.396 97.2464 179.406 97.3689 179.45 97.4889C179.461 97.5191 179.475 97.5509 179.492 97.5828V112.8C178.211 112.701 176.809 112.652 175.288 112.652C173.544 112.652 171.643 112.749 169.585 112.941C165.442 113.199 162.01 113.682 159.297 114.397C156.59 115.11 154.552 116.065 153.248 117.301C152.006 118.478 151.192 119.612 150.901 120.703C150.636 121.697 150.5 122.637 150.5 123.52C150.5 124.315 150.566 125.109 150.698 125.902C151.256 129.639 152.718 132.502 155.128 134.423C157.533 136.34 160.817 137.268 164.92 137.268C168.445 137.268 171.518 136.541 174.119 135.067C176.242 133.863 178.032 132.172 179.492 130.005Z" fill="url(#paint1_linear_28_562)" stroke="black"/>
<path d="M107.966 70.2692L107.5 70.3013V70.768V137.2V137.7H108H115.968H116.468V137.2V107.844H130.176C134.382 107.844 138.003 107.23 141.023 105.982L141.023 105.982L141.031 105.979C144.039 104.671 146.3 102.922 147.774 100.712C150.523 96.7179 151.892 92.0739 151.892 86.8C151.892 81.0661 149.851 76.7005 145.728 73.7915C141.638 70.9049 135.564 69.5 127.584 69.5C121.938 69.5 115.398 69.7566 107.966 70.2692ZM139.318 75.5292L139.318 75.5293L139.322 75.5334C141.892 78.1643 143.212 81.9581 143.212 86.992C143.212 93.2174 142.09 97.8501 139.918 100.962C137.767 104.044 134.542 105.695 130.165 105.884H116.468V72.0811C120.385 71.6668 124.123 71.46 127.68 71.46C132.907 71.46 136.755 72.8439 139.318 75.5292Z" fill="url(#paint2_linear_28_562)" stroke="black"/>
<path d="M144.416 27.5663L144.416 27.5663L144.413 27.5689C139.944 32.1034 137.741 38.4523 137.741 46.5439C137.741 54.6265 139.876 60.706 144.241 64.6739C148.573 68.612 154.172 70.5639 160.993 70.5639C167.897 70.5639 173.597 68.3121 178.052 63.7922C182.585 59.2581 184.821 52.9087 184.821 44.8159C184.821 36.7333 182.686 30.6538 178.322 26.6859C173.989 22.747 168.357 20.7959 161.473 20.7959C154.632 20.7959 148.933 23.049 144.416 27.5663ZM149.97 28.8909L149.972 28.8881C153.09 24.6479 156.98 22.5639 161.665 22.5639C166.381 22.5639 170.139 24.3538 172.985 27.9426C175.827 31.5255 177.293 37.1186 177.293 44.8159C177.293 52.4321 175.706 58.3298 172.591 62.5664C169.475 66.7415 165.585 68.7959 160.897 68.7959C156.181 68.7959 152.423 67.006 149.577 63.4172C146.735 59.8337 145.269 54.272 145.269 46.6399C145.269 38.9572 146.858 33.0616 149.97 28.8909Z" fill="url(#paint3_linear_28_562)" stroke="black"/>
<path d="M114.805 33.9624V21.6799V21.1799H114.305H107.585H107.085V21.6799V69.6799V70.1799H107.585H114.305H114.805V69.6799V40.6024C114.93 37.6552 116.131 34.4843 118.461 31.0825L118.461 31.0825L118.464 31.079C120.601 27.9016 122.924 25.7436 125.421 24.5562V25.8079C125.421 27.2077 125.881 28.395 126.815 29.3295C127.75 30.2639 128.937 30.7239 130.337 30.7239C131.733 30.7239 132.918 30.2661 133.852 29.336C134.851 28.4054 135.349 27.2164 135.349 25.8079C135.349 24.4026 134.853 23.2157 133.859 22.2861C132.929 21.292 131.742 20.7959 130.337 20.7959H129.953H129.944L129.935 20.7962C126.121 20.93 122.735 22.7423 119.784 26.1509C117.605 28.6211 115.943 31.225 114.805 33.9624Z" fill="url(#paint4_linear_28_562)" stroke="black"/>
<path d="M96.129 24.4639V24.1071L95.7915 23.9911C89.6 21.8627 83.4971 20.7959 77.485 20.7959C69.3274 20.7959 63.1223 23.097 58.967 27.78C54.828 32.4446 52.793 39.011 52.793 47.4079C52.793 54.8007 54.4383 60.4746 57.8121 64.3445C61.1949 68.2247 66.243 70.2095 72.8647 70.3718L72.8647 70.3719H72.877C76.7941 70.3719 80.2158 69.4897 83.1225 67.7061C85.37 66.3269 87.1385 64.7748 88.409 63.0438V70.8319C88.409 78.1582 87.3071 83.5698 85.1682 87.1347C83.0537 90.6588 79.9076 92.4119 75.661 92.4119C69.2623 92.4119 63.3575 90.1572 57.9339 85.6165L57.6092 85.3446L57.2876 85.6203L56.6156 86.1963L56.1866 86.564L56.6037 86.945C61.8838 91.7688 68.2455 94.1799 75.661 94.1799C82.3818 94.1799 87.5152 92.2448 90.9655 88.2969C94.4042 84.3622 96.0967 78.5115 96.129 70.834V70.8319V24.4639ZM64.7518 29.057L64.7536 29.0543C67.5342 24.7289 71.6569 22.5639 77.197 22.5639C80.2346 22.5639 83.9671 23.4566 88.409 25.2782V58.81C88.2271 60.8285 86.7374 62.9796 83.713 65.2479C80.7376 67.4795 77.166 68.6039 72.973 68.6039C68.8234 68.6039 65.7492 66.8837 63.6822 63.4235C61.5909 59.9224 60.513 54.6065 60.513 47.4079C60.513 39.4581 61.9455 33.3599 64.7518 29.057Z" fill="url(#paint5_linear_28_562)" stroke="black"/>
<path d="M3.152 70.18H3.48072L3.61103 69.8782L12.6007 49.06H39.9508L47.3207 69.8471L47.4388 70.18H47.792H55.952H56.6617L56.4228 69.5117L32.2308 1.8317L32.0479 1.31991L31.5531 1.54482L30.4971 2.02482L30.3204 2.10512L30.2442 2.28359L1.54019 69.4836L1.24273 70.18H2H3.152Z" fill="url(#paint6_linear_28_562)" stroke="black"/>
<defs>
<linearGradient id="paint0_linear_28_562" x1="207.968" y1="88" x2="207.968" y2="160" gradientUnits="userSpaceOnUse">
<stop stop-color="white"/>
<stop offset="1" stop-color="white" stop-opacity="0"/>
</linearGradient>
<linearGradient id="paint1_linear_28_562" x1="172.552" y1="88" x2="172.552" y2="136.768" gradientUnits="userSpaceOnUse">
<stop stop-color="white"/>
<stop offset="1" stop-color="white" stop-opacity="0"/>
</linearGradient>
<linearGradient id="paint2_linear_28_562" x1="129.696" y1="70" x2="129.696" y2="137.2" gradientUnits="userSpaceOnUse">
<stop stop-color="white"/>
<stop offset="1" stop-color="white" stop-opacity="0"/>
</linearGradient>
<linearGradient id="paint3_linear_28_562" x1="161.281" y1="21.2959" x2="161.281" y2="70.0639" gradientUnits="userSpaceOnUse">
<stop stop-color="white"/>
<stop offset="1" stop-color="white" stop-opacity="0"/>
</linearGradient>
<linearGradient id="paint4_linear_28_562" x1="121.217" y1="21.2959" x2="121.217" y2="69.6799" gradientUnits="userSpaceOnUse">
<stop stop-color="white"/>
<stop offset="1" stop-color="white" stop-opacity="0"/>
</linearGradient>
<linearGradient id="paint5_linear_28_562" x1="74.461" y1="21.2959" x2="74.461" y2="93.6799" gradientUnits="userSpaceOnUse">
<stop stop-color="white"/>
<stop offset="1" stop-color="white" stop-opacity="0"/>
</linearGradient>
<linearGradient id="paint6_linear_28_562" x1="28.976" y1="2" x2="28.976" y2="69.68" gradientUnits="userSpaceOnUse">
<stop stop-color="white"/>
<stop offset="1" stop-color="white" stop-opacity="0"/>
</linearGradient>
</defs>
</svg>
