<svg width="31" height="24" viewBox="0 0 31 24" fill="none" xmlns="http://www.w3.org/2000/svg">
<path d="M16.9119 1.73194L16.4463 1.76405V2.23075V22.2162V22.7162H16.9463H19.3434H19.8434V22.2162V13.7343H23.6177C24.9157 13.7343 26.0527 13.5449 27.0144 13.1477L27.0144 13.1478L27.0229 13.1441C27.9721 12.7314 28.7119 12.168 29.2013 11.4355C30.0714 10.1704 30.5004 8.70343 30.5004 7.05383C30.5004 6.63667 30.4955 6.31911 30.4742 6.10015C30.464 5.9949 30.447 5.87502 30.4087 5.76779C30.379 5.68451 30.2732 5.43183 29.977 5.36891C29.7141 5.31305 29.52 5.46174 29.4694 5.50117C29.392 5.56138 29.3218 5.63719 29.267 5.69925C29.2132 5.7602 29.1536 5.83222 29.0934 5.90486L29.0785 5.92289C29.0112 6.00409 28.9388 6.09119 28.858 6.18398C28.6793 6.38916 28.4592 6.62307 28.1862 6.85312C28.1427 5.34552 27.7126 4.10994 26.8366 3.21195C25.9033 2.23552 24.5489 1.78852 22.8668 1.78852C21.7301 1.78852 20.5374 1.85711 19.289 1.99365L18.8434 2.04239V2.49068V2.82644C18.3565 2.23347 17.7352 1.67516 16.9119 1.73194ZM19.8434 12.4455V5.99549C20.9414 7.48175 22.4538 8.9979 24.8885 8.99788C25.7519 8.99788 26.4834 8.85131 27.1021 8.62486C26.9667 9.69586 26.6784 10.5174 26.2619 11.1142C25.6879 11.9366 24.8288 12.3912 23.6069 12.4455H19.8434Z" fill="white" stroke="url(#paint0_linear_35_915)"/>
<path d="M1.54019 22.1645L1.24273 22.8609H2H2.34657H9.74003H10.0242L10.1696 22.6167L13.4081 17.1781L15.3048 22.528L15.4229 22.8609H15.7761H18.231H18.9407L18.7018 22.1926L11.4238 1.8317L11.2409 1.31991L10.7461 1.54482L10.4284 1.68922L10.2518 1.76953L10.1755 1.948L1.54019 22.1645Z" fill="white" stroke="url(#paint1_linear_35_915)"/>
<defs>
<linearGradient id="paint0_linear_35_915" x1="23.4733" y1="1.99975" x2="23.4733" y2="22.2163" gradientUnits="userSpaceOnUse">
<stop stop-color="#376C3C"/>
<stop offset="1" stop-color="#051A2D" stop-opacity="0"/>
</linearGradient>
<linearGradient id="paint1_linear_35_915" x1="11.3429" y1="2" x2="11.3429" y2="22.3609" gradientUnits="userSpaceOnUse">
<stop stop-color="#376C3C"/>
<stop offset="1" stop-color="#051A2D" stop-opacity="0"/>
</linearGradient>
</defs>
</svg>
