<svg width="389" height="385" viewBox="0 0 389 385" fill="none" xmlns="http://www.w3.org/2000/svg">
<g opacity="0.3">
<path d="M74.5307 246.608C73.9967 243.483 69.8681 237.611 69.8681 237.604C69.8681 237.596 66.68 241.415 66.5286 241.685C64.5759 244.771 62.687 251.824 65.4128 254.894C65.8819 255.392 66.4544 255.788 67.0927 256.057C67.731 256.326 68.4208 256.461 69.1168 256.454C69.8129 256.447 70.4995 256.297 71.1316 256.015C71.7638 255.733 72.3273 255.325 72.7852 254.817C74.8017 252.78 74.985 249.27 74.5307 246.608Z" fill="black"/>
<path d="M90.9734 233.352C89.6663 230.59 84.5096 226.269 84.0951 225.93C86.6389 223.079 88.9847 220.069 91.1168 216.918C92.3761 215.089 93.5796 213.206 94.7672 211.308C94.3607 212.25 93.9702 213.098 93.9702 213.222C92.934 216.694 93.0377 224.024 96.5047 226.254C97.0909 226.614 97.749 226.851 98.4361 226.949C99.1232 227.047 99.8239 227.003 100.492 226.821C101.161 226.639 101.782 226.323 102.316 225.893C102.85 225.462 103.284 224.928 103.59 224.325C104.985 221.809 104.204 218.376 103.04 215.922C101.877 213.469 97.5408 209.673 96.3772 208.693C96.8315 207.921 97.2858 207.227 97.7321 206.494C99.8601 202.968 101.972 199.434 104.156 196.039C104.953 194.835 105.75 193.686 106.547 192.528C106.18 193.369 105.886 194.072 105.854 194.195C104.81 197.659 104.913 204.958 108.38 207.219C108.966 207.579 109.624 207.815 110.31 207.913C110.997 208.01 111.697 207.967 112.365 207.786C113.033 207.605 113.654 207.29 114.189 206.861C114.723 206.432 115.158 205.9 115.466 205.298C116.861 202.775 116.079 199.341 114.916 196.888C113.752 194.434 109.831 191.008 108.46 189.836C109.321 188.678 110.174 187.521 111.058 186.425C111.672 185.654 112.222 184.952 112.883 184.249L114.796 182.158C116.056 180.87 117.355 179.527 118.622 178.301C119.491 177.444 120.344 176.642 121.196 175.824C120.399 177.012 118.941 179.365 118.805 179.574C117.211 182.853 116.199 190.075 119.268 192.822C119.791 193.263 120.404 193.594 121.068 193.791C121.732 193.988 122.432 194.048 123.121 193.967C123.81 193.885 124.474 193.664 125.069 193.318C125.665 192.972 126.178 192.508 126.576 191.957C128.346 189.643 128.114 186.163 127.373 183.57C126.528 180.716 122.304 175.855 121.794 175.268C123.205 173.934 124.6 172.637 125.931 171.411C126.919 170.523 127.867 169.682 128.792 168.88L127.373 166.766C126.361 167.684 125.317 168.648 124.225 169.674C122.782 171.032 121.268 172.506 119.722 174.034C118.001 172.858 116.21 171.781 114.358 170.809C115.155 167.854 114.43 161.974 114.358 161.218C116.303 160.855 118.192 160.524 119.985 160.238L122.735 159.814L121.236 157.576L119.554 157.877C117.578 158.232 115.474 158.649 113.322 159.112C113.027 158.386 110.62 152.476 108.42 150.393C106.428 148.51 103.343 146.651 100.45 147.075C99.7607 147.154 99.0962 147.372 98.4997 147.715C97.9031 148.058 97.3878 148.519 96.9872 149.068C96.5866 149.617 96.3097 150.241 96.1744 150.9C96.0391 151.559 96.0484 152.238 96.2018 152.893C97.2459 156.812 104.307 159.351 108.038 159.567C108.253 159.567 110.652 159.459 112.166 159.366C111.289 159.552 110.429 159.729 109.528 159.93C107.735 160.323 105.965 160.771 104.052 161.241L101.287 162.013C100.354 162.26 99.4058 162.63 98.4494 162.939C96.2576 163.71 94.0817 164.559 91.8979 165.477C91.5393 163.934 90.1764 158.595 88.4946 156.434C86.8129 154.274 84.0632 151.982 81.1063 151.982C80.4124 151.959 79.7213 152.077 79.0777 152.329C78.4341 152.581 77.8525 152.962 77.3707 153.446C76.8889 153.93 76.5176 154.506 76.281 155.138C76.0444 155.77 75.9478 156.443 75.9974 157.113C76.4198 161.133 83.0032 164.682 86.6535 165.439C86.8767 165.485 89.5627 165.747 91.0371 165.863C89.73 166.426 88.4229 166.982 87.1238 167.599C83.3698 169.366 79.6238 171.264 75.8778 173.147L72.4347 174.844C72.3152 174.304 70.8407 167.9 68.9518 165.469C67.27 163.317 64.5203 161.025 61.5634 161.017C60.8699 160.994 60.179 161.112 59.5358 161.364C58.8926 161.617 58.3115 161.997 57.8303 162.481C57.3491 162.965 56.9786 163.542 56.7429 164.174C56.5072 164.806 56.4117 165.478 56.4625 166.148C56.8769 170.168 63.4603 173.718 67.1106 174.474C67.3816 174.535 71.2392 174.906 72.2275 174.952C69.693 176.194 67.1664 177.413 64.616 178.517C61.1828 180.022 57.6526 181.311 54.0475 182.375C53.9917 182.12 52.4535 175.43 50.5486 172.938C48.8749 170.786 46.1172 168.486 43.1682 168.486C42.4744 168.461 41.7828 168.577 41.1387 168.828C40.4945 169.079 39.9123 169.458 39.4301 169.942C38.9478 170.425 38.5765 171.002 38.3403 171.634C38.1041 172.266 38.0083 172.939 38.0593 173.61C38.4738 177.637 45.0571 181.186 48.7075 181.942C48.9944 182.004 53.1469 182.398 53.904 182.421C53.6888 182.475 53.4816 182.56 53.2744 182.621C49.623 183.595 45.8885 184.248 42.1161 184.574C40.0439 184.782 38.0434 184.867 36.0986 184.913C35.9472 183.64 35.198 177.815 33.7076 175.392C32.2172 172.969 29.8102 170.5 26.8771 170.184C26.1904 170.086 25.4901 170.129 24.8217 170.31C24.1533 170.492 23.532 170.808 22.9981 171.237C22.4642 171.667 22.0298 172.2 21.7231 172.803C21.4165 173.406 21.2445 174.064 21.2183 174.736C21.1705 178.779 27.3155 183.007 30.8543 184.149C31.0455 184.211 33.0779 184.635 34.5604 184.921C33.6837 184.921 32.7751 184.921 31.9302 184.921C28.7422 184.921 25.8809 184.674 23.3224 184.458C21.8719 184.327 20.5568 184.18 19.3373 184.033C18.5403 182.853 15.145 178.146 12.7221 176.688C10.2992 175.23 6.93574 174.088 4.17805 175.145C3.52189 175.364 2.92087 175.715 2.41416 176.175C1.90745 176.634 1.50643 177.192 1.23722 177.811C0.968017 178.431 0.836674 179.098 0.851752 179.77C0.866829 180.442 1.02799 181.103 1.32473 181.711C3.20569 185.314 10.6738 186.34 14.356 185.762C14.6748 185.708 19.5685 184.396 19.5286 184.334L19.4808 184.265C20.6524 184.435 21.9197 184.597 23.3065 184.751C25.8649 185.021 28.7581 185.299 31.9302 185.399C35.3443 185.541 38.7641 185.49 42.1719 185.245C45.9936 184.994 49.7842 184.411 53.4976 183.501L53.6331 183.462C52.589 184.095 49.7516 185.939 49.5443 186.109C46.707 188.424 42.6342 194.596 44.2282 198.323C44.5127 198.936 44.9273 199.485 45.4449 199.934C45.9626 200.382 46.5718 200.72 47.2331 200.926C47.8944 201.132 48.593 201.201 49.2836 201.129C49.9742 201.056 50.6414 200.844 51.242 200.506C53.8323 199.148 55.1394 195.877 55.5698 193.2C56.048 190.191 54.2069 183.841 54.0555 183.339C57.8113 182.326 61.4937 181.074 65.0782 179.589C67.1664 178.733 69.2467 177.807 71.3269 176.858C70.4422 177.429 69.6611 177.946 69.5575 178.031C66.7201 180.345 62.6473 186.518 64.2414 190.245C64.5219 190.854 64.9309 191.399 65.4421 191.847C65.9534 192.294 66.5555 192.633 67.21 192.841C67.8645 193.05 68.5568 193.123 69.2424 193.058C69.9281 192.992 70.5919 192.788 71.1914 192.459C73.7897 191.109 75.0968 187.83 75.5272 185.16C75.9576 182.49 74.499 177.004 74.0925 175.569C74.8895 175.199 75.6866 174.836 76.4836 174.458C80.2774 172.653 84.0473 170.84 87.8092 169.165C89.1323 168.579 90.4633 168.046 91.7943 167.506C90.9973 168.016 90.3597 168.448 90.264 168.525C87.4266 170.84 83.3539 177.012 84.9479 180.739C85.2315 181.353 85.6454 181.903 86.163 182.352C86.6805 182.801 87.2899 183.14 87.9515 183.346C88.6132 183.551 89.3122 183.62 90.0032 183.547C90.6941 183.474 91.3614 183.261 91.9617 182.922C94.552 181.564 95.8591 178.293 96.2895 175.616C96.7199 172.938 95.4048 168 94.9266 166.287C96.3054 165.778 97.6763 165.261 99.0312 164.829C99.9637 164.551 100.84 164.22 101.797 163.988L104.586 163.263C106.372 162.862 108.213 162.437 109.966 162.09C111.186 161.843 112.357 161.627 113.529 161.403C112.206 161.974 109.632 163.147 109.432 163.27C106.702 165.035 104.487 167.451 103 170.284C102.687 170.47 102.391 170.681 102.116 170.917C101.586 171.351 101.156 171.888 100.855 172.493C100.553 173.098 100.386 173.758 100.365 174.429C100.344 175.101 100.469 175.769 100.732 176.391C100.996 177.013 101.391 177.574 101.893 178.038C104.993 180.747 112.333 179.088 115.561 177.267C115.753 177.159 117.681 175.778 118.893 174.89C118.263 175.515 117.65 176.117 117.012 176.773C115.745 178.061 114.517 179.381 113.194 180.793L111.329 182.93C110.692 183.624 110.118 184.473 109.496 185.245C108.101 187.043 106.77 188.933 105.511 190.869C104.347 189.797 100.155 186.047 97.5408 185.144C94.9266 184.242 91.3081 183.802 88.8453 185.368C88.2525 185.718 87.7426 186.185 87.3488 186.739C86.955 187.293 86.6861 187.921 86.5598 188.582C86.4335 189.243 86.4524 189.922 86.6155 190.576C86.7786 191.229 87.0822 191.842 87.5063 192.374C90.1445 195.514 97.6604 194.951 101.135 193.639C101.351 193.555 103.734 192.343 105.033 191.649C104.236 192.814 103.495 193.963 102.761 195.183C100.633 198.662 98.5929 202.242 96.5445 205.815C95.9149 206.91 95.2773 207.991 94.6397 209.071C94.2332 208.685 89.3475 204.125 86.3905 203.114C83.7604 202.212 80.1578 201.772 77.695 203.346C77.1022 203.696 76.5923 204.163 76.1985 204.717C75.8047 205.27 75.5358 205.898 75.4095 206.559C75.2832 207.22 75.3022 207.9 75.4653 208.553C75.6283 209.207 75.9319 209.819 76.3561 210.352C78.9942 213.484 86.5101 212.921 89.9851 211.609C90.2481 211.509 93.6753 209.758 94.5201 209.295C93.1253 211.686 91.7066 214.055 90.2082 216.339C88.2045 219.428 85.9948 222.387 83.593 225.197C83.4017 225.019 78.3247 220.235 75.304 219.202C72.6738 218.299 69.0713 217.859 66.6085 219.425C66.0157 219.775 65.5058 220.242 65.112 220.796C64.7182 221.35 64.4493 221.978 64.323 222.639C64.1966 223.3 64.2156 223.979 64.3787 224.633C64.5418 225.286 64.8454 225.899 65.2695 226.431C67.9077 229.571 75.4235 229.008 78.8985 227.696C79.1695 227.588 82.8836 225.706 83.4973 225.312C83.3618 225.482 83.2343 225.66 83.0909 225.822C80.603 228.577 77.8664 231.113 74.9135 233.398C73.3194 234.687 71.7254 235.821 70.0835 236.894C69.2307 235.914 65.3014 231.493 62.6712 230.227C60.0411 228.962 56.6298 228.229 54.0077 229.533C53.381 229.813 52.8218 230.216 52.3661 230.718C51.9103 231.22 51.5682 231.808 51.3617 232.446C51.1553 233.083 51.089 233.755 51.1672 234.419C51.2454 235.083 51.4664 235.723 51.8159 236.299C54.0874 239.694 61.6192 239.934 65.2217 239C65.421 238.954 67.3497 238.228 68.7525 237.665C68.0192 238.144 67.278 238.645 66.5687 239.085C63.9146 240.744 61.3801 242.109 59.1245 243.298C57.8333 243.961 56.6538 244.54 55.5459 245.072C54.191 244.524 48.6995 242.403 45.8462 242.48C42.9929 242.557 39.5338 243.398 37.8202 245.728C37.3985 246.262 37.0975 246.875 36.937 247.529C36.7765 248.182 36.7599 248.861 36.8885 249.522C37.0171 250.182 37.2879 250.808 37.6832 251.36C38.0786 251.913 38.5896 252.378 39.1831 252.726C42.8095 254.732 49.6081 251.584 52.3658 249.146C52.6049 248.938 55.9285 245.227 55.8647 245.196H55.777C56.853 244.71 58.0087 244.169 59.252 243.56C61.5395 242.418 64.1138 241.106 66.8078 239.494C69.7407 237.79 72.5671 235.919 75.2721 233.892C78.3145 231.642 81.1419 229.132 83.7205 226.393L83.8082 226.292C83.2981 227.365 81.983 230.428 81.9113 230.675C80.8751 234.147 80.9788 241.438 84.4378 243.699C85.0239 244.058 85.6814 244.295 86.3679 244.392C87.0544 244.49 87.7544 244.447 88.4225 244.266C89.0907 244.085 89.712 243.769 90.2462 243.341C90.7804 242.912 91.2155 242.38 91.5233 241.778C92.9181 239.239 92.137 235.806 90.9734 233.352Z" fill="black"/>
<path d="M35.4933 185.515C35.4933 185.438 30.7112 186.996 30.3924 187.135C27.0131 188.678 21.41 193.539 21.9281 197.559C22.0392 198.22 22.2924 198.852 22.6713 199.412C23.0502 199.973 23.5463 200.451 24.1276 200.814C24.7089 201.178 25.3626 201.419 26.0463 201.523C26.73 201.627 27.4286 201.591 28.097 201.417C30.9663 200.777 33.1262 197.945 34.2659 195.484C35.5969 192.621 35.4933 185.523 35.4933 185.515Z" fill="black"/>
</g>
<g opacity="0.3">
<path d="M245.571 22.3745C247.587 24.8666 254.123 28.0995 254.131 28.0995C254.139 28.0995 255.023 23.2849 255.031 22.9763C255.215 19.3654 253.374 12.2901 249.452 10.8627C248.796 10.6432 248.099 10.5598 247.407 10.6182C246.715 10.6765 246.044 10.8751 245.436 11.2011C244.829 11.5271 244.299 11.9733 243.882 12.5105C243.464 13.0477 243.168 13.664 243.012 14.3193C242.271 17.0815 243.857 20.2604 245.571 22.3745Z" fill="black"/>
<path d="M237.72 41.6405C240.238 43.4536 246.901 44.8425 247.435 44.9582C246.607 48.6431 246.04 52.3785 245.738 56.1382C245.539 58.3295 245.411 60.5362 245.315 62.7583C245.204 61.7398 245.092 60.8294 245.068 60.7059C244.271 57.1721 240.549 50.8221 236.389 50.4518C235.696 50.4078 235.002 50.5055 234.352 50.7385C233.701 50.9715 233.108 51.3345 232.612 51.804C232.115 52.2735 231.727 52.8388 231.471 53.4633C231.216 54.0877 231.099 54.7573 231.128 55.4284C231.128 58.2832 233.519 60.9374 235.775 62.5423C238.031 64.1471 243.697 65.4742 245.204 65.7983C245.204 66.647 245.132 67.4957 245.108 68.3522C244.989 72.4415 244.877 76.5154 244.654 80.5121C244.574 81.9241 244.439 83.3052 244.311 84.694C244.215 83.7913 244.12 83.0274 244.096 82.9117C243.299 79.3856 239.585 73.0356 235.416 72.6575C234.724 72.6136 234.03 72.7113 233.379 72.9443C232.728 73.1772 232.136 73.5403 231.639 74.0097C231.143 74.4792 230.755 75.0446 230.499 75.669C230.243 76.2935 230.127 76.9631 230.156 77.6341C230.156 80.4889 232.547 83.1431 234.803 84.7557C237.058 86.3683 242.183 87.5565 243.96 87.9423C243.785 89.362 243.618 90.7817 243.379 92.1396C243.195 93.0732 243.092 93.976 242.853 94.8941C242.613 95.8123 242.422 96.7228 242.215 97.6255C241.745 99.3384 241.274 101.121 240.772 102.78C240.43 103.945 240.079 105.04 239.736 106.151C239.832 104.747 239.959 102 239.943 101.769C239.696 98.1656 237.026 91.3449 232.978 90.365C232.299 90.2189 231.597 90.213 230.916 90.3475C230.235 90.482 229.591 90.754 229.027 91.1457C228.462 91.5375 227.989 92.0401 227.638 92.6208C227.287 93.2016 227.067 93.8474 226.992 94.5161C226.57 97.34 228.514 100.311 230.475 102.232C232.635 104.346 238.74 106.63 239.505 106.907C238.923 108.744 238.341 110.518 237.768 112.193C237.343 113.427 236.925 114.61 236.516 115.742L238.812 116.938C239.242 115.665 239.68 114.33 240.127 112.918C240.725 111.059 241.322 109.06 241.912 107.008C244.005 107.237 246.11 107.348 248.217 107.34C249.014 110.295 252.536 115.125 252.999 115.742C251.468 116.969 249.978 118.134 248.543 119.222C247.786 119.8 247.061 120.333 246.344 120.873L248.735 122.131L250.066 121.089C251.62 119.862 253.254 118.512 254.919 117.115C255.533 117.617 260.578 121.683 263.535 122.516C266.221 123.242 269.848 123.442 272.199 121.745C272.765 121.355 273.24 120.855 273.593 120.276C273.946 119.696 274.17 119.052 274.249 118.384C274.328 117.716 274.26 117.039 274.051 116.398C273.842 115.757 273.496 115.165 273.036 114.662C270.182 111.707 262.722 112.764 259.351 114.307C259.152 114.399 257.103 115.618 255.828 116.405C256.506 115.835 257.167 115.279 257.86 114.677C259.239 113.504 260.57 112.285 262.013 110.989C262.682 110.333 263.368 109.677 264.053 109.014C264.739 108.35 265.4 107.594 266.086 106.884C267.632 105.202 269.114 103.428 270.565 101.615C271.633 102.772 275.49 106.846 278.041 107.965C280.591 109.083 284.138 109.809 286.728 108.443C287.349 108.141 287.896 107.716 288.336 107.196C288.775 106.676 289.096 106.072 289.279 105.423C289.462 104.775 289.502 104.097 289.396 103.433C289.29 102.768 289.041 102.133 288.665 101.568C286.274 98.2273 278.774 98.181 275.196 99.2072C274.972 99.2689 272.486 100.287 271.139 100.874C272 99.7705 272.868 98.6748 273.713 97.5329C276.104 94.2383 278.495 90.8357 280.823 87.4485L282.998 84.3622C283.381 84.7866 287.852 89.7632 290.706 90.9746C293.248 92.0856 296.803 92.8186 299.393 91.4452C300.014 91.1449 300.562 90.7212 301.002 90.2018C301.442 89.6824 301.764 89.0789 301.947 88.4309C302.13 87.7828 302.169 87.1047 302.063 86.4408C301.957 85.7769 301.707 85.1423 301.33 84.5783C298.939 81.2374 291.439 81.1911 287.86 82.2173C287.589 82.2944 284.019 83.7604 283.134 84.177C284.728 81.9086 286.322 79.6634 288.044 77.5107C290.307 74.5945 292.765 71.8238 295.4 69.2163C295.575 69.4092 300.222 74.6173 303.147 75.8672C305.69 76.9783 309.244 77.7113 311.835 76.3456C312.455 76.0436 313.002 75.6187 313.442 75.0985C313.881 74.5783 314.203 73.9744 314.385 73.326C314.568 72.6777 314.608 71.9994 314.502 71.3353C314.396 70.6711 314.147 70.0359 313.771 69.4709C311.38 66.13 303.872 66.0838 300.302 67.1099C300.015 67.1871 296.181 68.7688 295.52 69.1083C295.671 68.954 295.814 68.7842 295.974 68.6376C298.68 66.095 301.614 63.7893 304.741 61.7475C306.463 60.5979 308.176 59.5949 309.858 58.6613C310.655 59.7106 314.162 64.4712 316.664 65.9063C319.167 67.3414 322.515 68.383 325.24 67.3028C325.892 67.0709 326.486 66.7085 326.983 66.2392C327.48 65.77 327.869 65.2044 328.125 64.5795C328.381 63.9547 328.497 63.2846 328.467 62.6131C328.437 61.9416 328.261 61.2838 327.95 60.6828C325.982 57.1104 318.498 56.2617 314.831 56.9021C314.632 56.9021 312.64 57.5039 311.197 57.9437C311.994 57.5271 312.751 57.0873 313.492 56.7092C316.282 55.2664 318.928 54.1167 321.279 53.1137C322.618 52.5504 323.838 52.0721 324.993 51.64C326.292 52.2881 331.585 54.8497 334.438 55.004C337.291 55.1583 340.814 54.5951 342.711 52.4193C343.179 51.9226 343.533 51.336 343.75 50.6978C343.968 50.0595 344.043 49.3841 343.973 48.7156C343.902 48.0471 343.686 47.4005 343.34 46.8182C342.993 46.2359 342.524 45.7309 341.962 45.3363C338.519 43.0216 331.473 45.6217 328.516 47.8284C328.261 48.0213 324.627 51.4471 324.69 51.4857H324.77C323.654 51.8869 322.459 52.3267 321.168 52.8359C318.777 53.7849 316.115 54.8883 313.285 56.2771C310.222 57.7287 307.252 59.3571 304.39 61.1534C301.165 63.1515 298.129 65.4238 295.32 67.9432L295.225 68.0358C295.822 67.0019 297.401 64.0622 297.496 63.8231C298.835 60.4513 299.361 53.1677 296.109 50.6369C295.557 50.2297 294.922 49.9398 294.245 49.7861C293.569 49.6324 292.867 49.6185 292.185 49.7452C291.503 49.8718 290.856 50.1363 290.287 50.5213C289.717 50.9063 289.238 51.4031 288.88 51.9795C287.286 54.3713 287.749 57.8588 288.697 60.3973C289.765 63.2598 294.531 67.9741 294.914 68.3522C292.121 70.9828 289.512 73.7897 287.103 76.7546C285.692 78.4829 284.329 80.2575 282.982 82.0552C283.469 81.1448 283.899 80.3269 283.947 80.2035C285.278 76.8317 285.812 69.5558 282.552 67.0251C282 66.6179 281.366 66.3281 280.69 66.1745C280.014 66.0209 279.313 66.007 278.632 66.1337C277.95 66.2604 277.304 66.5249 276.735 66.9098C276.166 67.2947 275.688 67.7915 275.331 68.3676C273.737 70.7595 274.199 74.247 275.148 76.7854C276.096 79.3239 280.089 83.4595 281.157 84.5011C280.647 85.1955 280.129 85.8822 279.627 86.5766C277.188 89.9175 274.781 93.2661 272.31 96.4759C271.442 97.6101 270.541 98.698 269.648 99.7859C270.079 99.0143 270.445 98.289 270.485 98.181C271.816 94.8093 272.342 87.5334 269.09 84.9949C268.538 84.5876 267.903 84.2977 267.227 84.1441C266.55 83.9904 265.848 83.9764 265.166 84.1031C264.484 84.2298 263.837 84.4943 263.268 84.8792C262.698 85.2642 262.219 85.7611 261.861 86.3374C260.267 88.7293 260.738 92.2168 261.686 94.7553C262.635 97.2937 266.237 101.028 267.504 102.309C266.548 103.397 265.599 104.485 264.627 105.503C263.942 106.174 263.336 106.869 262.611 107.517L260.53 109.446C259.16 110.634 257.749 111.861 256.386 112.98C255.437 113.751 254.521 114.523 253.604 115.24C254.481 114.122 256.155 111.9 256.274 111.699C257.789 108.879 258.535 105.732 258.442 102.556C258.624 102.249 258.776 101.926 258.897 101.591C259.147 100.965 259.259 100.294 259.224 99.6231C259.189 98.9521 259.009 98.2956 258.695 97.6966C258.38 97.0975 257.939 96.5692 257.4 96.1462C256.861 95.7232 256.236 95.4148 255.565 95.2413C251.5 94.3 245.881 99.1609 243.952 102.247C243.833 102.432 242.821 104.562 242.207 105.881C242.446 105.04 242.685 104.222 242.916 103.358C243.395 101.638 243.817 99.9171 244.279 98.0576C244.471 97.1548 244.662 96.2444 244.853 95.3185C245.044 94.3926 245.172 93.4204 245.331 92.4637C245.666 90.2339 245.897 87.9654 246.073 85.6662C247.627 86.0674 253.158 87.4099 255.924 86.9778C258.689 86.5458 262.061 85.2572 263.44 82.7342C263.785 82.1516 263.999 81.5053 264.07 80.8372C264.14 80.1691 264.065 79.4942 263.848 78.8561C263.632 78.2181 263.279 77.6312 262.813 77.1336C262.347 76.636 261.779 76.2387 261.144 75.9675C257.271 74.4244 250.958 78.4289 248.559 81.1911C248.408 81.3685 246.917 83.5058 246.12 84.748C246.216 83.3669 246.32 81.9935 246.367 80.5892C246.511 76.5539 246.519 72.4569 246.551 68.3753C246.551 67.1254 246.551 65.8831 246.607 64.6332C247.156 64.7798 253.7 66.5081 256.8 66.0297C259.55 65.5977 262.929 64.3091 264.308 61.7861C264.655 61.2038 264.87 60.5574 264.941 59.889C265.012 59.2206 264.937 58.5452 264.721 57.9068C264.504 57.2685 264.151 56.6814 263.684 56.1839C263.218 55.6864 262.648 55.2897 262.013 55.0195C258.139 53.4763 251.827 57.4808 249.428 60.243C249.253 60.4513 247.109 63.5839 246.607 64.4017C246.654 61.6549 246.718 58.9236 246.901 56.2231C247.129 52.5813 247.601 48.9577 248.312 45.3748C248.567 45.4443 255.39 47.2806 258.562 46.7868C261.312 46.3547 264.699 45.0662 266.078 42.5432C266.424 41.9609 266.64 41.3145 266.711 40.6461C266.782 39.9777 266.707 39.3023 266.49 38.6639C266.273 38.0255 265.92 37.4385 265.454 36.941C264.987 36.4435 264.418 36.0467 263.782 35.7765C259.909 34.2334 253.596 38.2378 251.197 41.0001C251.006 41.2238 248.711 44.5878 248.336 45.2282C248.376 45.0199 248.4 44.8039 248.448 44.5956C249.263 41.0222 250.404 37.5261 251.859 34.1485C252.656 32.2736 253.493 30.5221 254.369 28.8401C255.605 29.3031 261.272 31.3863 264.173 31.2397C267.074 31.0931 270.461 30.1904 272.143 27.8294C272.548 27.2877 272.83 26.67 272.974 26.0162C273.117 25.3623 273.117 24.6866 272.975 24.0326C272.832 23.3786 272.55 22.7607 272.146 22.2187C271.742 21.6767 271.225 21.2224 270.629 20.8853C266.954 18.964 260.228 22.2509 257.534 24.7431C257.382 24.882 256.051 26.4174 255.095 27.5516C255.501 26.78 255.892 26.0085 256.306 25.2986C257.813 22.6058 259.359 20.2371 260.754 18.1462C261.551 16.958 262.3 15.9086 263.009 14.9287C264.468 14.7744 270.342 14.0877 272.805 12.6912C275.267 11.2946 277.89 8.94908 278.232 6.11742C278.338 5.453 278.298 4.77444 278.116 4.12586C277.933 3.47729 277.611 2.87321 277.171 2.35289C276.732 1.83257 276.184 1.40766 275.563 1.10579C274.943 0.803909 274.263 0.631819 273.57 0.600703C269.393 0.531262 264.986 6.4492 263.782 9.85953C263.679 10.1604 262.595 14.9596 262.674 14.9519H262.762C262.053 15.8778 261.312 16.8808 260.522 18.0382C259.088 20.0982 257.478 22.4515 255.908 25.1134C254.182 27.9733 252.631 30.9283 251.261 33.9633C249.71 37.3509 248.472 40.865 247.563 44.4644V44.5956C247.475 43.4151 247.109 40.1205 247.053 39.8658C246.256 36.3398 242.542 29.9898 238.381 29.6117C237.688 29.5678 236.993 29.6657 236.341 29.899C235.689 30.1324 235.096 30.496 234.599 30.9662C234.102 31.4364 233.713 32.0026 233.457 32.628C233.201 33.2534 233.084 33.9239 233.113 34.596C233.089 37.3814 235.48 40.0279 237.72 41.6405Z" fill="black"/>
<path d="M310.105 57.8356C310.145 57.8974 313.588 54.2941 313.78 54.0472C315.987 51.1307 318.482 44.2483 316.035 40.9306C315.613 40.3978 315.079 39.957 314.469 39.637C313.86 39.317 313.187 39.1249 312.495 39.0733C311.803 39.0216 311.108 39.1115 310.455 39.3371C309.801 39.5627 309.204 39.919 308.703 40.3827C306.495 42.2808 306.009 45.7837 306.232 48.4534C306.495 51.6476 310.105 57.8279 310.105 57.8356Z" fill="black"/>
</g>
<path d="M264.851 209.372L199.209 177.29L265.975 48.4766L331.618 80.5584L264.851 209.372Z" fill="#FFC100" stroke="#263238" stroke-miterlimit="10"/>
<path d="M317.048 93.1736C316.004 92.6647 315.074 91.9612 314.311 91.1034C313.549 90.2457 312.969 89.2506 312.604 88.1753C312.24 87.1 312.099 85.9656 312.188 84.8372C312.278 83.7089 312.597 82.6088 313.127 81.6001C313.295 81.287 313.482 80.9831 313.685 80.6896L276.025 62.2954C275.908 62.631 275.767 62.9584 275.603 63.2753C274.543 65.3082 272.692 66.8501 270.457 67.562C268.223 68.2739 265.788 68.0974 263.688 67.0714C263.523 66.9932 263.363 66.9056 263.209 66.8091L212.79 164.22L213.292 164.436C215.392 165.462 216.985 167.254 217.72 169.417C218.456 171.58 218.273 173.938 217.213 175.971C217.047 176.289 216.858 176.596 216.648 176.889L254.339 195.306C254.459 194.972 254.6 194.644 254.761 194.326C255.288 193.316 256.015 192.417 256.901 191.679C257.787 190.941 258.815 190.38 259.925 190.027C261.036 189.675 262.207 189.538 263.373 189.624C264.538 189.71 265.674 190.018 266.716 190.53C267.042 190.692 267.357 190.875 267.657 191.078L318.06 93.5594C317.714 93.4533 317.376 93.3244 317.048 93.1736ZM258.236 141.536C255.67 140.28 253.546 138.317 252.133 135.893C250.72 133.469 250.081 130.694 250.296 127.919C250.512 125.144 251.573 122.492 253.345 120.301C255.117 118.109 257.521 116.475 260.252 115.606C262.983 114.736 265.919 114.67 268.689 115.416C271.458 116.162 273.938 117.686 275.813 119.796C277.688 121.906 278.875 124.506 279.223 127.269C279.572 130.031 279.066 132.832 277.771 135.317C276.031 138.648 272.997 141.175 269.333 142.341C265.67 143.507 261.679 143.217 258.236 141.536Z" fill="white" stroke="#263238" stroke-linecap="round" stroke-linejoin="round"/>
<path d="M263.935 209.65L202.27 170.878L283.047 49.8115L344.713 88.5829L263.935 209.65Z" fill="#FFC100" stroke="#263238" stroke-miterlimit="10"/>
<path d="M328.82 99.6004C326.847 98.3595 325.463 96.411 324.973 94.1831C324.483 91.9551 324.926 89.6299 326.206 87.7183C326.411 87.4244 326.632 87.1411 326.867 86.8695L291.464 64.6021C291.305 64.923 291.126 65.2347 290.93 65.5356C290.298 66.4848 289.48 67.3041 288.521 67.9466C287.562 68.5892 286.481 69.0424 285.341 69.2803C284.201 69.5183 283.024 69.5362 281.877 69.3332C280.73 69.1302 279.635 68.7102 278.656 68.0973C278.504 68.0047 278.361 67.8889 278.209 67.7886L217.229 159.304C217.389 159.389 217.548 159.474 217.7 159.574C218.682 160.188 219.529 160.984 220.193 161.916C220.856 162.848 221.323 163.898 221.566 165.005C221.809 166.112 221.823 167.255 221.608 168.367C221.393 169.48 220.954 170.54 220.314 171.487C220.111 171.785 219.89 172.071 219.652 172.344L255.056 194.604C255.217 194.284 255.395 193.972 255.59 193.67C256.873 191.761 258.886 190.423 261.188 189.95C263.489 189.477 265.89 189.908 267.864 191.147C268.168 191.346 268.46 191.559 268.741 191.787L329.776 100.117C329.448 99.9632 329.128 99.7906 328.82 99.6004ZM264.947 141.52C262.534 140.004 260.639 137.829 259.502 135.27C258.366 132.711 258.038 129.884 258.562 127.145C259.085 124.407 260.436 121.88 262.443 119.884C264.45 117.889 267.024 116.514 269.838 115.935C272.652 115.355 275.58 115.596 278.253 116.628C280.925 117.66 283.221 119.435 284.851 121.731C286.481 124.026 287.371 126.737 287.409 129.522C287.447 132.307 286.631 135.041 285.064 137.376C282.963 140.508 279.664 142.703 275.892 143.48C272.119 144.257 268.182 143.552 264.947 141.52Z" fill="white" stroke="#263238" stroke-linecap="round" stroke-linejoin="round"/>
<path d="M262.732 209.858L207.195 163.193L304.511 54.1245L360.04 100.781L262.732 209.858Z" fill="#FFC100" stroke="#263238" stroke-miterlimit="10"/>
<path d="M342.721 109.561C341.767 108.766 341 107.783 340.471 106.677C339.942 105.572 339.662 104.37 339.652 103.151C339.641 101.933 339.9 100.726 340.41 99.6121C340.92 98.4981 341.669 97.5025 342.609 96.6917L310.728 69.9028C310.525 70.198 310.304 70.4814 310.067 70.7516C309.303 71.6043 308.373 72.3029 307.33 72.8074C306.288 73.312 305.152 73.6127 303.99 73.6922C302.827 73.7718 301.659 73.6286 300.553 73.271C299.448 72.9134 298.426 72.3483 297.546 71.608C297.402 71.4846 297.275 71.3611 297.147 71.2376L223.67 153.742C223.813 153.85 223.965 153.95 224.1 154.073C225.054 154.869 225.821 155.852 226.35 156.958C226.879 158.063 227.159 159.265 227.169 160.484C227.18 161.702 226.921 162.909 226.411 164.023C225.901 165.137 225.151 166.132 224.212 166.943L256.093 193.732C256.297 193.438 256.518 193.154 256.754 192.883C257.569 191.95 258.583 191.198 259.726 190.679C260.868 190.16 262.113 189.886 263.376 189.876C264.638 189.866 265.888 190.119 267.039 190.62C268.191 191.12 269.217 191.855 270.048 192.775L343.597 110.217C343.289 110.019 342.996 109.8 342.721 109.561ZM273.476 142.523C271.302 140.698 269.737 138.29 268.978 135.603C268.218 132.917 268.299 130.072 269.21 127.43C270.12 124.788 271.82 122.467 274.093 120.76C276.367 119.053 279.112 118.037 281.982 117.841C284.852 117.644 287.717 118.276 290.216 119.656C292.715 121.037 294.735 123.103 296.021 125.595C297.306 128.087 297.799 130.892 297.438 133.655C297.077 136.418 295.877 139.016 293.991 141.119C292.739 142.515 291.216 143.66 289.507 144.486C287.799 145.313 285.939 145.806 284.034 145.936C282.129 146.066 280.216 145.832 278.404 145.246C276.592 144.661 274.918 143.735 273.476 142.523Z" fill="white" stroke="#263238" stroke-linecap="round" stroke-linejoin="round"/>
<path d="M262.565 213.361L213.979 159.937L325.481 64.4326L374.068 117.864L262.565 213.361Z" fill="#FFC100" stroke="#263238" stroke-miterlimit="10"/>
<path d="M355.728 124.322C354.175 122.611 353.387 120.374 353.536 118.101C353.686 115.829 354.761 113.706 356.525 112.2C356.803 111.966 357.095 111.75 357.402 111.552L329.506 80.8747C328.679 81.7943 327.657 82.5316 326.511 83.0368C325.364 83.542 324.119 83.8034 322.859 83.8034C321.599 83.8034 320.354 83.542 319.207 83.0368C318.061 82.5316 317.039 81.7943 316.212 80.8747C316.084 80.7358 315.981 80.5969 315.869 80.458L231.608 152.692C231.736 152.823 231.871 152.939 231.991 153.078C232.761 153.925 233.351 154.91 233.728 155.977C234.104 157.044 234.26 158.173 234.186 159.299C234.112 160.424 233.81 161.525 233.296 162.537C232.783 163.55 232.069 164.454 231.194 165.199C230.917 165.431 230.627 165.648 230.325 165.848L258.221 196.525C258.467 196.25 258.734 195.992 259.018 195.754C259.892 195.007 260.909 194.435 262.012 194.07C263.114 193.705 264.281 193.554 265.444 193.625C266.607 193.697 267.744 193.99 268.79 194.488C269.836 194.985 270.77 195.678 271.539 196.525C271.78 196.792 272.004 197.072 272.209 197.366L356.501 125.055C356.229 124.826 355.97 124.581 355.728 124.322ZM282.554 148.017C280.655 145.927 279.438 143.339 279.059 140.581C278.679 137.822 279.152 135.016 280.419 132.518C281.686 130.02 283.69 127.941 286.177 126.545C288.665 125.149 291.524 124.499 294.393 124.676C297.262 124.853 300.012 125.849 302.296 127.539C304.581 129.229 306.296 131.537 307.225 134.171C308.155 136.804 308.257 139.645 307.519 142.335C306.78 145.025 305.235 147.442 303.077 149.282C301.642 150.509 299.972 151.449 298.161 152.05C296.35 152.651 294.435 152.899 292.524 152.782C290.614 152.664 288.746 152.183 287.028 151.365C285.311 150.547 283.777 149.409 282.514 148.017H282.554Z" fill="white" stroke="#263238" stroke-linecap="round" stroke-linejoin="round"/>
<path d="M248.321 272.355L385.082 217.011C386.242 216.535 387.162 215.635 387.641 214.507C388.12 213.379 388.12 212.113 387.64 210.985L353.576 132.084C353.085 130.958 352.154 130.067 350.986 129.603C349.819 129.139 348.509 129.14 347.343 129.607L210.583 184.936C209.422 185.412 208.502 186.312 208.023 187.44C207.544 188.568 207.544 189.834 208.024 190.962L242.089 269.878C242.58 271.004 243.511 271.896 244.678 272.36C245.846 272.824 247.155 272.822 248.321 272.355Z" fill="#263238" stroke="#263238" stroke-linecap="round" stroke-linejoin="round"/>
<path d="M225.048 201.303L233.283 204.769C235.308 205.622 237.663 204.723 238.543 202.763L242.123 194.792C243.004 192.832 242.076 190.552 240.051 189.699L231.817 186.234C229.792 185.381 227.437 186.279 226.556 188.24L222.976 196.211C222.096 198.171 223.024 200.451 225.048 201.303Z" fill="white" stroke="#263238" stroke-width="1.00319" stroke-miterlimit="10"/>
<path d="M357.586 213.654L372.992 207.421L370.328 201.249L354.921 207.482L357.586 213.654Z" fill="white" stroke="#263238" stroke-miterlimit="10"/>
<path d="M337.137 221.937L352.543 215.704L349.879 209.532L334.472 215.765L337.137 221.937Z" fill="white" stroke="#263238" stroke-miterlimit="10"/>
<path d="M316.683 230.204L332.09 223.972L329.425 217.799L314.019 224.032L316.683 230.204Z" fill="white" stroke="#263238" stroke-miterlimit="10"/>
<path d="M296.234 238.479L311.641 232.247L308.976 226.074L293.57 232.307L296.234 238.479Z" fill="white" stroke="#263238" stroke-miterlimit="10"/>
<path d="M275.785 246.754L291.191 240.521L288.527 234.349L273.121 240.582L275.785 246.754Z" fill="white" stroke="#263238" stroke-miterlimit="10"/>
<path d="M255.327 255.03L270.733 248.797L268.069 242.625L252.663 248.857L255.327 255.03Z" fill="white" stroke="#263238" stroke-miterlimit="10"/>
<path d="M333.082 199.413L361.681 187.843C363.025 187.299 363.66 185.803 363.098 184.502L354.699 165.045C354.137 163.744 352.592 163.13 351.248 163.673L322.648 175.243C321.304 175.787 320.67 177.283 321.232 178.585L329.631 198.041C330.192 199.342 331.738 199.956 333.082 199.413Z" fill="white" stroke="#263238" stroke-miterlimit="10"/>
<path d="M273.267 175.888L346.578 146.23L345.023 142.628L271.712 172.286L273.267 175.888Z" fill="white" stroke="#263238" stroke-miterlimit="10"/>
<path d="M250.663 46.2315V286.575C250.661 289.742 249.361 292.779 247.047 295.019C244.734 297.258 241.597 298.517 238.325 298.519H131.055C127.783 298.517 124.646 297.258 122.333 295.019C120.019 292.779 118.719 289.742 118.717 286.575V46.2238C118.717 43.0581 120.016 40.0221 122.328 37.7836C124.64 35.5452 127.777 34.2876 131.047 34.2876H177.09V34.4265C178.238 38.4232 180.876 41.0234 183.809 41.0234H185.491C188.424 41.0234 191.07 38.4232 192.21 34.4265L192.258 34.2876H238.325C239.946 34.2876 241.55 34.5965 243.047 35.1968C244.544 35.797 245.904 36.6768 247.05 37.7859C248.195 38.895 249.104 40.2117 249.724 41.6608C250.344 43.1099 250.663 44.663 250.663 46.2315Z" fill="white" stroke="#263238" stroke-linecap="round" stroke-linejoin="round"/>
<path d="M250.663 104.593V46.2315C250.663 44.663 250.344 43.1099 249.724 41.6608C249.104 40.2117 248.195 38.895 247.05 37.7859C245.904 36.6768 244.544 35.797 243.047 35.1968C241.55 34.5965 239.946 34.2876 238.325 34.2876H192.337L192.29 34.4265C191.142 38.4232 188.504 41.0234 185.571 41.0234H183.889C180.956 41.0234 178.31 38.4232 177.17 34.4265V34.2876H131.047C127.777 34.2876 124.64 35.5452 122.328 37.7836C120.016 40.0221 118.717 43.0581 118.717 46.2238V104.593H250.663Z" fill="#FFC100" stroke="#263238" stroke-miterlimit="10"/>
<path d="M223.279 182.359H145.274C141.049 182.359 137.623 185.676 137.623 189.766V213.261C137.623 217.352 141.049 220.668 145.274 220.668H223.279C227.504 220.668 230.93 217.352 230.93 213.261V189.766C230.93 185.676 227.504 182.359 223.279 182.359Z" fill="#FFC100" stroke="#263238" stroke-miterlimit="10"/>
<path d="M250.663 57.4115V46.2315C250.663 44.663 250.344 43.1099 249.724 41.6608C249.104 40.2117 248.195 38.895 247.05 37.7859C245.904 36.6768 244.544 35.797 243.047 35.1968C241.55 34.5965 239.946 34.2876 238.325 34.2876H192.337L192.29 34.4265C191.142 38.4232 188.504 41.0234 185.571 41.0234H183.889C180.956 41.0234 178.31 38.4232 177.17 34.4265V34.2876H131.047C127.777 34.2876 124.64 35.5452 122.328 37.7836C120.016 40.0221 118.717 43.0581 118.717 46.2238V57.4115H250.663Z" fill="#DBDBDB" stroke="#263238" stroke-linecap="round" stroke-linejoin="round"/>
<path d="M118.717 284.692V286.575C118.719 289.742 120.019 292.779 122.333 295.018C124.646 297.258 127.783 298.517 131.055 298.519H238.325C241.597 298.517 244.734 297.258 247.047 295.018C249.361 292.779 250.661 289.742 250.663 286.575V284.692H118.717Z" fill="#DBDBDB" stroke="#263238" stroke-linecap="round" stroke-linejoin="round"/>
<path d="M259.056 103.636V79.6712H256.817V48.901C256.815 43.8766 254.751 39.0586 251.081 35.5065C247.41 31.9544 242.432 29.959 237.242 29.959H132.139C126.949 29.959 121.971 31.9544 118.301 35.5065C114.63 39.0586 112.567 43.8766 112.564 48.901V293.103C112.567 298.127 114.63 302.945 118.301 306.497C121.971 310.049 126.949 312.045 132.139 312.045H237.242C242.432 312.045 247.41 310.049 251.081 306.497C254.751 302.945 256.815 298.127 256.817 293.103V124.129H259.056V109.909H256.817V103.636H259.056ZM250.664 279.554C250.664 284.578 248.603 289.397 244.933 292.951C241.264 296.504 236.287 298.501 231.097 298.504H138.284C133.094 298.501 128.117 296.504 124.448 292.951C120.779 289.397 118.717 284.578 118.717 279.554V53.2295C118.717 48.2058 120.779 43.3878 124.448 39.8355C128.118 36.2832 133.095 34.2875 138.284 34.2875H177.091V34.4264C178.239 38.4231 180.877 41.0233 183.81 41.0233H185.492C188.425 41.0233 191.071 38.4231 192.211 34.4264L192.258 34.2875H231.057C236.247 34.2875 241.224 36.2832 244.893 39.8355C248.563 43.3878 250.624 48.2058 250.624 53.2295L250.664 279.554Z" fill="#FFC100" stroke="#263238" stroke-linecap="round" stroke-linejoin="round"/>
<path d="M235.672 32.6055H133.709C128.704 32.6055 123.903 34.5304 120.364 37.9568C116.824 41.3833 114.836 46.0305 114.836 50.8762V291.166C114.836 296.012 116.824 300.659 120.364 304.085C123.903 307.512 128.704 309.437 133.709 309.437H235.672C240.677 309.437 245.478 307.512 249.017 304.085C252.557 300.659 254.545 296.012 254.545 291.166V50.8376C254.535 45.9986 252.542 41.3613 249.003 37.9432C245.465 34.5251 240.671 32.6055 235.672 32.6055ZM250.664 280.279C250.664 285.126 248.676 289.774 245.136 293.201C241.597 296.629 236.797 298.556 231.79 298.558H137.591C132.585 298.556 127.784 296.629 124.245 293.201C120.706 289.774 118.717 285.126 118.717 280.279V52.5505C118.717 50.1522 119.205 47.7773 120.153 45.5616C121.102 43.3458 122.491 41.3325 124.243 39.6366C125.995 37.9407 128.075 36.5955 130.363 35.6777C132.652 34.7599 135.105 34.2875 137.583 34.2875H177.091V34.4264C178.239 38.4231 180.877 41.0233 183.81 41.0233H185.492C188.425 41.0233 191.071 38.4231 192.21 34.4264L192.258 34.2875H231.79C236.796 34.2875 241.596 36.2124 245.136 39.6389C248.675 43.0653 250.664 47.7125 250.664 52.5582V280.279Z" fill="#263238" stroke="#263238" stroke-linecap="round" stroke-linejoin="round"/>
<path d="M186.122 35.1905C186.122 34.8377 186.013 34.4928 185.811 34.1995C185.608 33.9062 185.32 33.6778 184.983 33.5431C184.646 33.4085 184.276 33.3736 183.918 33.443C183.561 33.5124 183.233 33.6829 182.976 33.933C182.719 34.183 182.544 34.5013 182.474 34.8476C182.404 35.1938 182.441 35.5524 182.582 35.8779C182.722 36.2035 182.96 36.4813 183.264 36.6762C183.567 36.8711 183.924 36.9744 184.289 36.9728C184.53 36.9728 184.769 36.9267 184.992 36.837C185.215 36.7474 185.417 36.6159 185.588 36.4503C185.758 36.2847 185.893 36.0882 185.984 35.872C186.076 35.6558 186.123 35.4242 186.122 35.1905Z" fill="white"/>
<path d="M130.442 42.011C130.442 43.8088 128.353 44.4569 128.345 45.8689V45.9614H130.37V46.4938H127.668V45.9846C127.668 44.0557 129.756 43.6699 129.756 42.0033C129.756 41.386 129.549 41.062 129.039 41.062C128.529 41.062 128.314 41.4169 128.314 41.9416V42.4739H127.668V42.0187C127.668 41.1083 128.098 40.4756 129.055 40.4756C130.011 40.4756 130.442 41.0928 130.442 42.011Z" fill="#263238"/>
<path d="M133.821 42.0031V42.1497C133.85 42.4062 133.793 42.665 133.658 42.8875C133.523 43.11 133.317 43.2842 133.072 43.3842C133.318 43.4831 133.525 43.6572 133.66 43.88C133.795 44.1027 133.852 44.3621 133.821 44.6187V45.0817C133.821 45.9921 133.374 46.6248 132.426 46.6248C131.478 46.6248 131.047 46.0307 131.047 45.0817V44.665H131.685V45.1202C131.685 45.6603 131.916 45.9844 132.41 45.9844C132.904 45.9844 133.135 45.668 133.135 45.0585V44.6033C133.135 44.0092 132.872 43.7314 132.338 43.716H131.972V43.1142H132.378C132.485 43.1152 132.591 43.0939 132.688 43.0517C132.785 43.0096 132.872 42.9475 132.943 42.8699C133.013 42.7922 133.065 42.7008 133.096 42.6018C133.126 42.5028 133.134 42.3986 133.119 42.2963V42.0262C133.119 41.409 132.896 41.0926 132.394 41.0926C131.892 41.0926 131.669 41.4321 131.669 41.9645V42.2731H131.031V42.0031C131.031 41.0849 131.47 40.46 132.41 40.46C133.351 40.46 133.821 41.0926 133.821 42.0031Z" fill="#263238"/>
<path d="M135.152 42.4507V43.2763H134.49V42.4507H135.152ZM135.152 45.699V46.4937H134.49V45.7221L135.152 45.699Z" fill="#263238"/>
<path d="M136.546 42.991C136.636 42.8343 136.77 42.7051 136.932 42.6179C137.094 42.5306 137.278 42.4888 137.463 42.4972C138.26 42.4972 138.611 43.0604 138.611 43.9092V45.0819C138.611 45.9924 138.164 46.6251 137.216 46.6251C136.267 46.6251 135.837 46.031 135.837 45.0819V44.6807H136.475V45.1205C136.475 45.6606 136.706 45.9847 137.2 45.9847C137.694 45.9847 137.925 45.6606 137.925 45.1205V43.9632C137.925 43.4231 137.694 43.099 137.2 43.099C137.111 43.0959 137.022 43.1101 136.938 43.1408C136.855 43.1715 136.778 43.2181 136.714 43.2778C136.649 43.3374 136.597 43.409 136.562 43.4883C136.526 43.5676 136.507 43.653 136.506 43.7394V43.8783H135.861L136.028 40.5605H138.419V41.1547H136.602L136.546 42.991Z" fill="#263238"/>
<path d="M142.03 41.9877V42.1034H141.385V41.9491C141.385 41.409 141.162 41.0926 140.659 41.0926C140.157 41.0926 139.91 41.4167 139.91 42.0571V43.4074C139.981 43.2112 140.115 43.0427 140.294 42.9271C140.472 42.8116 140.684 42.7554 140.899 42.767C141.696 42.767 142.046 43.3225 142.046 44.1789V45.0894C142.046 45.9998 141.584 46.6325 140.635 46.6325C139.687 46.6325 139.217 46.0384 139.217 45.0894V42.0031C139.217 41.0541 139.663 40.46 140.635 40.46C141.608 40.46 142.03 41.0926 142.03 41.9877ZM139.91 44.2252V45.1202C139.91 45.6603 140.133 45.9844 140.635 45.9844C141.138 45.9844 141.369 45.6603 141.369 45.1202V44.2252C141.369 43.6851 141.13 43.3611 140.635 43.3611C140.141 43.3611 139.91 43.6851 139.91 44.2252Z" fill="#263238"/>
<path d="M209.338 42.25H207.601V46.4628H209.338V42.25Z" fill="#263238"/>
<path d="M211.657 41.4092H209.92V46.463H211.657V41.4092Z" fill="#263238"/>
<path d="M213.977 40.8071H212.239V46.4627H213.977V40.8071Z" fill="#263238"/>
<path d="M216.304 39.7656H214.566V46.4628H216.304V39.7656Z" fill="#263238"/>
<path d="M237.847 46.3547H227.406V40.1821H237.847V46.3547ZM227.98 45.7914H237.265V40.7299H227.98V45.7914Z" fill="#263238"/>
<path d="M234.365 41.3477H228.85V45.1824H234.365V41.3477Z" fill="#263238"/>
<path d="M238.796 42.5356H237.48V43.9939H238.796V42.5356Z" fill="#263238"/>
<path d="M223.573 45.0046C223.503 45.0059 223.434 44.9872 223.374 44.9506C221.246 43.7315 219.843 44.8657 219.779 44.9506C219.742 44.9837 219.698 45.0091 219.65 45.0251C219.602 45.0412 219.551 45.0476 219.5 45.044C219.449 45.0404 219.4 45.0268 219.355 45.0041C219.31 44.9815 219.27 44.9501 219.238 44.912C219.202 44.8776 219.174 44.8367 219.154 44.7917C219.135 44.7467 219.125 44.6984 219.125 44.6497C219.125 44.6009 219.135 44.5527 219.154 44.5077C219.174 44.4626 219.202 44.4218 219.238 44.3874C219.317 44.3179 221.111 42.8442 223.741 44.3411C223.829 44.3924 223.893 44.4756 223.919 44.5725C223.944 44.6693 223.929 44.772 223.876 44.858C223.841 44.9038 223.795 44.9409 223.743 44.9663C223.69 44.9918 223.632 45.0049 223.573 45.0046Z" fill="#263238"/>
<path d="M224.362 43.7393C224.292 43.7416 224.222 43.7228 224.163 43.6853C221.086 41.9184 219.022 43.6236 218.998 43.6853C218.959 43.7183 218.914 43.7435 218.866 43.7596C218.817 43.7756 218.765 43.7822 218.714 43.779C218.662 43.7758 218.612 43.7628 218.566 43.7408C218.52 43.7187 218.478 43.6881 218.444 43.6506C218.41 43.6131 218.384 43.5695 218.368 43.5223C218.351 43.475 218.344 43.4251 218.348 43.3753C218.351 43.3255 218.364 43.2768 218.387 43.2321C218.41 43.1873 218.441 43.1473 218.48 43.1144C218.48 43.1144 220.999 41.0311 224.561 43.1144C224.648 43.1671 224.711 43.2502 224.736 43.3465C224.762 43.4428 224.747 43.5448 224.697 43.6313C224.653 43.6721 224.6 43.7029 224.542 43.7215C224.484 43.7402 224.423 43.7463 224.362 43.7393Z" fill="#263238"/>
<path d="M225.072 42.2657C225.002 42.2662 224.933 42.2475 224.873 42.2117C220.983 39.9741 218.393 42.0805 218.281 42.1731C218.246 42.2088 218.203 42.2372 218.156 42.2566C218.109 42.276 218.058 42.286 218.006 42.286C217.955 42.286 217.904 42.276 217.857 42.2566C217.81 42.2372 217.767 42.2088 217.731 42.1731C217.666 42.0978 217.634 42.0009 217.642 41.903C217.649 41.8051 217.696 41.7138 217.771 41.6485C217.771 41.6485 220.872 39.0714 225.271 41.6022C225.36 41.6535 225.424 41.7367 225.449 41.8336C225.475 41.9304 225.459 42.0331 225.407 42.1191C225.369 42.1693 225.318 42.2092 225.259 42.2349C225.201 42.2605 225.136 42.2712 225.072 42.2657Z" fill="#263238"/>
<path d="M222.402 45.6371C222.404 45.8251 222.347 46.0094 222.241 46.1665C222.134 46.3235 221.981 46.4464 221.802 46.5194C221.623 46.5924 221.426 46.6123 221.235 46.5766C221.045 46.5408 220.869 46.451 220.731 46.3186C220.593 46.1862 220.499 46.0171 220.461 45.8328C220.422 45.6485 220.441 45.4573 220.515 45.2835C220.589 45.1096 220.715 44.9609 220.876 44.8563C221.038 44.7517 221.227 44.6958 221.422 44.6958C221.68 44.6958 221.928 44.7947 222.112 44.971C222.296 45.1473 222.4 45.3868 222.402 45.6371Z" fill="#263238"/>
<path d="M162.927 149.078V126.928H164.346V149.078H162.927ZM167.703 133.573C167.599 132.696 167.178 132.015 166.439 131.531C165.701 131.046 164.796 130.804 163.723 130.804C162.938 130.804 162.252 130.931 161.663 131.185C161.081 131.438 160.625 131.787 160.296 132.232C159.973 132.676 159.812 133.18 159.812 133.746C159.812 134.219 159.924 134.625 160.149 134.966C160.38 135.3 160.674 135.58 161.032 135.805C161.389 136.024 161.764 136.206 162.157 136.35C162.549 136.489 162.909 136.601 163.238 136.688L165.038 137.172C165.499 137.293 166.013 137.46 166.578 137.674C167.149 137.887 167.694 138.179 168.213 138.548C168.738 138.911 169.171 139.378 169.511 139.95C169.851 140.521 170.022 141.221 170.022 142.052C170.022 143.01 169.771 143.875 169.269 144.648C168.773 145.421 168.046 146.035 167.088 146.491C166.137 146.946 164.98 147.174 163.619 147.174C162.35 147.174 161.251 146.97 160.322 146.56C159.399 146.15 158.672 145.579 158.142 144.847C157.617 144.114 157.32 143.263 157.251 142.294H159.466C159.523 142.963 159.748 143.517 160.141 143.956C160.539 144.388 161.04 144.711 161.646 144.925C162.257 145.132 162.915 145.236 163.619 145.236C164.438 145.236 165.173 145.103 165.825 144.838C166.477 144.567 166.993 144.192 167.374 143.713C167.755 143.229 167.945 142.663 167.945 142.017C167.945 141.429 167.781 140.95 167.452 140.581C167.123 140.212 166.69 139.912 166.154 139.681C165.617 139.451 165.038 139.249 164.415 139.076L162.234 138.453C160.85 138.055 159.754 137.486 158.946 136.748C158.139 136.01 157.735 135.044 157.735 133.85C157.735 132.857 158.003 131.992 158.54 131.254C159.082 130.51 159.809 129.933 160.72 129.523C161.637 129.108 162.661 128.9 163.792 128.9C164.934 128.9 165.949 129.105 166.837 129.515C167.726 129.918 168.43 130.472 168.949 131.176C169.474 131.88 169.75 132.679 169.779 133.573H167.703ZM178.914 147.105C177.726 147.105 176.676 146.895 175.765 146.473C174.859 146.047 174.152 145.461 173.645 144.717C173.137 143.967 172.886 143.113 172.892 142.156C172.886 141.406 173.033 140.714 173.333 140.079C173.633 139.439 174.043 138.905 174.562 138.479C175.087 138.046 175.672 137.772 176.318 137.657V137.553C175.47 137.334 174.796 136.858 174.294 136.125C173.792 135.387 173.544 134.548 173.55 133.607C173.544 132.707 173.772 131.903 174.233 131.193C174.695 130.484 175.329 129.924 176.137 129.515C176.95 129.105 177.876 128.9 178.914 128.9C179.941 128.9 180.858 129.105 181.666 129.515C182.473 129.924 183.108 130.484 183.569 131.193C184.036 131.903 184.273 132.707 184.279 133.607C184.273 134.548 184.016 135.387 183.509 136.125C183.007 136.858 182.34 137.334 181.51 137.553V137.657C182.15 137.772 182.727 138.046 183.24 138.479C183.754 138.905 184.163 139.439 184.469 140.079C184.775 140.714 184.93 141.406 184.936 142.156C184.93 143.113 184.671 143.967 184.157 144.717C183.65 145.461 182.943 146.047 182.038 146.473C181.138 146.895 180.097 147.105 178.914 147.105ZM178.914 145.202C179.716 145.202 180.408 145.072 180.991 144.812C181.573 144.553 182.023 144.186 182.34 143.713C182.658 143.24 182.819 142.687 182.825 142.052C182.819 141.383 182.646 140.792 182.306 140.278C181.966 139.765 181.501 139.361 180.913 139.067C180.33 138.773 179.664 138.626 178.914 138.626C178.158 138.626 177.484 138.773 176.889 139.067C176.301 139.361 175.837 139.765 175.496 140.278C175.162 140.792 174.997 141.383 175.003 142.052C174.997 142.687 175.15 143.24 175.462 143.713C175.779 144.186 176.232 144.553 176.82 144.812C177.409 145.072 178.107 145.202 178.914 145.202ZM178.914 136.791C179.549 136.791 180.111 136.664 180.601 136.411C181.097 136.157 181.487 135.802 181.769 135.346C182.052 134.891 182.196 134.357 182.202 133.746C182.196 133.146 182.055 132.624 181.778 132.18C181.501 131.73 181.118 131.384 180.627 131.141C180.137 130.893 179.566 130.769 178.914 130.769C178.251 130.769 177.671 130.893 177.175 131.141C176.679 131.384 176.295 131.73 176.024 132.18C175.753 132.624 175.62 133.146 175.626 133.746C175.62 134.357 175.756 134.891 176.033 135.346C176.315 135.802 176.705 136.157 177.201 136.411C177.697 136.664 178.268 136.791 178.914 136.791ZM194.032 147.105C192.728 147.105 191.618 146.75 190.701 146.041C189.784 145.326 189.083 144.29 188.598 142.935C188.114 141.573 187.872 139.929 187.872 138.003C187.872 136.088 188.114 134.452 188.598 133.097C189.089 131.735 189.792 130.697 190.71 129.982C191.632 129.261 192.74 128.9 194.032 128.9C195.324 128.9 196.429 129.261 197.346 129.982C198.269 130.697 198.973 131.735 199.457 133.097C199.947 134.452 200.193 136.088 200.193 138.003C200.193 139.929 199.95 141.573 199.466 142.935C198.981 144.29 198.28 145.326 197.363 146.041C196.446 146.75 195.336 147.105 194.032 147.105ZM194.032 145.202C195.324 145.202 196.328 144.579 197.043 143.333C197.758 142.087 198.116 140.31 198.116 138.003C198.116 136.468 197.952 135.162 197.623 134.083C197.3 133.004 196.833 132.183 196.221 131.617C195.615 131.052 194.886 130.769 194.032 130.769C192.751 130.769 191.751 131.401 191.03 132.664C190.309 133.922 189.948 135.701 189.948 138.003C189.948 139.537 190.11 140.841 190.433 141.914C190.756 142.987 191.22 143.803 191.826 144.362C192.437 144.922 193.173 145.202 194.032 145.202ZM159.223 176.001C158.796 176.001 158.43 175.848 158.124 175.543C157.819 175.237 157.666 174.871 157.666 174.444C157.666 174.017 157.819 173.651 158.124 173.345C158.43 173.039 158.796 172.886 159.223 172.886C159.65 172.886 160.016 173.039 160.322 173.345C160.628 173.651 160.781 174.017 160.781 174.444C160.781 174.726 160.709 174.986 160.564 175.223C160.426 175.459 160.239 175.649 160.002 175.794C159.771 175.932 159.512 176.001 159.223 176.001ZM169.885 157.9C170.612 157.906 171.339 158.045 172.066 158.316C172.793 158.587 173.456 159.037 174.056 159.665C174.656 160.288 175.137 161.139 175.501 162.218C175.864 163.297 176.046 164.649 176.046 166.276C176.046 167.851 175.896 169.249 175.596 170.472C175.302 171.689 174.875 172.716 174.315 173.553C173.762 174.389 173.087 175.024 172.291 175.456C171.5 175.889 170.606 176.105 169.608 176.105C168.616 176.105 167.731 175.909 166.952 175.517C166.179 175.119 165.545 174.568 165.049 173.864C164.558 173.155 164.244 172.333 164.105 171.398H166.217C166.407 172.211 166.785 172.883 167.35 173.414C167.921 173.939 168.674 174.202 169.608 174.202C170.976 174.202 172.054 173.605 172.844 172.41C173.64 171.216 174.038 169.529 174.038 167.349H173.9C173.577 167.833 173.193 168.252 172.749 168.603C172.305 168.955 171.812 169.226 171.27 169.417C170.727 169.607 170.151 169.702 169.539 169.702C168.524 169.702 167.592 169.451 166.744 168.95C165.902 168.442 165.227 167.747 164.72 166.864C164.218 165.976 163.967 164.961 163.967 163.819C163.967 162.734 164.209 161.742 164.694 160.842C165.184 159.937 165.871 159.216 166.753 158.679C167.641 158.143 168.685 157.883 169.885 157.9ZM169.885 159.804C169.158 159.804 168.504 159.986 167.921 160.349C167.344 160.707 166.886 161.191 166.545 161.803C166.211 162.408 166.044 163.08 166.044 163.819C166.044 164.557 166.205 165.229 166.528 165.835C166.857 166.435 167.304 166.913 167.869 167.271C168.44 167.623 169.089 167.799 169.816 167.799C170.364 167.799 170.875 167.692 171.348 167.479C171.821 167.259 172.233 166.962 172.585 166.587C172.942 166.207 173.222 165.777 173.424 165.298C173.626 164.814 173.727 164.309 173.727 163.784C173.727 163.092 173.56 162.443 173.225 161.837C172.896 161.232 172.441 160.741 171.858 160.366C171.281 159.991 170.624 159.804 169.885 159.804ZM185.09 157.9C185.817 157.906 186.543 158.045 187.27 158.316C187.997 158.587 188.66 159.037 189.26 159.665C189.86 160.288 190.342 161.139 190.705 162.218C191.069 163.297 191.25 164.649 191.25 166.276C191.25 167.851 191.1 169.249 190.8 170.472C190.506 171.689 190.079 172.716 189.52 173.553C188.966 174.389 188.291 175.024 187.495 175.456C186.705 175.889 185.811 176.105 184.813 176.105C183.821 176.105 182.935 175.909 182.157 175.517C181.384 175.119 180.749 174.568 180.253 173.864C179.763 173.155 179.448 172.333 179.31 171.398H181.421C181.611 172.211 181.989 172.883 182.555 173.414C183.126 173.939 183.878 174.202 184.813 174.202C186.18 174.202 187.259 173.605 188.049 172.41C188.845 171.216 189.243 169.529 189.243 167.349H189.104C188.781 167.833 188.398 168.252 187.954 168.603C187.51 168.955 187.016 169.226 186.474 169.417C185.932 169.607 185.355 169.702 184.744 169.702C183.728 169.702 182.797 169.451 181.949 168.95C181.107 168.442 180.432 167.747 179.924 166.864C179.422 165.976 179.172 164.961 179.172 163.819C179.172 162.734 179.414 161.742 179.898 160.842C180.389 159.937 181.075 159.216 181.958 158.679C182.846 158.143 183.89 157.883 185.09 157.9ZM185.09 159.804C184.363 159.804 183.708 159.986 183.126 160.349C182.549 160.707 182.09 161.191 181.75 161.803C181.415 162.408 181.248 163.08 181.248 163.819C181.248 164.557 181.41 165.229 181.733 165.835C182.061 166.435 182.508 166.913 183.074 167.271C183.645 167.623 184.294 167.799 185.021 167.799C185.569 167.799 186.079 167.692 186.552 167.479C187.025 167.259 187.437 166.962 187.789 166.587C188.147 166.207 188.427 165.777 188.629 165.298C188.83 164.814 188.931 164.309 188.931 163.784C188.931 163.092 188.764 162.443 188.43 161.837C188.101 161.232 187.645 160.741 187.063 160.366C186.486 159.991 185.828 159.804 185.09 159.804Z" fill="black"/>
<path d="M156.4 88.2202V75.2192H161.254V76.1605H157.676V81.0446H160.593V81.9859H157.676V87.3869H161.286V88.2973L156.4 88.2202Z" fill="black"/>
<path d="M162.561 83.4518V82.5259H166.075V83.4518H162.561Z" fill="black"/>
<path d="M169.623 88.2202L167.352 75.2192H168.428L170.205 85.782L172.229 75.4121H173.273L175.346 85.7974L176.988 75.2192H178.048L175.88 88.2202H174.899L172.755 77.4954L170.651 88.2202H169.623Z" fill="black"/>
<path d="M178.565 88.2202L181.403 75.2192H182.726L185.579 88.2202H184.368L183.706 84.7404H180.518L179.841 88.2202H178.565ZM180.654 83.8531H183.507L182.064 76.8395L180.654 83.8531Z" fill="black"/>
<path d="M187.205 88.2202V75.2192H188.464V87.3097H192.282V88.2202H187.205Z" fill="black"/>
<path d="M193.541 88.2202V75.2192H194.8V87.3097H198.618V88.2202H193.541Z" fill="black"/>
<path d="M199.861 88.2202V75.2192H204.723V76.1605H201.105V81.0446H204.022V81.9859H201.105V87.3869H204.723V88.2973L199.861 88.2202Z" fill="black"/>
<path d="M208.134 88.2202V76.1605H205.6V75.2192H211.848V76.1605H209.393V88.2202H208.134Z" fill="black"/>
<path d="M171.385 207.752V193.863H176.167C176.905 193.836 177.637 194.001 178.287 194.342C178.844 194.652 179.278 195.132 179.522 195.707C179.811 196.398 179.95 197.139 179.929 197.883C179.98 198.733 179.793 199.581 179.387 200.337C179.046 200.881 178.523 201.295 177.904 201.51C177.227 201.733 176.516 201.843 175.8 201.834H174.525V207.752H171.385ZM174.573 199.727H175.601C175.91 199.745 176.217 199.675 176.486 199.527C176.693 199.376 176.835 199.156 176.884 198.909C176.954 198.567 176.986 198.217 176.98 197.868C176.985 197.555 176.958 197.242 176.9 196.934C176.86 196.682 176.723 196.453 176.518 196.294C176.245 196.112 175.915 196.028 175.585 196.055H174.541L174.573 199.727Z" fill="#263238"/>
<path d="M179.944 207.752L182.646 193.863H186.249L188.919 207.752H186.002L185.531 204.827H183.427L182.933 207.752H179.944ZM183.706 202.991H185.229L184.432 197.59L183.706 202.991Z" fill="#263238"/>
<path d="M191.461 207.752V202.119L188.743 193.925H191.724L193.087 198.308L194.306 193.925H197.168L194.498 202.119V207.752H191.461Z" fill="#263238"/>
<path d="M111.242 48.7464C97.2301 42.6355 82.8758 34.9199 74.4672 21.9729C72.6182 19.1336 71.1835 16.3328 70.267 15.0288C69.3504 16.3713 67.9237 19.1721 66.0746 21.9729C57.6422 34.9199 43.2958 42.6355 29.2922 48.7464C28.6706 49.0241 18.66 52.4036 18.668 52.5039C18.6759 52.6042 20.7801 102.656 36.7125 124.615C50.3176 143.348 65.979 150.007 70.267 151.55C74.5549 150.007 90.1924 143.348 103.821 124.615C119.762 102.679 121.866 52.5116 121.866 52.5039C121.866 52.4962 111.839 49.0241 111.242 48.7464Z" fill="#FFC100"/>
<path d="M106.834 52.4654C94.3291 47.0181 81.521 40.1203 74.0131 28.5468C72.3632 26.0083 71.08 23.5084 70.2671 22.3125C69.4701 23.5084 68.1709 26.0083 66.5211 28.5468C59.0211 40.1049 46.2051 47.0181 33.7317 52.4654C33.1738 52.7046 24.2393 55.7214 24.2393 55.814C24.2393 55.9066 26.1282 100.565 40.347 120.171C52.4617 136.883 66.4095 142.824 70.2671 144.205C74.0928 142.824 88.0725 136.883 100.211 120.171C114.43 100.596 116.319 55.8217 116.319 55.814C116.319 55.8063 107.384 52.7046 106.834 52.4654Z" fill="white"/>
<path d="M70.6021 118.442C88.3898 118.442 102.81 104.483 102.81 87.2631C102.81 70.0433 88.3898 56.084 70.6021 56.084C52.8143 56.084 38.3945 70.0433 38.3945 87.2631C38.3945 104.483 52.8143 118.442 70.6021 118.442Z" fill="#263238" stroke="#263238" stroke-linecap="round" stroke-linejoin="round"/>
<path d="M68.6093 97.0543H68.3144C67.7804 97.0115 67.2639 96.8499 66.8049 96.5823C66.346 96.3146 65.957 95.9481 65.6683 95.5112L56.0483 80.7048C55.785 80.3315 55.6022 79.9106 55.5107 79.4674C55.4192 79.0242 55.421 78.5676 55.5158 78.1251C55.6106 77.6825 55.7966 77.263 56.0626 76.8915C56.3286 76.5201 56.6692 76.2043 57.0641 75.9631C57.459 75.7219 57.9 75.5603 58.3608 75.4878C58.8217 75.4152 59.2929 75.4334 59.7464 75.5411C60.1998 75.6488 60.6262 75.8438 61 76.1146C61.3739 76.3853 61.6876 76.7263 61.9223 77.117L69.0954 88.135L88.9332 66.7008C89.2301 66.3483 89.5978 66.0577 90.014 65.8466C90.4302 65.6355 90.8863 65.5083 91.3547 65.4727C91.8231 65.4371 92.2941 65.4939 92.7392 65.6395C93.1844 65.7851 93.5943 66.0166 93.9444 66.32C94.2945 66.6234 94.5774 66.9924 94.776 67.4046C94.9746 67.8168 95.0847 68.2638 95.0998 68.7184C95.1149 69.173 95.0346 69.6259 94.8638 70.0496C94.6929 70.4733 94.4351 70.8591 94.1059 71.1836L71.1916 95.9355C70.8669 96.2877 70.469 96.5694 70.024 96.7622C69.5789 96.955 69.0968 97.0546 68.6093 97.0543Z" fill="#FFC100" stroke="#263238" stroke-miterlimit="10"/>
<path opacity="0.18" d="M80.565 90.4728C62.3861 96.2944 46.5358 107.461 35.2227 122.416C35.7088 123.187 36.203 123.905 36.7131 124.607C50.3182 143.341 65.9796 149.999 70.2676 151.542C74.5555 149.999 90.193 143.341 103.822 124.607C112.876 112.146 117.467 90.5654 119.762 74.2544C110.708 79.231 98.0198 84.9329 80.565 90.4728Z" fill="black"/>
<path d="M111.242 48.7464C97.2301 42.6355 82.8758 34.9199 74.4672 21.9729C72.6182 19.1336 71.1835 16.3328 70.267 15.0288C69.3504 16.3713 67.9237 19.1721 66.0746 21.9729C57.6422 34.9199 43.2958 42.6355 29.2922 48.7464C28.6706 49.0241 18.66 52.4036 18.668 52.5039C18.6759 52.6042 20.7801 102.656 36.7125 124.615C50.3176 143.348 65.979 150.007 70.267 151.55C74.5549 150.007 90.1924 143.348 103.821 124.615C119.762 102.679 121.866 52.5116 121.866 52.5039C121.866 52.4962 111.839 49.0241 111.242 48.7464Z" stroke="#263238" stroke-miterlimit="10"/>
<path d="M83.9955 357.286C99.4587 342.316 99.4587 318.046 83.9956 303.077C68.5324 288.107 43.4617 288.107 27.9985 303.077C12.5354 318.046 12.5354 342.316 27.9985 357.286C43.4617 372.255 68.5324 372.255 83.9955 357.286Z" fill="white" stroke="#263238" stroke-miterlimit="10"/>
<path d="M63.5722 361.523C81.4535 357.472 92.5573 340.156 88.3731 322.845C84.189 305.535 66.3014 294.786 48.42 298.836C30.5387 302.887 19.4349 320.203 23.6191 337.514C27.8032 354.824 45.6908 365.573 63.5722 361.523Z" fill="white" stroke="#263238" stroke-miterlimit="10"/>
<path d="M62.8309 359.473L61.7071 354.35C57.7645 355.013 54.5764 354.404 52.1428 352.521C49.7093 350.639 47.9213 347.455 46.7789 342.969L54.51 339.999C54.8838 341.539 55.4179 343.038 56.104 344.474C56.5432 345.459 57.2548 346.308 58.1603 346.927C58.5613 347.167 59.008 347.325 59.4737 347.392C59.9394 347.46 60.4144 347.436 60.8702 347.321C61.35 347.276 61.8074 347.102 62.1915 346.82C62.5756 346.538 62.8714 346.159 63.0461 345.724C63.319 344.857 63.352 343.937 63.1417 343.054C62.8315 341.374 61.9971 339.825 60.7507 338.618C59.3939 337.401 57.8771 336.363 56.2395 335.531L50.5169 332.499C49.2532 331.774 48.0416 330.967 46.8905 330.084C45.77 329.215 44.8059 328.172 44.0372 326.998C43.1619 325.604 42.5519 324.07 42.2359 322.469C41.4973 319.033 41.9304 316.132 43.535 313.765C45.3206 311.305 47.9642 309.551 50.9792 308.827L49.9032 303.92L52.637 303.357L53.713 308.264C55.4915 307.93 57.3281 308.037 59.053 308.573C60.4553 309.046 61.7092 309.859 62.6954 310.934C63.655 312.018 64.4421 313.235 65.0306 314.545C65.6247 315.837 66.1176 317.17 66.5051 318.534L58.6146 321.365C58.3277 320.16 57.9495 318.976 57.4829 317.824C57.1551 316.96 56.6067 316.19 55.8888 315.586C55.5388 315.338 55.1321 315.176 54.7033 315.113C54.2746 315.05 53.8364 315.088 53.426 315.224C52.9501 315.317 52.5051 315.522 52.13 315.821C51.7548 316.12 51.461 316.503 51.2741 316.937C50.8954 317.809 50.8063 318.775 51.0191 319.699C51.2684 321.171 52.0272 322.518 53.171 323.518C54.2716 324.402 55.4414 325.202 56.6699 325.91L62.249 328.904C63.7456 329.748 65.1713 330.705 66.5131 331.766C67.8629 332.843 69.0418 334.107 70.012 335.516C71.0603 337.091 71.7881 338.846 72.156 340.685C72.585 342.521 72.5659 344.429 72.1002 346.256C71.6552 348.003 70.733 349.602 69.4302 350.886C68.0231 352.242 66.2849 353.231 64.3771 353.764L65.5168 358.948L62.8309 359.473Z" fill="#263238"/>
<path d="M311.062 346.325C320.294 327.134 311.707 304.332 291.883 295.395C272.059 286.458 248.504 294.771 239.273 313.962C230.041 333.153 238.628 355.956 258.452 364.892C278.277 373.829 301.831 365.516 311.062 346.325Z" fill="white" stroke="#263238" stroke-miterlimit="10"/>
<path d="M283.084 361.428C300.923 357.209 311.852 339.788 307.493 322.518C303.134 305.248 285.139 294.669 267.299 298.888C249.46 303.108 238.531 320.528 242.89 337.798C247.249 355.068 265.244 365.648 283.084 361.428Z" fill="white" stroke="#263238" stroke-miterlimit="10"/>
<path d="M282.011 359.473L280.879 354.35C276.942 355.013 273.754 354.404 271.315 352.521C268.876 350.638 267.086 347.454 265.943 342.969L273.682 339.999C274.053 341.54 274.587 343.039 275.276 344.474C275.713 345.461 276.425 346.31 277.333 346.927C277.732 347.167 278.177 347.325 278.642 347.393C279.106 347.46 279.58 347.436 280.035 347.321C280.515 347.278 280.974 347.106 281.358 346.823C281.743 346.541 282.038 346.16 282.21 345.724C282.49 344.858 282.526 343.937 282.314 343.054C282 341.374 281.167 339.827 279.923 338.617C278.565 337.403 277.048 336.365 275.412 335.531L269.681 332.499C268.42 331.774 267.211 330.967 266.063 330.084C264.94 329.217 263.976 328.173 263.21 326.998C262.334 325.604 261.724 324.07 261.408 322.468C260.648 319.017 261.071 316.118 262.676 313.773C264.46 311.304 267.107 309.542 270.128 308.812L269.052 303.905L271.785 303.341L272.861 308.248C274.637 307.915 276.471 308.021 278.193 308.557C279.597 309.029 280.851 309.842 281.836 310.918C282.801 312 283.591 313.218 284.179 314.529C284.771 315.821 285.261 317.155 285.646 318.518L277.763 321.35C277.473 320.145 277.094 318.961 276.631 317.808C276.303 316.944 275.755 316.175 275.037 315.571C274.689 315.323 274.283 315.16 273.856 315.097C273.428 315.034 272.991 315.072 272.582 315.208C272.106 315.302 271.662 315.507 271.286 315.805C270.911 316.104 270.617 316.487 270.431 316.921C270.048 317.793 269.958 318.759 270.175 319.683C270.419 321.156 271.176 322.503 272.319 323.502C273.421 324.384 274.591 325.184 275.818 325.894L281.397 328.888C282.895 329.731 284.321 330.688 285.662 331.75C287.013 332.826 288.193 334.089 289.16 335.5C290.211 337.075 290.942 338.83 291.312 340.67C291.737 342.506 291.718 344.413 291.257 346.241C290.807 347.988 289.882 349.586 288.579 350.87C287.174 352.226 285.439 353.216 283.533 353.748L284.665 358.933L282.011 359.473Z" fill="#263238"/>
<path d="M375.238 275.503V273.396" stroke="#263238" stroke-miterlimit="10"/>
<path d="M377.135 270.966H310.568V275.673H377.135V270.966Z" fill="white" stroke="#263238" stroke-miterlimit="10"/>
<path d="M313.509 276.089V273.165" stroke="#263238" stroke-miterlimit="10"/>
<path d="M315.564 271.175V274.099" stroke="#263238" stroke-miterlimit="10"/>
<path d="M372.823 271.414V274.215" stroke="#263238" stroke-miterlimit="10"/>
<path d="M369.683 271.414V274.099" stroke="#263238" stroke-miterlimit="10"/>
<path d="M361.952 271.291V274.685" stroke="#263238" stroke-miterlimit="10"/>
<path d="M320.515 271.646V273.165" stroke="#263238" stroke-miterlimit="10"/>
<path d="M321.727 275.148V272.463" stroke="#263238" stroke-miterlimit="10"/>
<path d="M330.303 271.291V274.685" stroke="#263238" stroke-miterlimit="10"/>
<path d="M345.398 271.646V273.983" stroke="#263238" stroke-miterlimit="10"/>
<path d="M380.052 280.133V278.026" stroke="#263238" stroke-miterlimit="10"/>
<path d="M381.95 275.596H315.383V280.302H381.95V275.596Z" fill="white" stroke="#263238" stroke-miterlimit="10"/>
<path d="M318.323 280.711V277.787" stroke="#263238" stroke-miterlimit="10"/>
<path d="M320.38 275.804V278.728" stroke="#263238" stroke-miterlimit="10"/>
<path d="M377.629 276.036V278.844" stroke="#263238" stroke-miterlimit="10"/>
<path d="M374.488 276.036V278.728" stroke="#263238" stroke-miterlimit="10"/>
<path d="M366.758 275.92V279.315" stroke="#263238" stroke-miterlimit="10"/>
<path d="M325.329 276.267V277.787" stroke="#263238" stroke-miterlimit="10"/>
<path d="M326.541 279.778V277.093" stroke="#263238" stroke-miterlimit="10"/>
<path d="M335.116 275.92V279.315" stroke="#263238" stroke-miterlimit="10"/>
<path d="M350.212 276.267V278.613" stroke="#263238" stroke-miterlimit="10"/>
<path d="M378.362 284.754V282.648" stroke="#263238" stroke-miterlimit="10"/>
<path d="M380.259 280.217H313.692V284.924H380.259V280.217Z" fill="white" stroke="#263238" stroke-miterlimit="10"/>
<path d="M316.634 285.341V282.417" stroke="#263238" stroke-miterlimit="10"/>
<path d="M318.689 280.434V283.35" stroke="#263238" stroke-miterlimit="10"/>
<path d="M375.947 280.665V283.474" stroke="#263238" stroke-miterlimit="10"/>
<path d="M372.8 280.665V283.35" stroke="#263238" stroke-miterlimit="10"/>
<path d="M365.076 280.549V283.936" stroke="#263238" stroke-miterlimit="10"/>
<path d="M323.639 280.896V282.416" stroke="#263238" stroke-miterlimit="10"/>
<path d="M324.851 284.407V281.714" stroke="#263238" stroke-miterlimit="10"/>
<path d="M333.426 280.549V283.936" stroke="#263238" stroke-miterlimit="10"/>
<path d="M348.521 280.896V283.234" stroke="#263238" stroke-miterlimit="10"/>
<path d="M380.052 289.384V287.277" stroke="#263238" stroke-miterlimit="10"/>
<path d="M381.958 284.847H315.391V289.553H381.958V284.847Z" fill="white" stroke="#263238" stroke-miterlimit="10"/>
<path d="M318.331 289.97V287.046" stroke="#263238" stroke-miterlimit="10"/>
<path d="M320.387 285.055V287.979" stroke="#263238" stroke-miterlimit="10"/>
<path d="M377.637 285.294V288.095" stroke="#263238" stroke-miterlimit="10"/>
<path d="M374.497 285.294V287.98" stroke="#263238" stroke-miterlimit="10"/>
<path d="M366.766 285.171V288.566" stroke="#263238" stroke-miterlimit="10"/>
<path d="M325.336 285.526V287.046" stroke="#263238" stroke-miterlimit="10"/>
<path d="M326.549 289.029V286.344" stroke="#263238" stroke-miterlimit="10"/>
<path d="M335.124 285.171V288.566" stroke="#263238" stroke-miterlimit="10"/>
<path d="M350.22 285.526V287.864" stroke="#263238" stroke-miterlimit="10"/>
<path d="M375.238 294.013V291.907" stroke="#263238" stroke-miterlimit="10"/>
<path d="M377.135 289.476H310.568V294.183H377.135V289.476Z" fill="white" stroke="#263238" stroke-miterlimit="10"/>
<path d="M313.509 294.592V291.667" stroke="#263238" stroke-miterlimit="10"/>
<path d="M315.564 289.685V292.609" stroke="#263238" stroke-miterlimit="10"/>
<path d="M372.823 289.916V292.725" stroke="#263238" stroke-miterlimit="10"/>
<path d="M369.683 289.916V292.609" stroke="#263238" stroke-miterlimit="10"/>
<path d="M361.952 289.8V293.195" stroke="#263238" stroke-miterlimit="10"/>
<path d="M320.515 290.147V291.667" stroke="#263238" stroke-miterlimit="10"/>
<path d="M321.727 293.658V290.973" stroke="#263238" stroke-miterlimit="10"/>
<path d="M330.303 289.8V293.195" stroke="#263238" stroke-miterlimit="10"/>
<path d="M345.398 290.147V292.493" stroke="#263238" stroke-miterlimit="10"/>
<path d="M375.238 298.635V296.528" stroke="#263238" stroke-miterlimit="10"/>
<path d="M377.135 294.098H310.568V298.805H377.135V294.098Z" fill="white" stroke="#263238" stroke-miterlimit="10"/>
<path d="M313.509 299.221V296.297" stroke="#263238" stroke-miterlimit="10"/>
<path d="M315.564 294.306V297.23" stroke="#263238" stroke-miterlimit="10"/>
<path d="M372.823 294.545V297.354" stroke="#263238" stroke-miterlimit="10"/>
<path d="M369.683 294.545V297.23" stroke="#263238" stroke-miterlimit="10"/>
<path d="M361.952 294.43V297.817" stroke="#263238" stroke-miterlimit="10"/>
<path d="M320.515 294.777V296.297" stroke="#263238" stroke-miterlimit="10"/>
<path d="M321.727 298.287V295.595" stroke="#263238" stroke-miterlimit="10"/>
<path d="M330.303 294.43V297.817" stroke="#263238" stroke-miterlimit="10"/>
<path d="M345.398 294.777V297.115" stroke="#263238" stroke-miterlimit="10"/>
<path d="M375.238 303.264V301.158" stroke="#263238" stroke-miterlimit="10"/>
<path d="M377.135 298.728H310.568V303.434H377.135V298.728Z" fill="white" stroke="#263238" stroke-miterlimit="10"/>
<path d="M313.509 303.85V300.926" stroke="#263238" stroke-miterlimit="10"/>
<path d="M315.564 298.936V301.86" stroke="#263238" stroke-miterlimit="10"/>
<path d="M372.823 299.167V301.975" stroke="#263238" stroke-miterlimit="10"/>
<path d="M369.683 299.167V301.86" stroke="#263238" stroke-miterlimit="10"/>
<path d="M361.952 299.051V302.446" stroke="#263238" stroke-miterlimit="10"/>
<path d="M320.515 299.406V300.926" stroke="#263238" stroke-miterlimit="10"/>
<path d="M321.727 302.909V300.224" stroke="#263238" stroke-miterlimit="10"/>
<path d="M330.303 299.051V302.446" stroke="#263238" stroke-miterlimit="10"/>
<path d="M345.398 299.406V301.744" stroke="#263238" stroke-miterlimit="10"/>
<path d="M380.443 307.894V305.787" stroke="#263238" stroke-miterlimit="10"/>
<path d="M382.339 303.357H315.772V308.064H382.339V303.357Z" fill="white" stroke="#263238" stroke-miterlimit="10"/>
<path d="M318.722 308.472V305.548" stroke="#263238" stroke-miterlimit="10"/>
<path d="M320.77 303.565V306.49" stroke="#263238" stroke-miterlimit="10"/>
<path d="M378.027 303.796V306.605" stroke="#263238" stroke-miterlimit="10"/>
<path d="M374.888 303.796V306.489" stroke="#263238" stroke-miterlimit="10"/>
<path d="M367.156 303.681V307.068" stroke="#263238" stroke-miterlimit="10"/>
<path d="M325.728 304.028V305.548" stroke="#263238" stroke-miterlimit="10"/>
<path d="M326.932 307.539V304.854" stroke="#263238" stroke-miterlimit="10"/>
<path d="M335.506 303.681V307.068" stroke="#263238" stroke-miterlimit="10"/>
<path d="M350.61 304.028V306.374" stroke="#263238" stroke-miterlimit="10"/>
<path d="M382.26 312.515V310.409" stroke="#263238" stroke-miterlimit="10"/>
<path d="M384.165 307.979H317.598V312.685H384.165V307.979Z" fill="white" stroke="#263238" stroke-miterlimit="10"/>
<path d="M320.539 313.101V310.177" stroke="#263238" stroke-miterlimit="10"/>
<path d="M322.596 308.187V311.111" stroke="#263238" stroke-miterlimit="10"/>
<path d="M379.845 308.426V311.235" stroke="#263238" stroke-miterlimit="10"/>
<path d="M376.705 308.426V311.111" stroke="#263238" stroke-miterlimit="10"/>
<path d="M368.974 308.31V311.697" stroke="#263238" stroke-miterlimit="10"/>
<path d="M327.545 308.657V310.177" stroke="#263238" stroke-miterlimit="10"/>
<path d="M328.756 312.168V309.476" stroke="#263238" stroke-miterlimit="10"/>
<path d="M337.332 308.31V311.697" stroke="#263238" stroke-miterlimit="10"/>
<path d="M352.428 308.657V310.995" stroke="#263238" stroke-miterlimit="10"/>
<path d="M380.061 317.144V315.038" stroke="#263238" stroke-miterlimit="10"/>
<path d="M381.958 312.608H315.391V317.314H381.958V312.608Z" fill="white" stroke="#263238" stroke-miterlimit="10"/>
<path d="M318.339 317.731V314.807" stroke="#263238" stroke-miterlimit="10"/>
<path d="M320.387 312.816V315.741" stroke="#263238" stroke-miterlimit="10"/>
<path d="M377.646 313.048V315.856" stroke="#263238" stroke-miterlimit="10"/>
<path d="M374.505 313.048V315.741" stroke="#263238" stroke-miterlimit="10"/>
<path d="M366.773 312.932V316.327" stroke="#263238" stroke-miterlimit="10"/>
<path d="M325.345 313.287V314.807" stroke="#263238" stroke-miterlimit="10"/>
<path d="M326.549 316.79V314.105" stroke="#263238" stroke-miterlimit="10"/>
<path d="M335.124 312.932V316.327" stroke="#263238" stroke-miterlimit="10"/>
<path d="M350.228 313.287V315.624" stroke="#263238" stroke-miterlimit="10"/>
<path d="M375.238 321.774V319.668" stroke="#263238" stroke-miterlimit="10"/>
<path d="M377.135 317.237H310.568V321.944H377.135V317.237Z" fill="white" stroke="#263238" stroke-miterlimit="10"/>
<path d="M313.509 322.353V319.429" stroke="#263238" stroke-miterlimit="10"/>
<path d="M315.564 317.446V320.37" stroke="#263238" stroke-miterlimit="10"/>
<path d="M372.823 317.677V320.486" stroke="#263238" stroke-miterlimit="10"/>
<path d="M369.683 317.677V320.37" stroke="#263238" stroke-miterlimit="10"/>
<path d="M361.952 317.562V320.949" stroke="#263238" stroke-miterlimit="10"/>
<path d="M320.515 317.909V319.429" stroke="#263238" stroke-miterlimit="10"/>
<path d="M321.727 321.419V318.734" stroke="#263238" stroke-miterlimit="10"/>
<path d="M330.303 317.562V320.949" stroke="#263238" stroke-miterlimit="10"/>
<path d="M345.398 317.909V320.254" stroke="#263238" stroke-miterlimit="10"/>
<path d="M373.628 326.396V324.29" stroke="#263238" stroke-miterlimit="10"/>
<path d="M375.524 321.859H308.957V326.565H375.524V321.859Z" fill="white" stroke="#263238" stroke-miterlimit="10"/>
<path d="M311.907 326.982V324.058" stroke="#263238" stroke-miterlimit="10"/>
<path d="M313.955 322.067V324.992" stroke="#263238" stroke-miterlimit="10"/>
<path d="M371.213 322.307V325.107" stroke="#263238" stroke-miterlimit="10"/>
<path d="M368.073 322.307V324.992" stroke="#263238" stroke-miterlimit="10"/>
<path d="M360.342 322.191V325.578" stroke="#263238" stroke-miterlimit="10"/>
<path d="M318.912 322.538V324.058" stroke="#263238" stroke-miterlimit="10"/>
<path d="M320.116 326.049V323.356" stroke="#263238" stroke-miterlimit="10"/>
<path d="M328.692 322.191V325.578" stroke="#263238" stroke-miterlimit="10"/>
<path d="M343.795 322.538V324.876" stroke="#263238" stroke-miterlimit="10"/>
<path d="M373.309 331.025V328.919" stroke="#263238" stroke-miterlimit="10"/>
<path d="M375.206 326.488H308.639V331.195H375.206V326.488Z" fill="white" stroke="#263238" stroke-miterlimit="10"/>
<path d="M311.58 331.612V328.688" stroke="#263238" stroke-miterlimit="10"/>
<path d="M313.637 326.697V329.621" stroke="#263238" stroke-miterlimit="10"/>
<path d="M370.895 326.928V329.737" stroke="#263238" stroke-miterlimit="10"/>
<path d="M367.754 326.928V329.621" stroke="#263238" stroke-miterlimit="10"/>
<path d="M360.023 326.812V330.207" stroke="#263238" stroke-miterlimit="10"/>
<path d="M318.586 327.167V328.687" stroke="#263238" stroke-miterlimit="10"/>
<path d="M319.798 330.67V327.985" stroke="#263238" stroke-miterlimit="10"/>
<path d="M328.373 326.812V330.207" stroke="#263238" stroke-miterlimit="10"/>
<path d="M343.469 327.167V329.505" stroke="#263238" stroke-miterlimit="10"/>
<path d="M373.469 335.655V333.548" stroke="#263238" stroke-miterlimit="10"/>
<path d="M375.366 331.118H308.799V335.824H375.366V331.118Z" fill="white" stroke="#263238" stroke-miterlimit="10"/>
<path d="M311.748 336.233V333.309" stroke="#263238" stroke-miterlimit="10"/>
<path d="M313.796 331.326V334.25" stroke="#263238" stroke-miterlimit="10"/>
<path d="M371.054 331.558V334.366" stroke="#263238" stroke-miterlimit="10"/>
<path d="M367.913 331.558V334.25" stroke="#263238" stroke-miterlimit="10"/>
<path d="M360.183 331.442V334.829" stroke="#263238" stroke-miterlimit="10"/>
<path d="M318.754 331.789V333.309" stroke="#263238" stroke-miterlimit="10"/>
<path d="M319.957 335.3V332.607" stroke="#263238" stroke-miterlimit="10"/>
<path d="M328.533 331.442V334.829" stroke="#263238" stroke-miterlimit="10"/>
<path d="M343.637 331.789V334.135" stroke="#263238" stroke-miterlimit="10"/>
<path d="M372.504 340.276V338.17" stroke="#263238" stroke-miterlimit="10"/>
<path d="M374.401 335.74H307.834V340.446H374.401V335.74Z" fill="white" stroke="#263238" stroke-miterlimit="10"/>
<path d="M310.783 340.863V337.938" stroke="#263238" stroke-miterlimit="10"/>
<path d="M312.832 335.948V338.872" stroke="#263238" stroke-miterlimit="10"/>
<path d="M370.09 336.187V338.988" stroke="#263238" stroke-miterlimit="10"/>
<path d="M366.949 336.187V338.872" stroke="#263238" stroke-miterlimit="10"/>
<path d="M359.219 336.071V339.458" stroke="#263238" stroke-miterlimit="10"/>
<path d="M317.789 336.418V337.938" stroke="#263238" stroke-miterlimit="10"/>
<path d="M318.992 339.929V337.236" stroke="#263238" stroke-miterlimit="10"/>
<path d="M327.568 336.071V339.458" stroke="#263238" stroke-miterlimit="10"/>
<path d="M342.672 336.418V338.756" stroke="#263238" stroke-miterlimit="10"/>
<path d="M372.664 344.906V342.799" stroke="#263238" stroke-miterlimit="10"/>
<path d="M374.561 340.369H307.994V345.076H374.561V340.369Z" fill="white" stroke="#263238" stroke-miterlimit="10"/>
<path d="M310.943 345.492V342.568" stroke="#263238" stroke-miterlimit="10"/>
<path d="M312.991 340.577V343.501" stroke="#263238" stroke-miterlimit="10"/>
<path d="M370.249 340.809V343.617" stroke="#263238" stroke-miterlimit="10"/>
<path d="M367.107 340.809V343.501" stroke="#263238" stroke-miterlimit="10"/>
<path d="M359.377 340.693V344.088" stroke="#263238" stroke-miterlimit="10"/>
<path d="M317.949 341.048V342.568" stroke="#263238" stroke-miterlimit="10"/>
<path d="M319.152 344.551V341.866" stroke="#263238" stroke-miterlimit="10"/>
<path d="M327.728 340.693V344.088" stroke="#263238" stroke-miterlimit="10"/>
<path d="M342.831 341.048V343.386" stroke="#263238" stroke-miterlimit="10"/>
<path d="M373.309 349.527V347.429" stroke="#263238" stroke-miterlimit="10"/>
<path d="M375.206 344.999H308.639V349.705H375.206V344.999Z" fill="white" stroke="#263238" stroke-miterlimit="10"/>
<path d="M311.58 350.114V347.189" stroke="#263238" stroke-miterlimit="10"/>
<path d="M313.637 345.207V348.131" stroke="#263238" stroke-miterlimit="10"/>
<path d="M370.895 345.438V348.246" stroke="#263238" stroke-miterlimit="10"/>
<path d="M367.754 345.438V348.131" stroke="#263238" stroke-miterlimit="10"/>
<path d="M360.023 345.322V348.709" stroke="#263238" stroke-miterlimit="10"/>
<path d="M318.586 345.669V347.189" stroke="#263238" stroke-miterlimit="10"/>
<path d="M319.798 349.18V346.487" stroke="#263238" stroke-miterlimit="10"/>
<path d="M328.373 345.322V348.709" stroke="#263238" stroke-miterlimit="10"/>
<path d="M343.469 345.669V348.007" stroke="#263238" stroke-miterlimit="10"/>
<path d="M373.469 354.157V352.05" stroke="#263238" stroke-miterlimit="10"/>
<path d="M375.366 349.62H308.799V354.327H375.366V349.62Z" fill="white" stroke="#263238" stroke-miterlimit="10"/>
<path d="M311.748 354.743V351.819" stroke="#263238" stroke-miterlimit="10"/>
<path d="M313.796 349.829V352.753" stroke="#263238" stroke-miterlimit="10"/>
<path d="M371.054 350.067V352.868" stroke="#263238" stroke-miterlimit="10"/>
<path d="M367.913 350.067V352.752" stroke="#263238" stroke-miterlimit="10"/>
<path d="M360.183 349.952V353.339" stroke="#263238" stroke-miterlimit="10"/>
<path d="M318.754 350.299V351.819" stroke="#263238" stroke-miterlimit="10"/>
<path d="M319.957 353.81V351.117" stroke="#263238" stroke-miterlimit="10"/>
<path d="M328.533 349.952V353.339" stroke="#263238" stroke-miterlimit="10"/>
<path d="M343.637 350.299V352.637" stroke="#263238" stroke-miterlimit="10"/>
<path d="M375.238 358.786V356.68" stroke="#263238" stroke-miterlimit="10"/>
<path d="M377.135 354.25H310.568V358.956H377.135V354.25Z" fill="white" stroke="#263238" stroke-miterlimit="10"/>
<path d="M313.509 359.372V356.448" stroke="#263238" stroke-miterlimit="10"/>
<path d="M315.564 354.458V357.382" stroke="#263238" stroke-miterlimit="10"/>
<path d="M372.823 354.689V357.498" stroke="#263238" stroke-miterlimit="10"/>
<path d="M369.683 354.689V357.382" stroke="#263238" stroke-miterlimit="10"/>
<path d="M361.952 354.574V357.969" stroke="#263238" stroke-miterlimit="10"/>
<path d="M320.515 354.928V356.448" stroke="#263238" stroke-miterlimit="10"/>
<path d="M321.727 358.432V355.747" stroke="#263238" stroke-miterlimit="10"/>
<path d="M330.303 354.574V357.969" stroke="#263238" stroke-miterlimit="10"/>
<path d="M345.398 354.928V357.266" stroke="#263238" stroke-miterlimit="10"/>
<path d="M375.238 363.408V361.31" stroke="#263238" stroke-miterlimit="10"/>
<path d="M377.135 358.871H310.568V363.57H377.135V358.871Z" fill="white" stroke="#263238" stroke-miterlimit="10"/>
<path d="M313.509 363.995V361.07" stroke="#263238" stroke-miterlimit="10"/>
<path d="M315.564 359.087V362.012" stroke="#263238" stroke-miterlimit="10"/>
<path d="M372.823 359.319V362.127" stroke="#263238" stroke-miterlimit="10"/>
<path d="M369.683 359.319V362.012" stroke="#263238" stroke-miterlimit="10"/>
<path d="M361.952 359.203V362.59" stroke="#263238" stroke-miterlimit="10"/>
<path d="M320.515 359.55V361.07" stroke="#263238" stroke-miterlimit="10"/>
<path d="M321.727 363.061V360.368" stroke="#263238" stroke-miterlimit="10"/>
<path d="M330.303 359.203V362.59" stroke="#263238" stroke-miterlimit="10"/>
<path d="M345.398 359.55V361.888" stroke="#263238" stroke-miterlimit="10"/>
<path d="M375.238 368.038V365.931" stroke="#263238" stroke-miterlimit="10"/>
<path d="M377.135 363.5H310.568V368.199H377.135V363.5Z" fill="white" stroke="#263238" stroke-miterlimit="10"/>
<path d="M313.509 368.624V365.7" stroke="#263238" stroke-miterlimit="10"/>
<path d="M315.564 363.709V366.633" stroke="#263238" stroke-miterlimit="10"/>
<path d="M372.823 363.948V366.749" stroke="#263238" stroke-miterlimit="10"/>
<path d="M369.683 363.948V366.633" stroke="#263238" stroke-miterlimit="10"/>
<path d="M361.952 363.833V367.22" stroke="#263238" stroke-miterlimit="10"/>
<path d="M320.515 364.18V365.7" stroke="#263238" stroke-miterlimit="10"/>
<path d="M321.727 367.69V364.998" stroke="#263238" stroke-miterlimit="10"/>
<path d="M330.303 363.833V367.22" stroke="#263238" stroke-miterlimit="10"/>
<path d="M345.398 364.18V366.518" stroke="#263238" stroke-miterlimit="10"/>
<path d="M171.783 232.959H145.648V298.403H171.783V232.959Z" fill="#263238" stroke="#263238" stroke-linecap="round" stroke-linejoin="round"/>
<path d="M232.827 243.306V242.534C232.827 239.993 231.784 237.555 229.928 235.758C228.071 233.961 225.553 232.951 222.928 232.951H145.617V233.044C147.999 233.342 150.188 234.47 151.773 236.216C153.359 237.963 154.233 240.209 154.233 242.534V259.2H154.408V356.803C154.408 358.316 154.716 359.814 155.314 361.212C155.912 362.609 156.789 363.879 157.894 364.949C158.999 366.019 160.31 366.867 161.754 367.446C163.198 368.025 164.745 368.323 166.308 368.323H232.811V243.329L232.827 243.306Z" fill="#DBDBDB" stroke="#263238" stroke-linecap="round" stroke-linejoin="round"/>
<path d="M180.479 351.209V358.748C180.477 360.896 179.729 362.981 178.356 364.668C176.983 366.356 175.064 367.548 172.907 368.053V368.331H207.059V351.209H180.479Z" fill="#263238" stroke="#263238" stroke-linecap="round" stroke-linejoin="round"/>
<path d="M185.803 342.082V358.748C185.8 361.071 184.926 363.314 183.343 365.06C181.759 366.806 179.575 367.935 177.195 368.238V368.323H245.739C247.039 368.323 248.326 368.075 249.527 367.594C250.728 367.112 251.819 366.406 252.739 365.516C253.658 364.626 254.387 363.57 254.884 362.407C255.382 361.245 255.638 359.999 255.638 358.74V342.082H185.803Z" fill="#DBDBDB" stroke="#263238" stroke-linecap="round" stroke-linejoin="round"/>
<path d="M169.647 245.991H221.159" stroke="#263238" stroke-miterlimit="10"/>
<path d="M169.647 255.08H221.159" stroke="#263238" stroke-miterlimit="10"/>
<path d="M169.647 262.795H221.159" stroke="#263238" stroke-miterlimit="10"/>
<path d="M169.647 316.52H221.159" stroke="#263238" stroke-miterlimit="10"/>
<path d="M169.647 329.752H221.159" stroke="#263238" stroke-miterlimit="10"/>
<path d="M169.647 270.789H200.388" stroke="#263238" stroke-miterlimit="10"/>
<path d="M169.647 277.949H200.388" stroke="#263238" stroke-miterlimit="10"/>
<path d="M169.647 285.109H200.388" stroke="#263238" stroke-miterlimit="10"/>
<path d="M169.647 292.277H200.388" stroke="#263238" stroke-miterlimit="10"/>
<path d="M169.647 299.437H200.388" stroke="#263238" stroke-miterlimit="10"/>
<path d="M169.647 306.605H200.388" stroke="#263238" stroke-miterlimit="10"/>
<path d="M97.2303 356.965C97.2303 356.965 100.769 361.68 102.315 362.32C103.862 362.96 106.739 363.392 107.623 365.321C108.115 366.258 108.418 367.277 108.516 368.323H86.6061C86.6061 368.323 85.7214 365.537 86.6061 363.825C87.1515 362.743 87.525 361.588 87.7139 360.399L97.2303 356.965Z" fill="white" stroke="#263238" stroke-linecap="round" stroke-linejoin="round"/>
<path d="M86.2324 366.178H107.983C108.274 366.862 108.454 367.585 108.517 368.323H86.607C86.4027 367.623 86.2771 366.904 86.2324 366.178Z" fill="white" stroke="#263238" stroke-linecap="round" stroke-linejoin="round"/>
<path d="M73.7745 361.68L73.3362 368.531H62.7119C62.4638 367.247 62.5404 365.923 62.9351 364.674C63.5966 362.745 64.2661 361.032 64.2661 361.032L73.7745 361.68Z" fill="white" stroke="#263238" stroke-linecap="round" stroke-linejoin="round"/>
<path d="M73.3358 368.531H62.7115C62.5488 367.684 62.5246 366.817 62.6398 365.962H73.5032L73.3358 368.531Z" fill="white" stroke="#263238" stroke-linecap="round" stroke-linejoin="round"/>
<path d="M105.854 257.132C105.854 257.132 104.085 279.408 103.646 287.332C103.208 295.256 97.2303 356.95 97.2303 356.95C97.2303 356.95 88.5986 362.097 87.4907 362.097C86.3829 362.097 85.0997 287.764 85.0997 287.764L73.7741 361.68C72.5559 362.058 71.2903 362.273 70.0121 362.32C68.2427 362.32 64.2656 361.04 64.2656 361.04L68.0036 271.931V257.132C68.0036 257.132 90.3202 260.134 96.3217 259.277C99.5631 258.861 102.755 258.143 105.854 257.132Z" fill="#263238" stroke="#263238" stroke-linecap="round" stroke-linejoin="round"/>
<path d="M78.8672 270.643L83.729 274.284L85.06 287.779" stroke="#808080" stroke-linecap="round" stroke-linejoin="round"/>
<path d="M76.8588 166.643C76.8588 166.643 85.881 165.547 88.5351 168.533C91.1892 171.519 91.7232 177.306 93.5643 178.694C95.4054 180.083 96.4336 178.355 97.2545 180.16C98.0754 181.966 96.7364 184.196 96.7364 184.196C96.7364 184.196 96.9596 192.891 95.9394 193.308C94.9192 193.725 90.3603 193.732 90.3603 193.732L91.1015 197.305L79.6882 197.768L78.6919 194.033C78.6919 194.033 70.0124 189.157 67.6692 185.461C65.3259 181.765 65.8838 173.579 68.2271 170.716C70.5703 167.854 76.8588 166.643 76.8588 166.643Z" fill="white" stroke="#263238" stroke-linecap="round" stroke-linejoin="round"/>
<path d="M96.7363 184.196C96.7363 184.196 91.4441 182.583 91.1572 183.347C90.8703 184.111 91.7868 193.863 91.7868 193.863C91.7868 193.863 95.5248 194.28 95.9393 193.308C96.3537 192.336 97.1508 191.14 96.7363 184.196ZM95.6205 192.382C95.3176 193.154 92.6396 192.83 92.6396 192.83C92.6396 192.83 91.9622 184.975 92.1853 184.342C92.4085 183.71 96.1704 185.029 96.1704 185.029C96.4972 190.638 95.8994 191.603 95.6205 192.382Z" fill="#263238"/>
<path d="M90.8391 178.27C91.118 178.926 91.5643 179.366 91.8353 179.258C92.1063 179.15 92.0983 178.532 91.8353 177.876C91.5723 177.221 91.11 176.781 90.8391 176.889C90.5681 176.997 90.5601 177.614 90.8391 178.27Z" fill="#263238"/>
<path d="M95.828 185.6C95.3528 185.833 94.804 185.884 94.2921 185.74C93.7803 185.597 93.3437 185.271 93.0703 184.829" stroke="#263238" stroke-linecap="round" stroke-linejoin="round"/>
<path d="M90.7433 175.23C90.7433 175.23 89.5876 174.621 89.4521 176.48" stroke="#263238" stroke-linecap="round" stroke-linejoin="round"/>
<path d="M68.2274 170.716C70.5706 167.862 76.8591 166.643 76.8591 166.643C76.8591 166.643 85.8813 165.547 88.5354 168.533C88.5354 168.533 83.546 167.314 84.1916 169.374C84.8372 171.434 90.0099 174.582 88.2325 175.801C86.4552 177.02 84.4547 176.094 85.2836 177.9C86.1124 179.705 87.1486 181.472 86.2798 181.634C85.4111 181.796 82.9802 179.875 81.944 180.292C80.9079 180.708 79.7283 183.779 80.7246 185.338C81.3946 186.292 82.4248 186.955 83.5939 187.182C83.5939 187.182 81.8165 191.68 80.2544 192.853C79.5774 193.371 78.7241 193.624 77.8633 193.563C75.6556 192.259 69.5504 188.47 67.6455 185.461C65.3262 181.765 65.8841 173.579 68.2274 170.716Z" fill="#263238" stroke="#263238" stroke-linecap="round" stroke-linejoin="round"/>
<path d="M67.6616 203.608C67.6616 203.608 61.2296 207.682 59.5001 210.792C57.7706 213.901 53.5623 243.105 53.0682 246.222C52.574 249.339 60.1218 271.244 60.1218 271.244C60.1218 271.244 59.5001 276.259 60.1218 278.96C60.7435 281.66 62.5846 283.234 63.5171 283.389C64.4496 283.543 65.2386 280.819 65.2386 280.819C65.8603 281.421 66.6414 280.665 66.6414 279.917C66.6414 279.168 67.1116 273.744 66.9522 272.972C66.7928 272.201 66.0994 269.709 66.0994 269.709L67.6935 250.512L67.6616 203.608Z" fill="white" stroke="#263238" stroke-linecap="round" stroke-linejoin="round"/>
<path d="M53.6582 243.506C56.2628 244.532 59.0334 245.107 61.8436 245.204C65.9403 245.204 67.1039 244.64 67.1039 244.64L67.3032 239.548C67.3032 239.548 57.9462 239.548 56.9419 239.17C55.9377 238.792 54.2081 238.229 54.2081 238.229L53.6582 243.506Z" fill="#FFC100" stroke="#263238" stroke-linecap="round" stroke-linejoin="round"/>
<path d="M59.5 210.792C58.169 213.176 55.3954 230.852 53.9209 240.428C58.3435 241.812 63.005 242.336 67.6376 241.971V203.608C67.6376 203.608 61.2296 207.682 59.5 210.792Z" fill="#FFC100" stroke="#263238" stroke-linecap="round" stroke-linejoin="round"/>
<path d="M63.6848 229.433L58.0977 226.1" stroke="#263238" stroke-linecap="round" stroke-linejoin="round"/>
<path d="M60.2324 231.346L64.1697 230.868" stroke="#263238" stroke-linecap="round" stroke-linejoin="round"/>
<path d="M64.9196 273.59C64.7512 274.331 64.3732 275.012 63.8277 275.557L63.0306 276.159L62.5684 278.883C62.5684 278.883 62.8792 280.542 63.0306 281.444" stroke="#263238" stroke-linecap="round" stroke-linejoin="round"/>
<path d="M65.2395 280.842L65.0801 276.915" stroke="#263238" stroke-linecap="round" stroke-linejoin="round"/>
<path d="M64.7677 238.545C64.4649 227.959 62.0658 219.063 61.8825 217.327C61.6753 215.282 61.1333 210.082 65.1184 205.553C67.1454 203.641 69.4623 202.041 71.9887 200.808C73.3995 200.399 74.4834 200.206 74.4834 200.206L73.7741 199.99C75.0086 199.477 76.279 199.049 77.5758 198.709C80.8994 197.852 89.7463 197.42 92.4004 199.781C92.4004 199.781 100.068 202.096 103.838 204.75C105.736 207.046 106.924 209.814 107.265 212.736C107.663 216.987 108.444 237.542 108.731 245.304C108.795 247.063 108.939 248.799 109.162 250.543C109.664 254.401 110.309 267.641 110.309 267.641C110.309 267.641 101.917 270.449 88.4153 270.025C74.9138 269.601 66.6806 266.244 66.6806 266.244L64.696 265.226C64.696 265.226 64.696 252.672 64.696 250.566C64.7199 246.454 64.8156 238.614 64.7677 238.545Z" fill="#FFC100" stroke="#263238" stroke-linecap="round" stroke-linejoin="round"/>
<path d="M88.7266 230.366C89.3211 231.419 90.0233 232.412 90.8227 233.329L88.7266 230.366Z" fill="#FFC100"/>
<path d="M88.7266 230.366C89.3211 231.419 90.0233 232.412 90.8227 233.329" stroke="#263238" stroke-linecap="round" stroke-linejoin="round"/>
<path d="M82.5586 213.585C83.7627 218.615 85.4546 223.523 87.6117 228.245L82.5586 213.585Z" fill="#FFC100"/>
<path d="M82.5586 213.585C83.7627 218.615 85.4546 223.523 87.6117 228.245" stroke="#263238" stroke-linecap="round" stroke-linejoin="round"/>
<path d="M83.0605 222.751C83.5945 223.739 84.0887 224.634 84.4792 225.32L83.0605 222.751Z" fill="#FFC100"/>
<path d="M83.0605 222.751C83.5945 223.739 84.0887 224.634 84.4792 225.32" stroke="#263238" stroke-linecap="round" stroke-linejoin="round"/>
<path d="M78.3184 213.77C78.3184 213.77 80.008 217.041 81.7376 220.298L78.3184 213.77Z" fill="#FFC100"/>
<path d="M78.3184 213.77C78.3184 213.77 80.008 217.041 81.7376 220.298" stroke="#263238" stroke-linecap="round" stroke-linejoin="round"/>
<path d="M97.7399 201.626C97.7399 201.626 94.5041 197.143 93.8425 196.718C93.181 196.294 79.7592 194.913 76.882 195.769C74.0047 196.626 71.9883 200.808 71.9883 200.808C71.9883 200.808 86.231 199.905 97.7399 201.626Z" fill="white" stroke="#263238" stroke-linecap="round" stroke-linejoin="round"/>
<path d="M100.579 224.61L113.435 235.621C113.435 235.621 120.353 240.404 123.078 239.478C125.469 238.63 146.877 220.336 151.851 216.069L153.788 215.004C153.788 215.004 156.553 215.004 157.358 214.511C158.163 214.017 159.367 213.083 159.367 213.083H160.036C160.706 213.083 161.112 212.173 161.383 211.262C161.654 210.352 162.451 207.759 162.18 207.111C161.909 206.463 158.418 204.249 158.418 204.249C158.418 204.249 159.359 202.952 159.765 202.435C160.172 201.919 161.503 200.483 161.359 199.187C161.216 197.891 159.765 197.235 158.538 198.67C157.31 200.105 151.293 204.511 150.488 206.07C149.922 207.157 149.101 208.917 148.647 209.873L124.29 222.936C124.29 222.936 110.191 206.903 108.708 205.962C107.226 205.02 96.2109 201.795 96.2109 201.795" fill="white"/>
<path d="M100.579 224.61L113.435 235.621C113.435 235.621 120.353 240.404 123.078 239.478C125.469 238.63 146.877 220.336 151.851 216.069L153.788 215.004C153.788 215.004 156.553 215.004 157.358 214.511C158.163 214.017 159.367 213.083 159.367 213.083H160.036C160.706 213.083 161.112 212.173 161.383 211.262C161.654 210.352 162.451 207.759 162.18 207.111C161.909 206.463 158.418 204.249 158.418 204.249C158.418 204.249 159.359 202.952 159.765 202.435C160.172 201.919 161.503 200.483 161.359 199.187C161.216 197.891 159.765 197.235 158.538 198.67C157.31 200.105 151.293 204.511 150.488 206.07C149.922 207.157 149.101 208.917 148.647 209.873L124.29 222.936C124.29 222.936 110.191 206.903 108.708 205.962C107.226 205.02 96.2109 201.795 96.2109 201.795" stroke="#263238" stroke-linecap="round" stroke-linejoin="round"/>
<path d="M100.578 224.611L113.434 235.621C113.434 235.621 120.352 240.405 123.078 239.479C124.034 239.139 128.043 236.007 132.818 232.095C132.758 229.984 132.335 227.898 131.566 225.922C130.91 223.992 129.768 222.25 128.243 220.853L124.313 222.959C124.313 222.959 110.214 206.926 108.732 205.985C107.249 205.044 96.2344 201.818 96.2344 201.818" fill="#FFC100"/>
<path d="M100.578 224.611L113.434 235.621C113.434 235.621 120.352 240.405 123.078 239.479C124.034 239.139 128.043 236.007 132.818 232.095C132.758 229.984 132.335 227.898 131.566 225.922C130.91 223.992 129.768 222.25 128.243 220.853L124.313 222.959C124.313 222.959 110.214 206.926 108.732 205.985C107.249 205.044 96.2344 201.818 96.2344 201.818" stroke="#263238" stroke-linecap="round" stroke-linejoin="round"/>
<path d="M125.852 221.331C125.852 221.331 126.585 220.374 128.705 222.928C130.825 225.482 131.893 231.462 131.893 232.311C131.893 233.159 133.304 232.82 134.18 231.801C135.057 230.783 137.879 230.436 138.237 227.704C138.596 224.973 137.353 221.223 135.766 218.839C134.18 216.455 134.356 216.447 132.77 216.787C131.184 217.126 126.354 220.097 125.852 221.331Z" fill="#FFC100" stroke="#263238" stroke-linecap="round" stroke-linejoin="round"/>
<path d="M124.322 222.929C124.322 222.929 125.956 225.143 125.303 229.433L124.322 222.929Z" fill="#FFC100"/>
<path d="M124.322 222.929C124.322 222.929 125.956 225.143 125.303 229.433" stroke="#263238" stroke-linecap="round" stroke-linejoin="round"/>
<path d="M126.984 227.211C126.984 227.211 127.637 228.8 126.322 232.303L126.984 227.211Z" fill="#FFC100"/>
<path d="M126.984 227.211C126.984 227.211 127.637 228.8 126.322 232.303" stroke="#263238" stroke-linecap="round" stroke-linejoin="round"/>
<path d="M158.864 212.906C159.211 212.126 159.392 211.286 159.398 210.437L158.864 212.906Z" fill="white"/>
<path d="M158.864 212.906C159.211 212.126 159.392 211.286 159.398 210.437" stroke="#263238" stroke-linecap="round" stroke-linejoin="round"/>
<path d="M11.248 368.531H379.343" stroke="#263238" stroke-miterlimit="10"/>
</svg>
